<svg xmlns="http://www.w3.org/2000/svg" xmlns:xlink="http://www.w3.org/1999/xlink" contentStyleType="text/css" data-diagram-type="CLASS" height="457px" preserveAspectRatio="none" style="width:2182px;height:457px;background:#FFFFFF;" version="1.1" viewBox="0 0 2182 457" width="2182px" zoomAndPan="magnify"><title>Diagrama da Camada de Reposit&#243;rio (Data Access Layer)</title><defs/><g><g class="title" data-source-line="2"><text fill="#000000" font-family="Verdana" font-size="22" font-weight="bold" lengthAdjust="spacing" textLength="708.3613" x="732.3193" y="35.4209">Diagrama da Camada de Reposit&#243;rio (Data Access Layer)</text></g><!--cluster Repositories--><g class="cluster" data-entity="Repositories" data-source-line="6" data-uid="ent0002" id="cluster_Repositories"><path d="M13.5,57.6094 L113.3887,57.6094 A3.75,3.75 0 0 1 115.8887,60.1094 L122.8887,79.9063 L2172.5,79.9063 A2.5,2.5 0 0 1 2175,82.4063 L2175,267.1094 A2.5,2.5 0 0 1 2172.5,269.6094 L13.5,269.6094 A2.5,2.5 0 0 1 11,267.1094 L11,60.1094 A2.5,2.5 0 0 1 13.5,57.6094" fill="#FFFFFF" style="stroke:#000000;stroke-width:1;"/><line style="stroke:#000000;stroke-width:1;" x1="11" x2="122.8887" y1="79.9063" y2="79.9063"/><text fill="#000000" font-family="Verdana" font-size="14" font-weight="bold" lengthAdjust="spacing" textLength="98.8887" x="15" y="72.6045">Repositories</text></g><!--cluster Entities (Managed by Repositories)--><g class="cluster" data-entity="Entities (Managed by Repositories)" data-source-line="22" data-uid="ent0015" id="cluster_Entities (Managed by Repositories)"><path d="M424,328.6094 C424,318.6094 1141,318.6094 1141,318.6094 C1141,318.6094 1858,318.6094 1858,328.6094 L1858,430.6094 C1858,440.6094 1141,440.6094 1141,440.6094 C1141,440.6094 424,440.6094 424,430.6094 L424,328.6094" fill="#FFFFFF" style="stroke:#000000;stroke-width:1;"/><path d="M424,328.6094 C424,338.6094 1141,338.6094 1141,338.6094 C1141,338.6094 1858,338.6094 1858,328.6094" fill="none" style="stroke:#000000;stroke-width:1;"/><text fill="#000000" font-family="Verdana" font-size="14" font-weight="bold" lengthAdjust="spacing" textLength="278.127" x="1001.9365" y="353.6045">Entities (Managed by Repositories)</text></g><!--class JpaRepository--><g class="entity" data-entity="JpaRepository" data-source-line="7" data-uid="ent0003" id="entity_JpaRepository"><rect fill="#FFFFFF" height="44" rx="2.5" ry="2.5" style="stroke:#000000;stroke-width:1;" width="124.667" x="1019.5" y="92.6094"/><ellipse cx="1032.5" cy="106.6094" fill="#FFFFFF" rx="9" ry="9" style="stroke:#000000;stroke-width:1;"/><path d="M1028.4219,102.375 L1028.4219,100.2188 L1035.8125,100.2188 L1035.8125,102.375 L1033.3438,102.375 L1033.3438,110.4531 L1035.8125,110.4531 L1035.8125,112.6094 L1028.4219,112.6094 L1028.4219,110.4531 L1030.8906,110.4531 L1030.8906,102.375 L1028.4219,102.375 Z " fill="#000000"/><text fill="#000000" font-family="Verdana" font-size="14" font-style="italic" lengthAdjust="spacing" textLength="96.667" x="1044.5" y="111.4561">JpaRepository</text><line style="stroke:#000000;stroke-width:1;" x1="1020.5" x2="1143.167" y1="120.6094" y2="120.6094"/><line style="stroke:#000000;stroke-width:1;" x1="1020.5" x2="1143.167" y1="128.6094" y2="128.6094"/></g><!--class JpaSpecificationExecutor--><g class="entity" data-entity="JpaSpecificationExecutor" data-source-line="8" data-uid="ent0004" id="entity_JpaSpecificationExecutor"><rect fill="#FFFFFF" height="44" rx="2.5" ry="2.5" style="stroke:#000000;stroke-width:1;" width="201.6055" x="105" y="92.6094"/><ellipse cx="118" cy="106.6094" fill="#FFFFFF" rx="9" ry="9" style="stroke:#000000;stroke-width:1;"/><path d="M113.9219,102.375 L113.9219,100.2188 L121.3125,100.2188 L121.3125,102.375 L118.8438,102.375 L118.8438,110.4531 L121.3125,110.4531 L121.3125,112.6094 L113.9219,112.6094 L113.9219,110.4531 L116.3906,110.4531 L116.3906,102.375 L113.9219,102.375 Z " fill="#000000"/><text fill="#000000" font-family="Verdana" font-size="14" font-style="italic" lengthAdjust="spacing" textLength="173.6055" x="130" y="111.4561">JpaSpecificationExecutor</text><line style="stroke:#000000;stroke-width:1;" x1="106" x2="305.6055" y1="120.6094" y2="120.6094"/><line style="stroke:#000000;stroke-width:1;" x1="106" x2="305.6055" y1="128.6094" y2="128.6094"/></g><!--class AreaPesquisaRepository--><g class="entity" data-entity="AreaPesquisaRepository" data-source-line="10" data-uid="ent0005" id="entity_AreaPesquisaRepository"><rect fill="#FFFFFF" height="56.2656" rx="2.5" ry="2.5" style="stroke:#000000;stroke-width:1;" width="197.4697" x="1961.5" y="197.6094"/><ellipse cx="1974.5" cy="217.7422" fill="#FFFFFF" rx="9" ry="9" style="stroke:#000000;stroke-width:1;"/><path d="M1970.4219,213.5078 L1970.4219,211.3516 L1977.8125,211.3516 L1977.8125,213.5078 L1975.3438,213.5078 L1975.3438,221.5859 L1977.8125,221.5859 L1977.8125,223.7422 L1970.4219,223.7422 L1970.4219,221.5859 L1972.8906,221.5859 L1972.8906,213.5078 L1970.4219,213.5078 Z " fill="#000000"/><text fill="#000000" font-family="Verdana" font-size="12" font-style="italic" lengthAdjust="spacing" textLength="79.1602" x="2031.6548" y="213.748">&#171;Repository&#187;</text><text fill="#000000" font-family="Verdana" font-size="14" font-style="italic" lengthAdjust="spacing" textLength="169.4697" x="1986.5" y="229.5732">AreaPesquisaRepository</text><line style="stroke:#000000;stroke-width:1;" x1="1962.5" x2="2157.9697" y1="237.875" y2="237.875"/><line style="stroke:#000000;stroke-width:1;" x1="1962.5" x2="2157.9697" y1="245.875" y2="245.875"/></g><!--class EventoRepository--><g class="entity" data-entity="EventoRepository" data-source-line="11" data-uid="ent0006" id="entity_EventoRepository"><rect fill="#FFFFFF" height="56.2656" rx="2.5" ry="2.5" style="stroke:#000000;stroke-width:1;" width="151.7441" x="229" y="197.6094"/><ellipse cx="242" cy="217.7422" fill="#FFFFFF" rx="9" ry="9" style="stroke:#000000;stroke-width:1;"/><path d="M237.9219,213.5078 L237.9219,211.3516 L245.3125,211.3516 L245.3125,213.5078 L242.8438,213.5078 L242.8438,221.5859 L245.3125,221.5859 L245.3125,223.7422 L237.9219,223.7422 L237.9219,221.5859 L240.3906,221.5859 L240.3906,213.5078 L237.9219,213.5078 Z " fill="#000000"/><text fill="#000000" font-family="Verdana" font-size="12" font-style="italic" lengthAdjust="spacing" textLength="79.1602" x="276.292" y="213.748">&#171;Repository&#187;</text><text fill="#000000" font-family="Verdana" font-size="14" font-style="italic" lengthAdjust="spacing" textLength="123.7441" x="254" y="229.5732">EventoRepository</text><line style="stroke:#000000;stroke-width:1;" x1="230" x2="379.7441" y1="237.875" y2="237.875"/><line style="stroke:#000000;stroke-width:1;" x1="230" x2="379.7441" y1="245.875" y2="245.875"/></g><!--class PeriodicoRepository--><g class="entity" data-entity="PeriodicoRepository" data-source-line="12" data-uid="ent0007" id="entity_PeriodicoRepository"><rect fill="#FFFFFF" height="56.2656" rx="2.5" ry="2.5" style="stroke:#000000;stroke-width:1;" width="167.3779" x="26.5" y="197.6094"/><ellipse cx="39.5" cy="217.7422" fill="#FFFFFF" rx="9" ry="9" style="stroke:#000000;stroke-width:1;"/><path d="M35.4219,213.5078 L35.4219,211.3516 L42.8125,211.3516 L42.8125,213.5078 L40.3438,213.5078 L40.3438,221.5859 L42.8125,221.5859 L42.8125,223.7422 L35.4219,223.7422 L35.4219,221.5859 L37.8906,221.5859 L37.8906,213.5078 L35.4219,213.5078 Z " fill="#000000"/><text fill="#000000" font-family="Verdana" font-size="12" font-style="italic" lengthAdjust="spacing" textLength="79.1602" x="81.6089" y="213.748">&#171;Repository&#187;</text><text fill="#000000" font-family="Verdana" font-size="14" font-style="italic" lengthAdjust="spacing" textLength="139.3779" x="51.5" y="229.5732">PeriodicoRepository</text><line style="stroke:#000000;stroke-width:1;" x1="27.5" x2="192.8779" y1="237.875" y2="237.875"/><line style="stroke:#000000;stroke-width:1;" x1="27.5" x2="192.8779" y1="245.875" y2="245.875"/></g><!--class UsuarioRepository--><g class="entity" data-entity="UsuarioRepository" data-source-line="13" data-uid="ent0008" id="entity_UsuarioRepository"><rect fill="#FFFFFF" height="56.2656" rx="2.5" ry="2.5" style="stroke:#000000;stroke-width:1;" width="156.2764" x="416" y="197.6094"/><ellipse cx="429" cy="217.7422" fill="#FFFFFF" rx="9" ry="9" style="stroke:#000000;stroke-width:1;"/><path d="M424.9219,213.5078 L424.9219,211.3516 L432.3125,211.3516 L432.3125,213.5078 L429.8438,213.5078 L429.8438,221.5859 L432.3125,221.5859 L432.3125,223.7422 L424.9219,223.7422 L424.9219,221.5859 L427.3906,221.5859 L427.3906,213.5078 L424.9219,213.5078 Z " fill="#000000"/><text fill="#000000" font-family="Verdana" font-size="12" font-style="italic" lengthAdjust="spacing" textLength="79.1602" x="465.5581" y="213.748">&#171;Repository&#187;</text><text fill="#000000" font-family="Verdana" font-size="14" font-style="italic" lengthAdjust="spacing" textLength="128.2764" x="441" y="229.5732">UsuarioRepository</text><line style="stroke:#000000;stroke-width:1;" x1="417" x2="571.2764" y1="237.875" y2="237.875"/><line style="stroke:#000000;stroke-width:1;" x1="417" x2="571.2764" y1="245.875" y2="245.875"/></g><!--class VeiculoPublicacaoRepository--><g class="entity" data-entity="VeiculoPublicacaoRepository" data-source-line="14" data-uid="ent0009" id="entity_VeiculoPublicacaoRepository"><rect fill="#FFFFFF" height="56.2656" rx="2.5" ry="2.5" style="stroke:#000000;stroke-width:1;" width="229.2773" x="607.5" y="197.6094"/><ellipse cx="620.5" cy="217.7422" fill="#FFFFFF" rx="9" ry="9" style="stroke:#000000;stroke-width:1;"/><path d="M616.4219,213.5078 L616.4219,211.3516 L623.8125,211.3516 L623.8125,213.5078 L621.3438,213.5078 L621.3438,221.5859 L623.8125,221.5859 L623.8125,223.7422 L616.4219,223.7422 L616.4219,221.5859 L618.8906,221.5859 L618.8906,213.5078 L616.4219,213.5078 Z " fill="#000000"/><text fill="#000000" font-family="Verdana" font-size="12" font-style="italic" lengthAdjust="spacing" textLength="79.1602" x="693.5586" y="213.748">&#171;Repository&#187;</text><text fill="#000000" font-family="Verdana" font-size="14" font-style="italic" lengthAdjust="spacing" textLength="201.2773" x="632.5" y="229.5732">VeiculoPublicacaoRepository</text><line style="stroke:#000000;stroke-width:1;" x1="608.5" x2="835.7773" y1="237.875" y2="237.875"/><line style="stroke:#000000;stroke-width:1;" x1="608.5" x2="835.7773" y1="245.875" y2="245.875"/></g><!--class ProgramaRepository--><g class="entity" data-entity="ProgramaRepository" data-source-line="15" data-uid="ent0010" id="entity_ProgramaRepository"><rect fill="#FFFFFF" height="56.2656" rx="2.5" ry="2.5" style="stroke:#000000;stroke-width:1;" width="171.2744" x="1107.5" y="197.6094"/><ellipse cx="1120.5" cy="217.7422" fill="#FFFFFF" rx="9" ry="9" style="stroke:#000000;stroke-width:1;"/><path d="M1116.4219,213.5078 L1116.4219,211.3516 L1123.8125,211.3516 L1123.8125,213.5078 L1121.3438,213.5078 L1121.3438,221.5859 L1123.8125,221.5859 L1123.8125,223.7422 L1116.4219,223.7422 L1116.4219,221.5859 L1118.8906,221.5859 L1118.8906,213.5078 L1116.4219,213.5078 Z " fill="#000000"/><text fill="#000000" font-family="Verdana" font-size="12" font-style="italic" lengthAdjust="spacing" textLength="79.1602" x="1164.5571" y="213.748">&#171;Repository&#187;</text><text fill="#000000" font-family="Verdana" font-size="14" font-style="italic" lengthAdjust="spacing" textLength="143.2744" x="1132.5" y="229.5732">ProgramaRepository</text><line style="stroke:#000000;stroke-width:1;" x1="1108.5" x2="1277.7744" y1="237.875" y2="237.875"/><line style="stroke:#000000;stroke-width:1;" x1="1108.5" x2="1277.7744" y1="245.875" y2="245.875"/></g><!--class LogRepository--><g class="entity" data-entity="LogRepository" data-source-line="16" data-uid="ent0011" id="entity_LogRepository"><rect fill="#FFFFFF" height="56.2656" rx="2.5" ry="2.5" style="stroke:#000000;stroke-width:1;" width="128.3242" x="1314" y="197.6094"/><ellipse cx="1327" cy="217.7422" fill="#FFFFFF" rx="9" ry="9" style="stroke:#000000;stroke-width:1;"/><path d="M1322.9219,213.5078 L1322.9219,211.3516 L1330.3125,211.3516 L1330.3125,213.5078 L1327.8438,213.5078 L1327.8438,221.5859 L1330.3125,221.5859 L1330.3125,223.7422 L1322.9219,223.7422 L1322.9219,221.5859 L1325.3906,221.5859 L1325.3906,213.5078 L1322.9219,213.5078 Z " fill="#000000"/><text fill="#000000" font-family="Verdana" font-size="12" font-style="italic" lengthAdjust="spacing" textLength="79.1602" x="1349.582" y="213.748">&#171;Repository&#187;</text><text fill="#000000" font-family="Verdana" font-size="14" font-style="italic" lengthAdjust="spacing" textLength="100.3242" x="1339" y="229.5732">LogRepository</text><line style="stroke:#000000;stroke-width:1;" x1="1315" x2="1441.3242" y1="237.875" y2="237.875"/><line style="stroke:#000000;stroke-width:1;" x1="1315" x2="1441.3242" y1="245.875" y2="245.875"/></g><!--class LogVeiculoRepository--><g class="entity" data-entity="LogVeiculoRepository" data-source-line="17" data-uid="ent0012" id="entity_LogVeiculoRepository"><rect fill="#FFFFFF" height="56.2656" rx="2.5" ry="2.5" style="stroke:#000000;stroke-width:1;" width="179.4297" x="1477.5" y="197.6094"/><ellipse cx="1490.5" cy="217.7422" fill="#FFFFFF" rx="9" ry="9" style="stroke:#000000;stroke-width:1;"/><path d="M1486.4219,213.5078 L1486.4219,211.3516 L1493.8125,211.3516 L1493.8125,213.5078 L1491.3438,213.5078 L1491.3438,221.5859 L1493.8125,221.5859 L1493.8125,223.7422 L1486.4219,223.7422 L1486.4219,221.5859 L1488.8906,221.5859 L1488.8906,213.5078 L1486.4219,213.5078 Z " fill="#000000"/><text fill="#000000" font-family="Verdana" font-size="12" font-style="italic" lengthAdjust="spacing" textLength="79.1602" x="1538.6348" y="213.748">&#171;Repository&#187;</text><text fill="#000000" font-family="Verdana" font-size="14" font-style="italic" lengthAdjust="spacing" textLength="151.4297" x="1502.5" y="229.5732">LogVeiculoRepository</text><line style="stroke:#000000;stroke-width:1;" x1="1478.5" x2="1655.9297" y1="237.875" y2="237.875"/><line style="stroke:#000000;stroke-width:1;" x1="1478.5" x2="1655.9297" y1="245.875" y2="245.875"/></g><!--class JustificativaRecusaRepository--><g class="entity" data-entity="JustificativaRecusaRepository" data-source-line="18" data-uid="ent0013" id="entity_JustificativaRecusaRepository"><rect fill="#FFFFFF" height="56.2656" rx="2.5" ry="2.5" style="stroke:#000000;stroke-width:1;" width="234.8691" x="1691.5" y="197.6094"/><ellipse cx="1704.5" cy="217.7422" fill="#FFFFFF" rx="9" ry="9" style="stroke:#000000;stroke-width:1;"/><path d="M1700.4219,213.5078 L1700.4219,211.3516 L1707.8125,211.3516 L1707.8125,213.5078 L1705.3438,213.5078 L1705.3438,221.5859 L1707.8125,221.5859 L1707.8125,223.7422 L1700.4219,223.7422 L1700.4219,221.5859 L1702.8906,221.5859 L1702.8906,213.5078 L1700.4219,213.5078 Z " fill="#000000"/><text fill="#000000" font-family="Verdana" font-size="12" font-style="italic" lengthAdjust="spacing" textLength="79.1602" x="1780.3545" y="213.748">&#171;Repository&#187;</text><text fill="#000000" font-family="Verdana" font-size="14" font-style="italic" lengthAdjust="spacing" textLength="206.8691" x="1716.5" y="229.5732">JustificativaRecusaRepository</text><line style="stroke:#000000;stroke-width:1;" x1="1692.5" x2="1925.3691" y1="237.875" y2="237.875"/><line style="stroke:#000000;stroke-width:1;" x1="1692.5" x2="1925.3691" y1="245.875" y2="245.875"/></g><!--class RefreshTokenRepository--><g class="entity" data-entity="RefreshTokenRepository" data-source-line="19" data-uid="ent0014" id="entity_RefreshTokenRepository"><rect fill="#FFFFFF" height="56.2656" rx="2.5" ry="2.5" style="stroke:#000000;stroke-width:1;" width="199.5889" x="872" y="197.6094"/><ellipse cx="885" cy="217.7422" fill="#FFFFFF" rx="9" ry="9" style="stroke:#000000;stroke-width:1;"/><path d="M880.9219,213.5078 L880.9219,211.3516 L888.3125,211.3516 L888.3125,213.5078 L885.8438,213.5078 L885.8438,221.5859 L888.3125,221.5859 L888.3125,223.7422 L880.9219,223.7422 L880.9219,221.5859 L883.3906,221.5859 L883.3906,213.5078 L880.9219,213.5078 Z " fill="#000000"/><text fill="#000000" font-family="Verdana" font-size="12" font-style="italic" lengthAdjust="spacing" textLength="79.1602" x="943.2144" y="213.748">&#171;Repository&#187;</text><text fill="#000000" font-family="Verdana" font-size="14" font-style="italic" lengthAdjust="spacing" textLength="171.5889" x="897" y="229.5732">RefreshTokenRepository</text><line style="stroke:#000000;stroke-width:1;" x1="873" x2="1070.5889" y1="237.875" y2="237.875"/><line style="stroke:#000000;stroke-width:1;" x1="873" x2="1070.5889" y1="245.875" y2="245.875"/></g><!--class AreaPesquisa--><g class="entity" data-entity="AreaPesquisa" data-source-line="23" data-uid="ent0016" id="entity_AreaPesquisa"><rect fill="#FFFFFF" height="56.2656" rx="2.5" ry="2.5" style="stroke:#000000;stroke-width:1;" width="122.3975" x="1720" y="368.6094"/><ellipse cx="1733" cy="388.7422" fill="#FFFFFF" rx="9" ry="9" style="stroke:#000000;stroke-width:1;"/><path d="M1735.9688,394.3828 Q1735.3906,394.6797 1734.75,394.8203 Q1734.1094,394.9766 1733.4063,394.9766 Q1730.9063,394.9766 1729.5781,393.3359 Q1728.2656,391.6797 1728.2656,388.5547 Q1728.2656,385.4297 1729.5781,383.7734 Q1730.9063,382.1172 1733.4063,382.1172 Q1734.1094,382.1172 1734.75,382.2734 Q1735.4063,382.4297 1735.9688,382.7266 L1735.9688,385.4453 Q1735.3438,384.8672 1734.75,384.6016 Q1734.1563,384.3203 1733.5313,384.3203 Q1732.1875,384.3203 1731.5,385.3984 Q1730.8125,386.4609 1730.8125,388.5547 Q1730.8125,390.6484 1731.5,391.7266 Q1732.1875,392.7891 1733.5313,392.7891 Q1734.1563,392.7891 1734.75,392.5234 Q1735.3438,392.2422 1735.9688,391.6641 L1735.9688,394.3828 Z " fill="#000000"/><text fill="#000000" font-family="Verdana" font-size="12" font-style="italic" lengthAdjust="spacing" textLength="49.8457" x="1767.2759" y="384.748">&#171;Entity&#187;</text><text fill="#000000" font-family="Verdana" font-size="14" lengthAdjust="spacing" textLength="94.3975" x="1745" y="400.5732">AreaPesquisa</text><line style="stroke:#000000;stroke-width:1;" x1="1721" x2="1841.3975" y1="408.875" y2="408.875"/><line style="stroke:#000000;stroke-width:1;" x1="1721" x2="1841.3975" y1="416.875" y2="416.875"/></g><!--class Evento--><g class="entity" data-entity="Evento" data-source-line="24" data-uid="ent0017" id="entity_Evento"><rect fill="#FFFFFF" height="56.2656" rx="2.5" ry="2.5" style="stroke:#000000;stroke-width:1;" width="76.6719" x="567.5" y="368.6094"/><ellipse cx="580.5" cy="388.7422" fill="#FFFFFF" rx="9" ry="9" style="stroke:#000000;stroke-width:1;"/><path d="M583.4688,394.3828 Q582.8906,394.6797 582.25,394.8203 Q581.6094,394.9766 580.9063,394.9766 Q578.4063,394.9766 577.0781,393.3359 Q575.7656,391.6797 575.7656,388.5547 Q575.7656,385.4297 577.0781,383.7734 Q578.4063,382.1172 580.9063,382.1172 Q581.6094,382.1172 582.25,382.2734 Q582.9063,382.4297 583.4688,382.7266 L583.4688,385.4453 Q582.8438,384.8672 582.25,384.6016 Q581.6563,384.3203 581.0313,384.3203 Q579.6875,384.3203 579,385.3984 Q578.3125,386.4609 578.3125,388.5547 Q578.3125,390.6484 579,391.7266 Q579.6875,392.7891 581.0313,392.7891 Q581.6563,392.7891 582.25,392.5234 Q582.8438,392.2422 583.4688,391.6641 L583.4688,394.3828 Z " fill="#000000"/><text fill="#000000" font-family="Verdana" font-size="12" font-style="italic" lengthAdjust="spacing" textLength="49.8457" x="591.9131" y="384.748">&#171;Entity&#187;</text><text fill="#000000" font-family="Verdana" font-size="14" lengthAdjust="spacing" textLength="48.6719" x="592.5" y="400.5732">Evento</text><line style="stroke:#000000;stroke-width:1;" x1="568.5" x2="643.1719" y1="408.875" y2="408.875"/><line style="stroke:#000000;stroke-width:1;" x1="568.5" x2="643.1719" y1="416.875" y2="416.875"/></g><!--class Periodico--><g class="entity" data-entity="Periodico" data-source-line="25" data-uid="ent0018" id="entity_Periodico"><rect fill="#FFFFFF" height="56.2656" rx="2.5" ry="2.5" style="stroke:#000000;stroke-width:1;" width="92.3057" x="440" y="368.6094"/><ellipse cx="453" cy="388.7422" fill="#FFFFFF" rx="9" ry="9" style="stroke:#000000;stroke-width:1;"/><path d="M455.9688,394.3828 Q455.3906,394.6797 454.75,394.8203 Q454.1094,394.9766 453.4063,394.9766 Q450.9063,394.9766 449.5781,393.3359 Q448.2656,391.6797 448.2656,388.5547 Q448.2656,385.4297 449.5781,383.7734 Q450.9063,382.1172 453.4063,382.1172 Q454.1094,382.1172 454.75,382.2734 Q455.4063,382.4297 455.9688,382.7266 L455.9688,385.4453 Q455.3438,384.8672 454.75,384.6016 Q454.1563,384.3203 453.5313,384.3203 Q452.1875,384.3203 451.5,385.3984 Q450.8125,386.4609 450.8125,388.5547 Q450.8125,390.6484 451.5,391.7266 Q452.1875,392.7891 453.5313,392.7891 Q454.1563,392.7891 454.75,392.5234 Q455.3438,392.2422 455.9688,391.6641 L455.9688,394.3828 Z " fill="#000000"/><text fill="#000000" font-family="Verdana" font-size="12" font-style="italic" lengthAdjust="spacing" textLength="49.8457" x="472.23" y="384.748">&#171;Entity&#187;</text><text fill="#000000" font-family="Verdana" font-size="14" lengthAdjust="spacing" textLength="64.3057" x="465" y="400.5732">Periodico</text><line style="stroke:#000000;stroke-width:1;" x1="441" x2="531.3057" y1="408.875" y2="408.875"/><line style="stroke:#000000;stroke-width:1;" x1="441" x2="531.3057" y1="416.875" y2="416.875"/></g><!--class Usuario--><g class="entity" data-entity="Usuario" data-source-line="26" data-uid="ent0019" id="entity_Usuario"><rect fill="#FFFFFF" height="56.2656" rx="2.5" ry="2.5" style="stroke:#000000;stroke-width:1;" width="81.2041" x="679.5" y="368.6094"/><ellipse cx="692.5" cy="388.7422" fill="#FFFFFF" rx="9" ry="9" style="stroke:#000000;stroke-width:1;"/><path d="M695.4688,394.3828 Q694.8906,394.6797 694.25,394.8203 Q693.6094,394.9766 692.9063,394.9766 Q690.4063,394.9766 689.0781,393.3359 Q687.7656,391.6797 687.7656,388.5547 Q687.7656,385.4297 689.0781,383.7734 Q690.4063,382.1172 692.9063,382.1172 Q693.6094,382.1172 694.25,382.2734 Q694.9063,382.4297 695.4688,382.7266 L695.4688,385.4453 Q694.8438,384.8672 694.25,384.6016 Q693.6563,384.3203 693.0313,384.3203 Q691.6875,384.3203 691,385.3984 Q690.3125,386.4609 690.3125,388.5547 Q690.3125,390.6484 691,391.7266 Q691.6875,392.7891 693.0313,392.7891 Q693.6563,392.7891 694.25,392.5234 Q694.8438,392.2422 695.4688,391.6641 L695.4688,394.3828 Z " fill="#000000"/><text fill="#000000" font-family="Verdana" font-size="12" font-style="italic" lengthAdjust="spacing" textLength="49.8457" x="706.1792" y="384.748">&#171;Entity&#187;</text><text fill="#000000" font-family="Verdana" font-size="14" lengthAdjust="spacing" textLength="53.2041" x="704.5" y="400.5732">Usuario</text><line style="stroke:#000000;stroke-width:1;" x1="680.5" x2="759.7041" y1="408.875" y2="408.875"/><line style="stroke:#000000;stroke-width:1;" x1="680.5" x2="759.7041" y1="416.875" y2="416.875"/></g><!--class VeiculoPublicacao--><g class="entity" data-entity="VeiculoPublicacao" data-source-line="27" data-uid="ent0020" id="entity_VeiculoPublicacao"><rect fill="#FFFFFF" height="56.2656" rx="2.5" ry="2.5" style="stroke:#000000;stroke-width:1;" width="154.2051" x="796" y="368.6094"/><ellipse cx="809" cy="388.7422" fill="#FFFFFF" rx="9" ry="9" style="stroke:#000000;stroke-width:1;"/><path d="M811.9688,394.3828 Q811.3906,394.6797 810.75,394.8203 Q810.1094,394.9766 809.4063,394.9766 Q806.9063,394.9766 805.5781,393.3359 Q804.2656,391.6797 804.2656,388.5547 Q804.2656,385.4297 805.5781,383.7734 Q806.9063,382.1172 809.4063,382.1172 Q810.1094,382.1172 810.75,382.2734 Q811.4063,382.4297 811.9688,382.7266 L811.9688,385.4453 Q811.3438,384.8672 810.75,384.6016 Q810.1563,384.3203 809.5313,384.3203 Q808.1875,384.3203 807.5,385.3984 Q806.8125,386.4609 806.8125,388.5547 Q806.8125,390.6484 807.5,391.7266 Q808.1875,392.7891 809.5313,392.7891 Q810.1563,392.7891 810.75,392.5234 Q811.3438,392.2422 811.9688,391.6641 L811.9688,394.3828 Z " fill="#000000"/><text fill="#000000" font-family="Verdana" font-size="12" font-style="italic" lengthAdjust="spacing" textLength="49.8457" x="859.1797" y="384.748">&#171;Entity&#187;</text><text fill="#000000" font-family="Verdana" font-size="14" lengthAdjust="spacing" textLength="126.2051" x="821" y="400.5732">VeiculoPublicacao</text><line style="stroke:#000000;stroke-width:1;" x1="797" x2="949.2051" y1="408.875" y2="408.875"/><line style="stroke:#000000;stroke-width:1;" x1="797" x2="949.2051" y1="416.875" y2="416.875"/></g><!--class Programa--><g class="entity" data-entity="Programa" data-source-line="28" data-uid="ent0021" id="entity_Programa"><rect fill="#FFFFFF" height="56.2656" rx="2.5" ry="2.5" style="stroke:#000000;stroke-width:1;" width="96.2021" x="1146" y="368.6094"/><ellipse cx="1159" cy="388.7422" fill="#FFFFFF" rx="9" ry="9" style="stroke:#000000;stroke-width:1;"/><path d="M1161.9688,394.3828 Q1161.3906,394.6797 1160.75,394.8203 Q1160.1094,394.9766 1159.4063,394.9766 Q1156.9063,394.9766 1155.5781,393.3359 Q1154.2656,391.6797 1154.2656,388.5547 Q1154.2656,385.4297 1155.5781,383.7734 Q1156.9063,382.1172 1159.4063,382.1172 Q1160.1094,382.1172 1160.75,382.2734 Q1161.4063,382.4297 1161.9688,382.7266 L1161.9688,385.4453 Q1161.3438,384.8672 1160.75,384.6016 Q1160.1563,384.3203 1159.5313,384.3203 Q1158.1875,384.3203 1157.5,385.3984 Q1156.8125,386.4609 1156.8125,388.5547 Q1156.8125,390.6484 1157.5,391.7266 Q1158.1875,392.7891 1159.5313,392.7891 Q1160.1563,392.7891 1160.75,392.5234 Q1161.3438,392.2422 1161.9688,391.6641 L1161.9688,394.3828 Z " fill="#000000"/><text fill="#000000" font-family="Verdana" font-size="12" font-style="italic" lengthAdjust="spacing" textLength="49.8457" x="1180.1782" y="384.748">&#171;Entity&#187;</text><text fill="#000000" font-family="Verdana" font-size="14" lengthAdjust="spacing" textLength="68.2021" x="1171" y="400.5732">Programa</text><line style="stroke:#000000;stroke-width:1;" x1="1147" x2="1241.2021" y1="408.875" y2="408.875"/><line style="stroke:#000000;stroke-width:1;" x1="1147" x2="1241.2021" y1="416.875" y2="416.875"/></g><!--class Log--><g class="entity" data-entity="Log" data-source-line="29" data-uid="ent0022" id="entity_Log"><rect fill="#FFFFFF" height="56.2656" rx="2.5" ry="2.5" style="stroke:#000000;stroke-width:1;" width="73.8457" x="1277" y="368.6094"/><ellipse cx="1290" cy="388.7422" fill="#FFFFFF" rx="9" ry="9" style="stroke:#000000;stroke-width:1;"/><path d="M1292.9688,394.3828 Q1292.3906,394.6797 1291.75,394.8203 Q1291.1094,394.9766 1290.4063,394.9766 Q1287.9063,394.9766 1286.5781,393.3359 Q1285.2656,391.6797 1285.2656,388.5547 Q1285.2656,385.4297 1286.5781,383.7734 Q1287.9063,382.1172 1290.4063,382.1172 Q1291.1094,382.1172 1291.75,382.2734 Q1292.4063,382.4297 1292.9688,382.7266 L1292.9688,385.4453 Q1292.3438,384.8672 1291.75,384.6016 Q1291.1563,384.3203 1290.5313,384.3203 Q1289.1875,384.3203 1288.5,385.3984 Q1287.8125,386.4609 1287.8125,388.5547 Q1287.8125,390.6484 1288.5,391.7266 Q1289.1875,392.7891 1290.5313,392.7891 Q1291.1563,392.7891 1291.75,392.5234 Q1292.3438,392.2422 1292.9688,391.6641 L1292.9688,394.3828 Z " fill="#000000"/><text fill="#000000" font-family="Verdana" font-size="12" font-style="italic" lengthAdjust="spacing" textLength="49.8457" x="1300" y="384.748">&#171;Entity&#187;</text><text fill="#000000" font-family="Verdana" font-size="14" lengthAdjust="spacing" textLength="25.252" x="1312.2969" y="400.5732">Log</text><line style="stroke:#000000;stroke-width:1;" x1="1278" x2="1349.8457" y1="408.875" y2="408.875"/><line style="stroke:#000000;stroke-width:1;" x1="1278" x2="1349.8457" y1="416.875" y2="416.875"/></g><!--class LogVeiculo--><g class="entity" data-entity="LogVeiculo" data-source-line="30" data-uid="ent0023" id="entity_LogVeiculo"><rect fill="#FFFFFF" height="56.2656" rx="2.5" ry="2.5" style="stroke:#000000;stroke-width:1;" width="104.3574" x="1386" y="368.6094"/><ellipse cx="1399" cy="388.7422" fill="#FFFFFF" rx="9" ry="9" style="stroke:#000000;stroke-width:1;"/><path d="M1401.9688,394.3828 Q1401.3906,394.6797 1400.75,394.8203 Q1400.1094,394.9766 1399.4063,394.9766 Q1396.9063,394.9766 1395.5781,393.3359 Q1394.2656,391.6797 1394.2656,388.5547 Q1394.2656,385.4297 1395.5781,383.7734 Q1396.9063,382.1172 1399.4063,382.1172 Q1400.1094,382.1172 1400.75,382.2734 Q1401.4063,382.4297 1401.9688,382.7266 L1401.9688,385.4453 Q1401.3438,384.8672 1400.75,384.6016 Q1400.1563,384.3203 1399.5313,384.3203 Q1398.1875,384.3203 1397.5,385.3984 Q1396.8125,386.4609 1396.8125,388.5547 Q1396.8125,390.6484 1397.5,391.7266 Q1398.1875,392.7891 1399.5313,392.7891 Q1400.1563,392.7891 1400.75,392.5234 Q1401.3438,392.2422 1401.9688,391.6641 L1401.9688,394.3828 Z " fill="#000000"/><text fill="#000000" font-family="Verdana" font-size="12" font-style="italic" lengthAdjust="spacing" textLength="49.8457" x="1424.2559" y="384.748">&#171;Entity&#187;</text><text fill="#000000" font-family="Verdana" font-size="14" lengthAdjust="spacing" textLength="76.3574" x="1411" y="400.5732">LogVeiculo</text><line style="stroke:#000000;stroke-width:1;" x1="1387" x2="1489.3574" y1="408.875" y2="408.875"/><line style="stroke:#000000;stroke-width:1;" x1="1387" x2="1489.3574" y1="416.875" y2="416.875"/></g><!--class JustificativaRecusa--><g class="entity" data-entity="JustificativaRecusa" data-source-line="31" data-uid="ent0024" id="entity_JustificativaRecusa"><rect fill="#FFFFFF" height="56.2656" rx="2.5" ry="2.5" style="stroke:#000000;stroke-width:1;" width="159.7969" x="1525" y="368.6094"/><ellipse cx="1538" cy="388.7422" fill="#FFFFFF" rx="9" ry="9" style="stroke:#000000;stroke-width:1;"/><path d="M1540.9688,394.3828 Q1540.3906,394.6797 1539.75,394.8203 Q1539.1094,394.9766 1538.4063,394.9766 Q1535.9063,394.9766 1534.5781,393.3359 Q1533.2656,391.6797 1533.2656,388.5547 Q1533.2656,385.4297 1534.5781,383.7734 Q1535.9063,382.1172 1538.4063,382.1172 Q1539.1094,382.1172 1539.75,382.2734 Q1540.4063,382.4297 1540.9688,382.7266 L1540.9688,385.4453 Q1540.3438,384.8672 1539.75,384.6016 Q1539.1563,384.3203 1538.5313,384.3203 Q1537.1875,384.3203 1536.5,385.3984 Q1535.8125,386.4609 1535.8125,388.5547 Q1535.8125,390.6484 1536.5,391.7266 Q1537.1875,392.7891 1538.5313,392.7891 Q1539.1563,392.7891 1539.75,392.5234 Q1540.3438,392.2422 1540.9688,391.6641 L1540.9688,394.3828 Z " fill="#000000"/><text fill="#000000" font-family="Verdana" font-size="12" font-style="italic" lengthAdjust="spacing" textLength="49.8457" x="1590.9756" y="384.748">&#171;Entity&#187;</text><text fill="#000000" font-family="Verdana" font-size="14" lengthAdjust="spacing" textLength="131.7969" x="1550" y="400.5732">JustificativaRecusa</text><line style="stroke:#000000;stroke-width:1;" x1="1526" x2="1683.7969" y1="408.875" y2="408.875"/><line style="stroke:#000000;stroke-width:1;" x1="1526" x2="1683.7969" y1="416.875" y2="416.875"/></g><!--class RefreshToken--><g class="entity" data-entity="RefreshToken" data-source-line="32" data-uid="ent0025" id="entity_RefreshToken"><rect fill="#FFFFFF" height="56.2656" rx="2.5" ry="2.5" style="stroke:#000000;stroke-width:1;" width="124.5166" x="985.5" y="368.6094"/><ellipse cx="998.5" cy="388.7422" fill="#FFFFFF" rx="9" ry="9" style="stroke:#000000;stroke-width:1;"/><path d="M1001.4688,394.3828 Q1000.8906,394.6797 1000.25,394.8203 Q999.6094,394.9766 998.9063,394.9766 Q996.4063,394.9766 995.0781,393.3359 Q993.7656,391.6797 993.7656,388.5547 Q993.7656,385.4297 995.0781,383.7734 Q996.4063,382.1172 998.9063,382.1172 Q999.6094,382.1172 1000.25,382.2734 Q1000.9063,382.4297 1001.4688,382.7266 L1001.4688,385.4453 Q1000.8438,384.8672 1000.25,384.6016 Q999.6563,384.3203 999.0313,384.3203 Q997.6875,384.3203 997,385.3984 Q996.3125,386.4609 996.3125,388.5547 Q996.3125,390.6484 997,391.7266 Q997.6875,392.7891 999.0313,392.7891 Q999.6563,392.7891 1000.25,392.5234 Q1000.8438,392.2422 1001.4688,391.6641 L1001.4688,394.3828 Z " fill="#000000"/><text fill="#000000" font-family="Verdana" font-size="12" font-style="italic" lengthAdjust="spacing" textLength="49.8457" x="1033.8354" y="384.748">&#171;Entity&#187;</text><text fill="#000000" font-family="Verdana" font-size="14" lengthAdjust="spacing" textLength="96.5166" x="1010.5" y="400.5732">RefreshToken</text><line style="stroke:#000000;stroke-width:1;" x1="986.5" x2="1109.0166" y1="408.875" y2="408.875"/><line style="stroke:#000000;stroke-width:1;" x1="986.5" x2="1109.0166" y1="416.875" y2="416.875"/></g><!--reverse link JpaRepository to AreaPesquisaRepository--><g class="link" data-entity-1="JpaRepository" data-entity-2="AreaPesquisaRepository" data-source-line="37" data-uid="lnk26" id="link_JpaRepository_AreaPesquisaRepository"><path codeLine="37" d="M1162.5442,119.6424 C1305.1342,127.2824 1646.9,149.1294 1944,197.6094 C1949.71,198.5394 1955.57,199.5894 1961.46,200.7294" fill="none" id="JpaRepository-backto-AreaPesquisaRepository" style="stroke:#000000;stroke-width:1;stroke-dasharray:7.0,7.0;"/><polygon fill="none" points="1144.57,118.6794,1162.2232,125.6338,1162.8652,113.651,1144.57,118.6794" style="stroke:#000000;stroke-width:1;"/></g><!--reverse link JpaRepository to ProgramaRepository--><g class="link" data-entity-1="JpaRepository" data-entity-2="ProgramaRepository" data-source-line="38" data-uid="lnk27" id="link_JpaRepository_ProgramaRepository"><path codeLine="38" d="M1116.2439,149.2403 C1133.8839,166.5603 1146.18,178.6394 1165.35,197.4594" fill="none" id="JpaRepository-backto-ProgramaRepository" style="stroke:#000000;stroke-width:1;stroke-dasharray:7.0,7.0;"/><polygon fill="none" points="1103.4,136.6294,1112.0403,153.5216,1120.4475,144.959,1103.4,136.6294" style="stroke:#000000;stroke-width:1;"/></g><!--reverse link JpaRepository to UsuarioRepository--><g class="link" data-entity-1="JpaRepository" data-entity-2="UsuarioRepository" data-source-line="39" data-uid="lnk28" id="link_JpaRepository_UsuarioRepository"><path codeLine="39" d="M1001.615,126.2413 C907.745,139.0413 742.97,163.4594 590,197.6094 C584.17,198.9094 578.17,200.3494 572.15,201.8694" fill="none" id="JpaRepository-backto-UsuarioRepository" style="stroke:#000000;stroke-width:1;stroke-dasharray:7.0,7.0;"/><polygon fill="none" points="1019.45,123.8094,1000.8044,120.2963,1002.4257,132.1863,1019.45,123.8094" style="stroke:#000000;stroke-width:1;"/></g><!--reverse link JpaRepository to VeiculoPublicacaoRepository--><g class="link" data-entity-1="JpaRepository" data-entity-2="VeiculoPublicacaoRepository" data-source-line="40" data-uid="lnk29" id="link_JpaRepository_VeiculoPublicacaoRepository"><path codeLine="40" d="M1002.0621,139.8148 C944.5521,157.2248 875.97,177.9894 811.3,197.5694" fill="none" id="JpaRepository-backto-VeiculoPublicacaoRepository" style="stroke:#000000;stroke-width:1;stroke-dasharray:7.0,7.0;"/><polygon fill="none" points="1019.29,134.5994,1000.3237,134.0721,1003.8006,145.5574,1019.29,134.5994" style="stroke:#000000;stroke-width:1;"/></g><!--reverse link JpaRepository to LogRepository--><g class="link" data-entity-1="JpaRepository" data-entity-2="LogRepository" data-source-line="41" data-uid="lnk30" id="link_JpaRepository_LogRepository"><path codeLine="41" d="M1155.9616,142.8482 C1206.0216,161.2782 1261.86,181.8394 1313.91,201.0094" fill="none" id="JpaRepository-backto-LogRepository" style="stroke:#000000;stroke-width:1;stroke-dasharray:7.0,7.0;"/><polygon fill="none" points="1139.07,136.6294,1153.8887,148.4787,1158.0345,137.2176,1139.07,136.6294" style="stroke:#000000;stroke-width:1;"/></g><!--reverse link JpaRepository to LogVeiculoRepository--><g class="link" data-entity-1="JpaRepository" data-entity-2="LogVeiculoRepository" data-source-line="42" data-uid="lnk31" id="link_JpaRepository_LogVeiculoRepository"><path codeLine="42" d="M1162.302,132.2088 C1237.412,147.8488 1349.35,171.6594 1460,197.6094 C1465.69,198.9394 1471.54,200.3394 1477.44,201.7694" fill="none" id="JpaRepository-backto-LogVeiculoRepository" style="stroke:#000000;stroke-width:1;stroke-dasharray:7.0,7.0;"/><polygon fill="none" points="1144.68,128.5394,1161.0789,138.0828,1163.5252,126.3348,1144.68,128.5394" style="stroke:#000000;stroke-width:1;"/></g><!--reverse link JpaRepository to JustificativaRecusaRepository--><g class="link" data-entity-1="JpaRepository" data-entity-2="JustificativaRecusaRepository" data-source-line="43" data-uid="lnk32" id="link_JpaRepository_JustificativaRecusaRepository"><path codeLine="43" d="M1162.7092,125.2254 C1271.0292,138.3554 1481.92,165.1294 1674,197.6094 C1679.66,198.5694 1685.44,199.5794 1691.27,200.6294" fill="none" id="JpaRepository-backto-JustificativaRecusaRepository" style="stroke:#000000;stroke-width:1;stroke-dasharray:7.0,7.0;"/><polygon fill="none" points="1144.84,123.0594,1161.9872,131.1818,1163.4312,119.269,1144.84,123.0594" style="stroke:#000000;stroke-width:1;"/></g><!--reverse link JpaRepository to RefreshTokenRepository--><g class="link" data-entity-1="JpaRepository" data-entity-2="RefreshTokenRepository" data-source-line="44" data-uid="lnk33" id="link_JpaRepository_RefreshTokenRepository"><path codeLine="44" d="M1048.0037,149.2986 C1030.5237,166.6186 1018.39,178.6394 999.4,197.4594" fill="none" id="JpaRepository-backto-RefreshTokenRepository" style="stroke:#000000;stroke-width:1;stroke-dasharray:7.0,7.0;"/><polygon fill="none" points="1060.79,136.6294,1043.7806,145.0365,1052.2268,153.5607,1060.79,136.6294" style="stroke:#000000;stroke-width:1;"/></g><!--reverse link JpaRepository to EventoRepository--><g class="link" data-entity-1="JpaRepository" data-entity-2="EventoRepository" data-source-line="45" data-uid="lnk34" id="link_JpaRepository_EventoRepository"><path codeLine="45" d="M1001.2556,120.9701 C880.1356,129.6101 624.18,151.5394 398,197.6094 C392.48,198.7294 386.81,200.0294 381.13,201.4194" fill="none" id="JpaRepository-backto-EventoRepository" style="stroke:#000000;stroke-width:1;stroke-dasharray:7.0,7.0;"/><polygon fill="none" points="1019.21,119.6894,1000.8287,114.9853,1001.6825,126.9549,1019.21,119.6894" style="stroke:#000000;stroke-width:1;"/></g><!--reverse link JpaRepository to PeriodicoRepository--><g class="link" data-entity-1="JpaRepository" data-entity-2="PeriodicoRepository" data-source-line="46" data-uid="lnk35" id="link_JpaRepository_PeriodicoRepository"><path codeLine="46" d="M1001.486,118.6674 C857.716,124.7274 510.93,143.7894 211,197.6094 C205.28,198.6394 199.42,199.8294 193.53,201.1294" fill="none" id="JpaRepository-backto-PeriodicoRepository" style="stroke:#000000;stroke-width:1;stroke-dasharray:7.0,7.0;"/><polygon fill="none" points="1019.47,117.9094,1001.2333,112.6727,1001.7386,124.6621,1019.47,117.9094" style="stroke:#000000;stroke-width:1;"/></g><!--reverse link JpaSpecificationExecutor to EventoRepository--><g class="link" data-entity-1="JpaSpecificationExecutor" data-entity-2="EventoRepository" data-source-line="47" data-uid="lnk36" id="link_JpaSpecificationExecutor_EventoRepository"><path codeLine="47" d="M237.1916,149.9542 C252.9216,167.2742 263.25,178.6394 280.34,197.4594" fill="none" id="JpaSpecificationExecutor-backto-EventoRepository" style="stroke:#000000;stroke-width:1;stroke-dasharray:7.0,7.0;"/><polygon fill="none" points="225.09,136.6294,232.75,153.9881,241.6332,145.9203,225.09,136.6294" style="stroke:#000000;stroke-width:1;"/></g><!--reverse link JpaSpecificationExecutor to PeriodicoRepository--><g class="link" data-entity-1="JpaSpecificationExecutor" data-entity-2="PeriodicoRepository" data-source-line="48" data-uid="lnk37" id="link_JpaSpecificationExecutor_PeriodicoRepository"><path codeLine="48" d="M175.5906,150.1351 C160.3306,167.4551 150.49,178.6394 133.92,197.4594" fill="none" id="JpaSpecificationExecutor-backto-PeriodicoRepository" style="stroke:#000000;stroke-width:1;stroke-dasharray:7.0,7.0;"/><polygon fill="none" points="187.49,136.6294,171.0887,146.1686,180.0925,154.1016,187.49,136.6294" style="stroke:#000000;stroke-width:1;"/></g><!--link AreaPesquisaRepository to AreaPesquisa--><g class="link" data-entity-1="AreaPesquisaRepository" data-entity-2="AreaPesquisa" data-source-line="52" data-uid="lnk38" id="link_AreaPesquisaRepository_AreaPesquisa"><path codeLine="52" d="M2015.17,253.7594 C1963.11,285.2994 1882.8624,333.9115 1830.8424,365.4115" fill="none" id="AreaPesquisaRepository-to-AreaPesquisa" style="stroke:#000000;stroke-width:1;stroke-dasharray:7.0,7.0;"/><polygon fill="#000000" points="1825.71,368.5194,1835.4805,367.2792,1829.987,365.9295,1831.3367,360.436,1825.71,368.5194" style="stroke:#000000;stroke-width:1;"/><text fill="#000000" font-family="Verdana" font-size="13" lengthAdjust="spacing" textLength="59.8584" x="1962" y="298.6763">manages</text></g><!--link EventoRepository to Evento--><g class="link" data-entity-1="EventoRepository" data-entity-2="Evento" data-source-line="53" data-uid="lnk39" id="link_EventoRepository_Evento"><path codeLine="53" d="M348.24,253.6794 C363.51,262.3194 381.1,271.2794 398,277.6094 C462.33,301.7094 492.21,271.9594 549,310.6094 C569.86,324.8094 582.4459,344.0333 591.9059,363.1233" fill="none" id="EventoRepository-to-Evento" style="stroke:#000000;stroke-width:1;stroke-dasharray:7.0,7.0;"/><polygon fill="#000000" points="594.57,368.4994,594.1579,358.6591,592.3499,364.0193,586.9898,362.2113,594.57,368.4994" style="stroke:#000000;stroke-width:1;"/><text fill="#000000" font-family="Verdana" font-size="13" lengthAdjust="spacing" textLength="59.8584" x="537" y="298.6763">manages</text></g><!--link PeriodicoRepository to Periodico--><g class="link" data-entity-1="PeriodicoRepository" data-entity-2="Periodico" data-source-line="54" data-uid="lnk40" id="link_PeriodicoRepository_Periodico"><path codeLine="54" d="M162.12,253.6994 C177.74,261.6094 194.98,270.1394 211,277.6094 C290.57,314.7294 379.3808,351.9777 434.3208,374.5677" fill="none" id="PeriodicoRepository-to-Periodico" style="stroke:#000000;stroke-width:1;stroke-dasharray:7.0,7.0;"/><polygon fill="#000000" points="439.87,376.8494,433.0673,369.7273,435.2457,374.948,430.025,377.1263,439.87,376.8494" style="stroke:#000000;stroke-width:1;"/><text fill="#000000" font-family="Verdana" font-size="13" lengthAdjust="spacing" textLength="59.8584" x="265" y="298.6763">manages</text></g><!--link UsuarioRepository to Usuario--><g class="link" data-entity-1="UsuarioRepository" data-entity-2="Usuario" data-source-line="55" data-uid="lnk41" id="link_UsuarioRepository_Usuario"><path codeLine="55" d="M543.54,253.6394 C558.39,261.5494 574.77,270.0794 590,277.6094 C621.56,293.2094 635.1,287.9094 662,310.6094 C680.84,326.5094 693.2959,344.7301 703.4759,362.9701" fill="none" id="UsuarioRepository-to-Usuario" style="stroke:#000000;stroke-width:1;stroke-dasharray:7.0,7.0;"/><polygon fill="#000000" points="706.4,368.2094,705.5067,358.4011,703.9633,363.8433,698.521,362.2999,706.4,368.2094" style="stroke:#000000;stroke-width:1;"/><text fill="#000000" font-family="Verdana" font-size="13" lengthAdjust="spacing" textLength="59.8584" x="652" y="298.6763">manages</text></g><!--link VeiculoPublicacaoRepository to VeiculoPublicacao--><g class="link" data-entity-1="VeiculoPublicacaoRepository" data-entity-2="VeiculoPublicacao" data-source-line="56" data-uid="lnk42" id="link_VeiculoPublicacaoRepository_VeiculoPublicacao"><path codeLine="56" d="M746.26,253.7594 C774.44,285.2994 816.6519,332.5455 844.8019,364.0455" fill="none" id="VeiculoPublicacaoRepository-to-VeiculoPublicacao" style="stroke:#000000;stroke-width:1;stroke-dasharray:7.0,7.0;"/><polygon fill="#000000" points="848.8,368.5194,845.7855,359.1432,845.4683,364.7912,839.8203,364.474,848.8,368.5194" style="stroke:#000000;stroke-width:1;"/><text fill="#000000" font-family="Verdana" font-size="13" lengthAdjust="spacing" textLength="59.8584" x="789" y="298.6763">manages</text></g><!--link ProgramaRepository to Programa--><g class="link" data-entity-1="ProgramaRepository" data-entity-2="Programa" data-source-line="57" data-uid="lnk43" id="link_ProgramaRepository_Programa"><path codeLine="57" d="M1193.16,253.7594 C1193.35,285.2994 1193.6138,331.0195 1193.8038,362.5195" fill="none" id="ProgramaRepository-to-Programa" style="stroke:#000000;stroke-width:1;stroke-dasharray:7.0,7.0;"/><polygon fill="#000000" points="1193.84,368.5194,1197.7856,359.4954,1193.8098,363.5195,1189.7858,359.5437,1193.84,368.5194" style="stroke:#000000;stroke-width:1;"/><text fill="#000000" font-family="Verdana" font-size="13" lengthAdjust="spacing" textLength="59.8584" x="1194" y="298.6763">manages</text></g><!--link LogRepository to Log--><g class="link" data-entity-1="LogRepository" data-entity-2="Log" data-source-line="58" data-uid="lnk44" id="link_LogRepository_Log"><path codeLine="58" d="M1367.72,253.7594 C1355.77,285.2994 1338.3151,331.4083 1326.3851,362.9083" fill="none" id="LogRepository-to-Log" style="stroke:#000000;stroke-width:1;stroke-dasharray:7.0,7.0;"/><polygon fill="#000000" points="1324.26,368.5194,1331.1883,361.5195,1326.0309,363.8435,1323.7069,358.6861,1324.26,368.5194" style="stroke:#000000;stroke-width:1;"/><text fill="#000000" font-family="Verdana" font-size="13" lengthAdjust="spacing" textLength="59.8584" x="1356" y="298.6763">manages</text></g><!--link LogVeiculoRepository to LogVeiculo--><g class="link" data-entity-1="LogVeiculoRepository" data-entity-2="LogVeiculo" data-source-line="59" data-uid="lnk45" id="link_LogVeiculoRepository_LogVeiculo"><path codeLine="59" d="M1546.27,253.7594 C1522.2,285.2994 1486.372,332.2512 1462.312,363.7512" fill="none" id="LogVeiculoRepository-to-LogVeiculo" style="stroke:#000000;stroke-width:1;stroke-dasharray:7.0,7.0;"/><polygon fill="#000000" points="1458.67,368.5194,1467.3118,363.7951,1461.705,364.5459,1460.9542,358.9391,1458.67,368.5194" style="stroke:#000000;stroke-width:1;"/><text fill="#000000" font-family="Verdana" font-size="13" lengthAdjust="spacing" textLength="59.8584" x="1522" y="298.6763">manages</text></g><!--link JustificativaRecusaRepository to JustificativaRecusa--><g class="link" data-entity-1="JustificativaRecusaRepository" data-entity-2="JustificativaRecusa" data-source-line="60" data-uid="lnk46" id="link_JustificativaRecusaRepository_JustificativaRecusa"><path codeLine="60" d="M1773.84,253.8394 C1753.05,270.0994 1726.32,291.2794 1703,310.6094 C1680.12,329.5894 1659.2853,347.6267 1640.1053,364.4967" fill="none" id="JustificativaRecusaRepository-to-JustificativaRecusa" style="stroke:#000000;stroke-width:1;stroke-dasharray:7.0,7.0;"/><polygon fill="#000000" points="1635.6,368.4594,1644.9997,365.5189,1639.3544,365.1572,1639.7161,359.5119,1635.6,368.4594" style="stroke:#000000;stroke-width:1;"/><text fill="#000000" font-family="Verdana" font-size="13" lengthAdjust="spacing" textLength="59.8584" x="1732" y="298.6763">manages</text></g><!--link RefreshTokenRepository to RefreshToken--><g class="link" data-entity-1="RefreshTokenRepository" data-entity-2="RefreshToken" data-source-line="61" data-uid="lnk47" id="link_RefreshTokenRepository_RefreshToken"><path codeLine="61" d="M984.21,253.7594 C998.39,285.2994 1019.1885,331.5475 1033.3585,363.0475" fill="none" id="RefreshTokenRepository-to-RefreshToken" style="stroke:#000000;stroke-width:1;stroke-dasharray:7.0,7.0;"/><polygon fill="#000000" points="1035.82,368.5194,1035.7757,358.6706,1033.7688,363.9595,1028.4799,361.9526,1035.82,368.5194" style="stroke:#000000;stroke-width:1;"/><text fill="#000000" font-family="Verdana" font-size="13" lengthAdjust="spacing" textLength="59.8584" x="1006" y="298.6763">manages</text></g><!--link VeiculoPublicacaoRepository to Usuario--><g class="link" data-entity-1="VeiculoPublicacaoRepository" data-entity-2="Usuario" data-source-line="64" data-uid="lnk48" id="link_VeiculoPublicacaoRepository_Usuario"><path codeLine="64" d="M721.68,253.7594 C721.31,285.2994 720.7605,331.0198 720.3905,362.5198" fill="none" id="VeiculoPublicacaoRepository-to-Usuario" style="stroke:#000000;stroke-width:1;stroke-dasharray:7.0,7.0;"/><polygon fill="#000000" points="720.32,368.5194,724.4254,359.567,720.3787,363.5197,716.426,359.473,720.32,368.5194" style="stroke:#000000;stroke-width:1;"/></g><!--link RefreshTokenRepository to Usuario--><g class="link" data-entity-1="RefreshTokenRepository" data-entity-2="Usuario" data-source-line="65" data-uid="lnk49" id="link_RefreshTokenRepository_Usuario"><path codeLine="65" d="M916.57,253.7194 C897.15,262.3694 874.95,271.3194 854,277.6094 C834.55,283.4594 827.42,277.0394 809,285.6094 C793.26,292.9294 790.72,297.8094 779,310.6094 C762.62,328.4994 750.3122,346.0753 739.3122,363.5053" fill="none" id="RefreshTokenRepository-to-Usuario" style="stroke:#000000;stroke-width:1;stroke-dasharray:7.0,7.0;"/><polygon fill="#000000" points="736.11,368.5794,744.296,363.1031,738.7785,364.351,737.5306,358.8335,736.11,368.5794" style="stroke:#000000;stroke-width:1;"/></g><!--SRC=[ZPJFZjCm4CRlUOfXBxI7LfnHLQcYvSzgaQeMk4-TQTTgOWVRMT45deR32guyGbuCEtMRPEE4dA9aVkEPUBxvNfXxIWco1Bc833S9mPBZGM6A42EyiK_xY0asb4dDJV5NSGcZ9Hg41MEaDTpXYTGuqaSkChI9m1BKUc6CuhlSq0ScnPO_4hog8Hco8nveQqwse29ceiX_WXjVIIfE-WPcixSoYKdDv_0z0k32aDeZ8xZDy4gUdaUs6J6-vmmDbsBrZLXkAGirk8KYN9F-cdDTEyfMh5xcyqR6we64aSFODTcRYZaRY7_METg4OV0NuYnFv3hV9VOV6GvjISboiiFeEtaO3Fg6Xl6tkJP-E0-s5vOFlVuDxHNf-q_oIA8xusTDIojXDMrr1AEFAEoN67Odg0jix1JcrBn3JLvZfNuRwh1CUTAveNFyh8LGv3hvKD3FEHHgJJLuk9zXA6O7qV7P7nsA1gOHmkftNu_RsuvUmcGoWVUaK1HFg26MiCqK5mSeVS86eyQsmkp7TDgnVY6ohTiGrTgW4DIpEI6yiGCTG4lx8QvNyw64iDP3v7DJ2jvWsuoYBfliFhK73nMu26D32HPFnIy9jROcSpXh24RlI95W75DNSLpAfSEQfzDvSozVGrhkjOvQrknOlwCL5J9b1rOhMx5jHtRaPNyhhi-CNKPxhMlzj1svREUov1NPT6C7kMrlnDicxB7BzbTqlmMxj90jLFaTJkmI6qPHPNWjB2aZ4HT_tBmrsEaeQlWn45mzcr98Yzz6nbA3hMzaoX_HlJY5_E_M_PpwElN8Fm00]--></g></svg>