<svg xmlns="http://www.w3.org/2000/svg" xmlns:xlink="http://www.w3.org/1999/xlink" contentStyleType="text/css" data-diagram-type="CLASS" height="502px" preserveAspectRatio="none" style="width:7192px;height:502px;background:#FFFFFF;" version="1.1" viewBox="0 0 7192 502" width="7192px" zoomAndPan="magnify"><title>Diagrama da Camada de Controle (API Layer)</title><defs/><g><g class="title" data-source-line="2"><text fill="#000000" font-family="Verdana" font-size="22" font-weight="bold" lengthAdjust="spacing" textLength="562.7188" x="3310.1406" y="35.4209">Diagrama da Camada de Controle (API Layer)</text></g><!--cluster Controllers--><g class="cluster" data-entity="Controllers" data-source-line="6" data-uid="ent0002" id="cluster_Controllers"><polygon fill="#FFFFFF" points="2116,67.6094,2126,57.6094,3710,57.6094,3710,159.8694,3700,169.8694,2116,169.8694,2116,67.6094" style="stroke:#000000;stroke-width:1;"/><line style="stroke:#000000;stroke-width:1;" x1="3700" x2="3710" y1="67.6094" y2="57.6094"/><line style="stroke:#000000;stroke-width:1;" x1="2116" x2="3700" y1="67.6094" y2="67.6094"/><line style="stroke:#000000;stroke-width:1;" x1="3700" x2="3700" y1="67.6094" y2="169.8694"/><text fill="#000000" font-family="Verdana" font-size="14" font-weight="bold" lengthAdjust="spacing" textLength="87.4043" x="2865.2979" y="83.6045">Controllers</text></g><!--cluster Services (Dependencies)--><g class="cluster" data-entity="Services .Dependencies." data-source-line="17" data-uid="ent0011" id="cluster_Services .Dependencies."><rect fill="#FFFFFF" height="123.27" rx="2.5" ry="2.5" style="stroke:#000000;stroke-width:1;" width="2269" x="4917" y="193.8694"/><text fill="#000000" font-family="Verdana" font-size="14" font-style="italic" lengthAdjust="spacing" textLength="98.4102" x="6002.2949" y="208.8645">&#171;Component&#187;</text><text fill="#000000" font-family="Verdana" font-size="14" font-weight="bold" lengthAdjust="spacing" textLength="195.2139" x="5953.8931" y="225.1614">Services (Dependencies)</text></g><!--cluster Repositories (Dependencies)--><g class="cluster" data-entity="Repositories .Dependencies." data-source-line="30" data-uid="ent0022" id="cluster_Repositories .Dependencies."><path d="M13.5,209.8694 L242.0684,209.8694 A3.75,3.75 0 0 1 244.5684,212.3694 L251.5684,232.1663 L1087.5,232.1663 A2.5,2.5 0 0 1 1090,234.6663 L1090,314.6394 A2.5,2.5 0 0 1 1087.5,317.1394 L13.5,317.1394 A2.5,2.5 0 0 1 11,314.6394 L11,212.3694 A2.5,2.5 0 0 1 13.5,209.8694" fill="#FFFFFF" style="stroke:#000000;stroke-width:1;"/><line style="stroke:#000000;stroke-width:1;" x1="11" x2="251.5684" y1="232.1663" y2="232.1663"/><text fill="#000000" font-family="Verdana" font-size="14" font-weight="bold" lengthAdjust="spacing" textLength="227.5684" x="15" y="224.8645">Repositories (Dependencies)</text></g><!--cluster DTOs--><g class="cluster" data-entity="DTOs" data-source-line="38" data-uid="ent0028" id="cluster_DTOs"><path d="M1159.3425,230.7227 C1230.4899,103.8691 1338.4042,136.8263 1398.5363,242.0746 C1489.9885,116.0642 1613.674,103.8572 1684.1121,263.1117 C1757.8133,139.5653 1863.8152,143.9932 1941.1491,259.2007 C1995.1342,139.3668 2118.078,106.3607 2206.2018,220.5326 C2301.3385,112.4548 2416.7922,97.1312 2477.8842,255.2755 C2550.5247,112.9195 2661.3282,125.4152 2738.9541,250.4071 C2813.7037,129.7873 2939.1848,113.6352 3017.468,246.525 C3097.3082,89.9416 3214.4218,106.3877 3310.731,229.241 C3393.229,79.5037 3497.0062,80.9387 3582.8907,226.1158 C3669.0051,123.4887 3740.9058,108.0115 3818.2024,235.1465 C3905.837,102.8772 4023.5197,92.5004 4116.4265,229.3031 C4189.0982,119.5166 4310.851,125.0407 4363.345,250.4836 C4447.6486,100.2593 4565.7348,119.9499 4649.2409,251.2933 C4697.5031,132.1 4813.6814,106.4189 4887.5131,225.7509 C4899.5791,231.6162 4897.4234,239.6372 4889.1324,247.0501 C4898.0432,249.788 4902.6327,258.229 4893.898,265.5199 C4901.5954,272.0755 4902.6793,278.1664 4892.9353,283.8036 C4916.6061,292.9642 4926.5547,309.3758 4906.5065,331.0852 C4816.9859,466.7095 4703.426,458.6538 4634.2956,311.4597 C4570.8558,442.3323 4437.5078,435.2063 4367.9709,318.0054 C4288.9216,452.9696 4174.3539,477.8705 4086.0785,327.1076 C4014.5728,460.2182 3920.3755,447.026 3827.6699,351.0177 C3745.2761,479.6162 3632.2966,495.4879 3554.6041,346.3948 C3480.002,443.8786 3391.9013,439.6007 3319.2509,344.0157 C3208.7228,475.2368 3106.4567,465.3384 3016.1355,321.729 C2944.3354,444.8103 2848.283,417.5995 2781.549,316.4296 C2711.5565,442.6495 2585.7416,455.2481 2512.7466,319.5105 C2419.4518,467.5024 2327.9043,460.352 2223.5955,330.9931 C2149.1013,469.4271 2022.4074,470.995 1950.6686,328.318 C1869.6909,442.3222 1761.8432,432.0899 1692.8557,314.9447 C1595.4735,457.0052 1505.4247,466.921 1402.3362,320.6953 C1325.7712,432.0602 1185.765,447.3643 1123.3217,305.1567 C1111.4101,299.4227 1111.5177,292.732 1120.7417,284.3742 C1111.1998,280.7524 1107.9264,273.1659 1115.273,264.8208 C1106.5642,257.0918 1110.2421,247.5251 1120.666,245.0026 C1124.8683,219.6352 1140.8246,217.3168 1159.3425,230.7227" fill="#FFFFFF" style="stroke:#000000;stroke-width:1;"/><text fill="#000000" font-family="Verdana" font-size="14" font-weight="bold" lengthAdjust="spacing" textLength="41.4053" x="2982.7974" y="242.0045">DTOs</text></g><!--class AreaPesquisaController--><g class="entity" data-entity="AreaPesquisaController" data-source-line="7" data-uid="ent0003" id="entity_AreaPesquisaController"><rect fill="#FFFFFF" height="56.2656" rx="2.5" ry="2.5" style="stroke:#000000;stroke-width:1;" width="191.5703" x="2332.21" y="97.6094"/><ellipse cx="2345.21" cy="117.7422" fill="#FFFFFF" rx="9" ry="9" style="stroke:#000000;stroke-width:1;"/><path d="M2348.1788,123.3828 Q2347.6006,123.6797 2346.96,123.8203 Q2346.3194,123.9766 2345.6163,123.9766 Q2343.1163,123.9766 2341.7881,122.3359 Q2340.4756,120.6797 2340.4756,117.5547 Q2340.4756,114.4297 2341.7881,112.7734 Q2343.1163,111.1172 2345.6163,111.1172 Q2346.3194,111.1172 2346.96,111.2734 Q2347.6163,111.4297 2348.1788,111.7266 L2348.1788,114.4453 Q2347.5538,113.8672 2346.96,113.6016 Q2346.3663,113.3203 2345.7413,113.3203 Q2344.3975,113.3203 2343.71,114.3984 Q2343.0225,115.4609 2343.0225,117.5547 Q2343.0225,119.6484 2343.71,120.7266 Q2344.3975,121.7891 2345.7413,121.7891 Q2346.3663,121.7891 2346.96,121.5234 Q2347.5538,121.2422 2348.1788,120.6641 L2348.1788,123.3828 Z " fill="#000000"/><text fill="#000000" font-family="Verdana" font-size="12" font-style="italic" lengthAdjust="spacing" textLength="100.6523" x="2388.669" y="113.748">&#171;RestController&#187;</text><text fill="#000000" font-family="Verdana" font-size="14" lengthAdjust="spacing" textLength="163.5703" x="2357.21" y="129.5732">AreaPesquisaController</text><line style="stroke:#000000;stroke-width:1;" x1="2333.21" x2="2522.7803" y1="137.875" y2="137.875"/><line style="stroke:#000000;stroke-width:1;" x1="2333.21" x2="2522.7803" y1="145.875" y2="145.875"/></g><!--class EventoController--><g class="entity" data-entity="EventoController" data-source-line="8" data-uid="ent0004" id="entity_EventoController"><rect fill="#FFFFFF" height="56.2656" rx="2.5" ry="2.5" style="stroke:#000000;stroke-width:1;" width="145.8447" x="2927.08" y="97.6094"/><ellipse cx="2940.08" cy="117.7422" fill="#FFFFFF" rx="9" ry="9" style="stroke:#000000;stroke-width:1;"/><path d="M2943.0488,123.3828 Q2942.4706,123.6797 2941.83,123.8203 Q2941.1894,123.9766 2940.4863,123.9766 Q2937.9863,123.9766 2936.6581,122.3359 Q2935.3456,120.6797 2935.3456,117.5547 Q2935.3456,114.4297 2936.6581,112.7734 Q2937.9863,111.1172 2940.4863,111.1172 Q2941.1894,111.1172 2941.83,111.2734 Q2942.4863,111.4297 2943.0488,111.7266 L2943.0488,114.4453 Q2942.4238,113.8672 2941.83,113.6016 Q2941.2363,113.3203 2940.6113,113.3203 Q2939.2675,113.3203 2938.58,114.3984 Q2937.8925,115.4609 2937.8925,117.5547 Q2937.8925,119.6484 2938.58,120.7266 Q2939.2675,121.7891 2940.6113,121.7891 Q2941.2363,121.7891 2941.83,121.5234 Q2942.4238,121.2422 2943.0488,120.6641 L2943.0488,123.3828 Z " fill="#000000"/><text fill="#000000" font-family="Verdana" font-size="12" font-style="italic" lengthAdjust="spacing" textLength="100.6523" x="2960.6762" y="113.748">&#171;RestController&#187;</text><text fill="#000000" font-family="Verdana" font-size="14" lengthAdjust="spacing" textLength="117.8447" x="2952.08" y="129.5732">EventoController</text><line style="stroke:#000000;stroke-width:1;" x1="2928.08" x2="3071.9247" y1="137.875" y2="137.875"/><line style="stroke:#000000;stroke-width:1;" x1="2928.08" x2="3071.9247" y1="145.875" y2="145.875"/></g><!--class LogVeiculoController--><g class="entity" data-entity="LogVeiculoController" data-source-line="9" data-uid="ent0005" id="entity_LogVeiculoController"><rect fill="#FFFFFF" height="56.2656" rx="2.5" ry="2.5" style="stroke:#000000;stroke-width:1;" width="173.5303" x="3108.23" y="97.6094"/><ellipse cx="3121.23" cy="117.7422" fill="#FFFFFF" rx="9" ry="9" style="stroke:#000000;stroke-width:1;"/><path d="M3124.1988,123.3828 Q3123.6206,123.6797 3122.98,123.8203 Q3122.3394,123.9766 3121.6363,123.9766 Q3119.1363,123.9766 3117.8081,122.3359 Q3116.4956,120.6797 3116.4956,117.5547 Q3116.4956,114.4297 3117.8081,112.7734 Q3119.1363,111.1172 3121.6363,111.1172 Q3122.3394,111.1172 3122.98,111.2734 Q3123.6363,111.4297 3124.1988,111.7266 L3124.1988,114.4453 Q3123.5738,113.8672 3122.98,113.6016 Q3122.3863,113.3203 3121.7613,113.3203 Q3120.4175,113.3203 3119.73,114.3984 Q3119.0425,115.4609 3119.0425,117.5547 Q3119.0425,119.6484 3119.73,120.7266 Q3120.4175,121.7891 3121.7613,121.7891 Q3122.3863,121.7891 3122.98,121.5234 Q3123.5738,121.2422 3124.1988,120.6641 L3124.1988,123.3828 Z " fill="#000000"/><text fill="#000000" font-family="Verdana" font-size="12" font-style="italic" lengthAdjust="spacing" textLength="100.6523" x="3155.669" y="113.748">&#171;RestController&#187;</text><text fill="#000000" font-family="Verdana" font-size="14" lengthAdjust="spacing" textLength="145.5303" x="3133.23" y="129.5732">LogVeiculoController</text><line style="stroke:#000000;stroke-width:1;" x1="3109.23" x2="3280.7603" y1="137.875" y2="137.875"/><line style="stroke:#000000;stroke-width:1;" x1="3109.23" x2="3280.7603" y1="145.875" y2="145.875"/></g><!--class PeriodicoController--><g class="entity" data-entity="PeriodicoController" data-source-line="10" data-uid="ent0006" id="entity_PeriodicoController"><rect fill="#FFFFFF" height="56.2656" rx="2.5" ry="2.5" style="stroke:#000000;stroke-width:1;" width="161.4785" x="3317.26" y="97.6094"/><ellipse cx="3330.26" cy="117.7422" fill="#FFFFFF" rx="9" ry="9" style="stroke:#000000;stroke-width:1;"/><path d="M3333.2288,123.3828 Q3332.6506,123.6797 3332.01,123.8203 Q3331.3694,123.9766 3330.6663,123.9766 Q3328.1663,123.9766 3326.8381,122.3359 Q3325.5256,120.6797 3325.5256,117.5547 Q3325.5256,114.4297 3326.8381,112.7734 Q3328.1663,111.1172 3330.6663,111.1172 Q3331.3694,111.1172 3332.01,111.2734 Q3332.6663,111.4297 3333.2288,111.7266 L3333.2288,114.4453 Q3332.6038,113.8672 3332.01,113.6016 Q3331.4163,113.3203 3330.7913,113.3203 Q3329.4475,113.3203 3328.76,114.3984 Q3328.0725,115.4609 3328.0725,117.5547 Q3328.0725,119.6484 3328.76,120.7266 Q3329.4475,121.7891 3330.7913,121.7891 Q3331.4163,121.7891 3332.01,121.5234 Q3332.6038,121.2422 3333.2288,120.6641 L3333.2288,123.3828 Z " fill="#000000"/><text fill="#000000" font-family="Verdana" font-size="12" font-style="italic" lengthAdjust="spacing" textLength="100.6523" x="3358.6731" y="113.748">&#171;RestController&#187;</text><text fill="#000000" font-family="Verdana" font-size="14" lengthAdjust="spacing" textLength="133.4785" x="3342.26" y="129.5732">PeriodicoController</text><line style="stroke:#000000;stroke-width:1;" x1="3318.26" x2="3477.7385" y1="137.875" y2="137.875"/><line style="stroke:#000000;stroke-width:1;" x1="3318.26" x2="3477.7385" y1="145.875" y2="145.875"/></g><!--class ProgramaController--><g class="entity" data-entity="ProgramaController" data-source-line="11" data-uid="ent0007" id="entity_ProgramaController"><rect fill="#FFFFFF" height="56.2656" rx="2.5" ry="2.5" style="stroke:#000000;stroke-width:1;" width="165.375" x="2132.31" y="97.6094"/><ellipse cx="2145.31" cy="117.7422" fill="#FFFFFF" rx="9" ry="9" style="stroke:#000000;stroke-width:1;"/><path d="M2148.2788,123.3828 Q2147.7006,123.6797 2147.06,123.8203 Q2146.4194,123.9766 2145.7163,123.9766 Q2143.2163,123.9766 2141.8881,122.3359 Q2140.5756,120.6797 2140.5756,117.5547 Q2140.5756,114.4297 2141.8881,112.7734 Q2143.2163,111.1172 2145.7163,111.1172 Q2146.4194,111.1172 2147.06,111.2734 Q2147.7163,111.4297 2148.2788,111.7266 L2148.2788,114.4453 Q2147.6538,113.8672 2147.06,113.6016 Q2146.4663,113.3203 2145.8413,113.3203 Q2144.4975,113.3203 2143.81,114.3984 Q2143.1225,115.4609 2143.1225,117.5547 Q2143.1225,119.6484 2143.81,120.7266 Q2144.4975,121.7891 2145.8413,121.7891 Q2146.4663,121.7891 2147.06,121.5234 Q2147.6538,121.2422 2148.2788,120.6641 L2148.2788,123.3828 Z " fill="#000000"/><text fill="#000000" font-family="Verdana" font-size="12" font-style="italic" lengthAdjust="spacing" textLength="100.6523" x="2175.6713" y="113.748">&#171;RestController&#187;</text><text fill="#000000" font-family="Verdana" font-size="14" lengthAdjust="spacing" textLength="137.375" x="2157.31" y="129.5732">ProgramaController</text><line style="stroke:#000000;stroke-width:1;" x1="2133.31" x2="2296.685" y1="137.875" y2="137.875"/><line style="stroke:#000000;stroke-width:1;" x1="2133.31" x2="2296.685" y1="145.875" y2="145.875"/></g><!--class UsuarioController--><g class="entity" data-entity="UsuarioController" data-source-line="12" data-uid="ent0008" id="entity_UsuarioController"><rect fill="#FFFFFF" height="56.2656" rx="2.5" ry="2.5" style="stroke:#000000;stroke-width:1;" width="150.377" x="2741.81" y="97.6094"/><ellipse cx="2754.81" cy="117.7422" fill="#FFFFFF" rx="9" ry="9" style="stroke:#000000;stroke-width:1;"/><path d="M2757.7788,123.3828 Q2757.2006,123.6797 2756.56,123.8203 Q2755.9194,123.9766 2755.2163,123.9766 Q2752.7163,123.9766 2751.3881,122.3359 Q2750.0756,120.6797 2750.0756,117.5547 Q2750.0756,114.4297 2751.3881,112.7734 Q2752.7163,111.1172 2755.2163,111.1172 Q2755.9194,111.1172 2756.56,111.2734 Q2757.2163,111.4297 2757.7788,111.7266 L2757.7788,114.4453 Q2757.1538,113.8672 2756.56,113.6016 Q2755.9663,113.3203 2755.3413,113.3203 Q2753.9975,113.3203 2753.31,114.3984 Q2752.6225,115.4609 2752.6225,117.5547 Q2752.6225,119.6484 2753.31,120.7266 Q2753.9975,121.7891 2755.3413,121.7891 Q2755.9663,121.7891 2756.56,121.5234 Q2757.1538,121.2422 2757.7788,120.6641 L2757.7788,123.3828 Z " fill="#000000"/><text fill="#000000" font-family="Verdana" font-size="12" font-style="italic" lengthAdjust="spacing" textLength="100.6523" x="2777.6723" y="113.748">&#171;RestController&#187;</text><text fill="#000000" font-family="Verdana" font-size="14" lengthAdjust="spacing" textLength="122.377" x="2766.81" y="129.5732">UsuarioController</text><line style="stroke:#000000;stroke-width:1;" x1="2742.81" x2="2891.187" y1="137.875" y2="137.875"/><line style="stroke:#000000;stroke-width:1;" x1="2742.81" x2="2891.187" y1="145.875" y2="145.875"/></g><!--class VeiculoController--><g class="entity" data-entity="VeiculoController" data-source-line="13" data-uid="ent0009" id="entity_VeiculoController"><rect fill="#FFFFFF" height="56.2656" rx="2.5" ry="2.5" style="stroke:#000000;stroke-width:1;" width="148.2783" x="2558.86" y="97.6094"/><ellipse cx="2571.86" cy="117.7422" fill="#FFFFFF" rx="9" ry="9" style="stroke:#000000;stroke-width:1;"/><path d="M2574.8288,123.3828 Q2574.2506,123.6797 2573.61,123.8203 Q2572.9694,123.9766 2572.2663,123.9766 Q2569.7663,123.9766 2568.4381,122.3359 Q2567.1256,120.6797 2567.1256,117.5547 Q2567.1256,114.4297 2568.4381,112.7734 Q2569.7663,111.1172 2572.2663,111.1172 Q2572.9694,111.1172 2573.61,111.2734 Q2574.2663,111.4297 2574.8288,111.7266 L2574.8288,114.4453 Q2574.2038,113.8672 2573.61,113.6016 Q2573.0163,113.3203 2572.3913,113.3203 Q2571.0475,113.3203 2570.36,114.3984 Q2569.6725,115.4609 2569.6725,117.5547 Q2569.6725,119.6484 2570.36,120.7266 Q2571.0475,121.7891 2572.3913,121.7891 Q2573.0163,121.7891 2573.61,121.5234 Q2574.2038,121.2422 2574.8288,120.6641 L2574.8288,123.3828 Z " fill="#000000"/><text fill="#000000" font-family="Verdana" font-size="12" font-style="italic" lengthAdjust="spacing" textLength="100.6523" x="2593.673" y="113.748">&#171;RestController&#187;</text><text fill="#000000" font-family="Verdana" font-size="14" lengthAdjust="spacing" textLength="120.2783" x="2583.86" y="129.5732">VeiculoController</text><line style="stroke:#000000;stroke-width:1;" x1="2559.86" x2="2706.1383" y1="137.875" y2="137.875"/><line style="stroke:#000000;stroke-width:1;" x1="2559.86" x2="2706.1383" y1="145.875" y2="145.875"/></g><!--class AutorizacaoController--><g class="entity" data-entity="AutorizacaoController" data-source-line="14" data-uid="ent0010" id="entity_AutorizacaoController"><rect fill="#FFFFFF" height="56.2656" rx="2.5" ry="2.5" style="stroke:#000000;stroke-width:1;" width="180.0928" x="3513.95" y="97.6094"/><ellipse cx="3526.95" cy="117.7422" fill="#FFFFFF" rx="9" ry="9" style="stroke:#000000;stroke-width:1;"/><path d="M3529.9188,123.3828 Q3529.3406,123.6797 3528.7,123.8203 Q3528.0594,123.9766 3527.3563,123.9766 Q3524.8563,123.9766 3523.5281,122.3359 Q3522.2156,120.6797 3522.2156,117.5547 Q3522.2156,114.4297 3523.5281,112.7734 Q3524.8563,111.1172 3527.3563,111.1172 Q3528.0594,111.1172 3528.7,111.2734 Q3529.3563,111.4297 3529.9188,111.7266 L3529.9188,114.4453 Q3529.2938,113.8672 3528.7,113.6016 Q3528.1063,113.3203 3527.4813,113.3203 Q3526.1375,113.3203 3525.45,114.3984 Q3524.7625,115.4609 3524.7625,117.5547 Q3524.7625,119.6484 3525.45,120.7266 Q3526.1375,121.7891 3527.4813,121.7891 Q3528.1063,121.7891 3528.7,121.5234 Q3529.2938,121.2422 3529.9188,120.6641 L3529.9188,123.3828 Z " fill="#000000"/><text fill="#000000" font-family="Verdana" font-size="12" font-style="italic" lengthAdjust="spacing" textLength="100.6523" x="3564.6702" y="113.748">&#171;RestController&#187;</text><text fill="#000000" font-family="Verdana" font-size="14" lengthAdjust="spacing" textLength="152.0928" x="3538.95" y="129.5732">AutorizacaoController</text><line style="stroke:#000000;stroke-width:1;" x1="3514.95" x2="3693.0428" y1="137.875" y2="137.875"/><line style="stroke:#000000;stroke-width:1;" x1="3514.95" x2="3693.0428" y1="145.875" y2="145.875"/></g><!--class CriarEventoService--><g class="entity" data-entity="CriarEventoService" data-source-line="18" data-uid="ent0012" id="entity_CriarEventoService"><rect fill="#FFFFFF" height="56.2656" rx="2.5" ry="2.5" style="stroke:#000000;stroke-width:1;" width="162.1689" x="5573.92" y="244.8694"/><ellipse cx="5586.92" cy="265.0022" fill="#FFFFFF" rx="9" ry="9" style="stroke:#000000;stroke-width:1;"/><path d="M5589.8888,270.6428 Q5589.3106,270.9397 5588.67,271.0803 Q5588.0294,271.2366 5587.3263,271.2366 Q5584.8263,271.2366 5583.4981,269.5959 Q5582.1856,267.9397 5582.1856,264.8147 Q5582.1856,261.6897 5583.4981,260.0334 Q5584.8263,258.3772 5587.3263,258.3772 Q5588.0294,258.3772 5588.67,258.5334 Q5589.3263,258.6897 5589.8888,258.9866 L5589.8888,261.7053 Q5589.2638,261.1272 5588.67,260.8616 Q5588.0763,260.5803 5587.4513,260.5803 Q5586.1075,260.5803 5585.42,261.6584 Q5584.7325,262.7209 5584.7325,264.8147 Q5584.7325,266.9084 5585.42,267.9866 Q5586.1075,269.0491 5587.4513,269.0491 Q5588.0763,269.0491 5588.67,268.7834 Q5589.2638,268.5022 5589.8888,267.9241 L5589.8888,270.6428 Z " fill="#000000"/><text fill="#000000" font-family="Verdana" font-size="12" font-style="italic" lengthAdjust="spacing" textLength="59.0332" x="5636.4879" y="261.008">&#171;Service&#187;</text><text fill="#000000" font-family="Verdana" font-size="14" lengthAdjust="spacing" textLength="134.1689" x="5598.92" y="276.8332">CriarEventoService</text><line style="stroke:#000000;stroke-width:1;" x1="5574.92" x2="5735.0889" y1="285.135" y2="285.135"/><line style="stroke:#000000;stroke-width:1;" x1="5574.92" x2="5735.0889" y1="293.135" y2="293.135"/></g><!--class EventoConsultaService--><g class="entity" data-entity="EventoConsultaService" data-source-line="19" data-uid="ent0013" id="entity_EventoConsultaService"><rect fill="#FFFFFF" height="56.2656" rx="2.5" ry="2.5" style="stroke:#000000;stroke-width:1;" width="189.752" x="5349.12" y="244.8694"/><ellipse cx="5362.12" cy="265.0022" fill="#FFFFFF" rx="9" ry="9" style="stroke:#000000;stroke-width:1;"/><path d="M5365.0888,270.6428 Q5364.5106,270.9397 5363.87,271.0803 Q5363.2294,271.2366 5362.5263,271.2366 Q5360.0263,271.2366 5358.6981,269.5959 Q5357.3856,267.9397 5357.3856,264.8147 Q5357.3856,261.6897 5358.6981,260.0334 Q5360.0263,258.3772 5362.5263,258.3772 Q5363.2294,258.3772 5363.87,258.5334 Q5364.5263,258.6897 5365.0888,258.9866 L5365.0888,261.7053 Q5364.4638,261.1272 5363.87,260.8616 Q5363.2763,260.5803 5362.6513,260.5803 Q5361.3075,260.5803 5360.62,261.6584 Q5359.9325,262.7209 5359.9325,264.8147 Q5359.9325,266.9084 5360.62,267.9866 Q5361.3075,269.0491 5362.6513,269.0491 Q5363.2763,269.0491 5363.87,268.7834 Q5364.4638,268.5022 5365.0888,267.9241 L5365.0888,270.6428 Z " fill="#000000"/><text fill="#000000" font-family="Verdana" font-size="12" font-style="italic" lengthAdjust="spacing" textLength="59.0332" x="5425.4794" y="261.008">&#171;Service&#187;</text><text fill="#000000" font-family="Verdana" font-size="14" lengthAdjust="spacing" textLength="161.752" x="5374.12" y="276.8332">EventoConsultaService</text><line style="stroke:#000000;stroke-width:1;" x1="5350.12" x2="5537.872" y1="285.135" y2="285.135"/><line style="stroke:#000000;stroke-width:1;" x1="5350.12" x2="5537.872" y1="293.135" y2="293.135"/></g><!--class CriarPeriodicoService--><g class="entity" data-entity="CriarPeriodicoService" data-source-line="20" data-uid="ent0014" id="entity_CriarPeriodicoService"><rect fill="#FFFFFF" height="56.2656" rx="2.5" ry="2.5" style="stroke:#000000;stroke-width:1;" width="177.8027" x="6205.1" y="244.8694"/><ellipse cx="6218.1" cy="265.0022" fill="#FFFFFF" rx="9" ry="9" style="stroke:#000000;stroke-width:1;"/><path d="M6221.0688,270.6428 Q6220.4906,270.9397 6219.85,271.0803 Q6219.2094,271.2366 6218.5063,271.2366 Q6216.0063,271.2366 6214.6781,269.5959 Q6213.3656,267.9397 6213.3656,264.8147 Q6213.3656,261.6897 6214.6781,260.0334 Q6216.0063,258.3772 6218.5063,258.3772 Q6219.2094,258.3772 6219.85,258.5334 Q6220.5063,258.6897 6221.0688,258.9866 L6221.0688,261.7053 Q6220.4438,261.1272 6219.85,260.8616 Q6219.2563,260.5803 6218.6313,260.5803 Q6217.2875,260.5803 6216.6,261.6584 Q6215.9125,262.7209 6215.9125,264.8147 Q6215.9125,266.9084 6216.6,267.9866 Q6217.2875,269.0491 6218.6313,269.0491 Q6219.2563,269.0491 6219.85,268.7834 Q6220.4438,268.5022 6221.0688,267.9241 L6221.0688,270.6428 Z " fill="#000000"/><text fill="#000000" font-family="Verdana" font-size="12" font-style="italic" lengthAdjust="spacing" textLength="59.0332" x="6275.4848" y="261.008">&#171;Service&#187;</text><text fill="#000000" font-family="Verdana" font-size="14" lengthAdjust="spacing" textLength="149.8027" x="6230.1" y="276.8332">CriarPeriodicoService</text><line style="stroke:#000000;stroke-width:1;" x1="6206.1" x2="6381.9027" y1="285.135" y2="285.135"/><line style="stroke:#000000;stroke-width:1;" x1="6206.1" x2="6381.9027" y1="293.135" y2="293.135"/></g><!--class PeriodicoConsultaService--><g class="entity" data-entity="PeriodicoConsultaService" data-source-line="21" data-uid="ent0015" id="entity_PeriodicoConsultaService"><rect fill="#FFFFFF" height="56.2656" rx="2.5" ry="2.5" style="stroke:#000000;stroke-width:1;" width="205.3857" x="6418.31" y="244.8694"/><ellipse cx="6431.31" cy="265.0022" fill="#FFFFFF" rx="9" ry="9" style="stroke:#000000;stroke-width:1;"/><path d="M6434.2788,270.6428 Q6433.7006,270.9397 6433.06,271.0803 Q6432.4194,271.2366 6431.7163,271.2366 Q6429.2163,271.2366 6427.8881,269.5959 Q6426.5756,267.9397 6426.5756,264.8147 Q6426.5756,261.6897 6427.8881,260.0334 Q6429.2163,258.3772 6431.7163,258.3772 Q6432.4194,258.3772 6433.06,258.5334 Q6433.7163,258.6897 6434.2788,258.9866 L6434.2788,261.7053 Q6433.6538,261.1272 6433.06,260.8616 Q6432.4663,260.5803 6431.8413,260.5803 Q6430.4975,260.5803 6429.81,261.6584 Q6429.1225,262.7209 6429.1225,264.8147 Q6429.1225,266.9084 6429.81,267.9866 Q6430.4975,269.0491 6431.8413,269.0491 Q6432.4663,269.0491 6433.06,268.7834 Q6433.6538,268.5022 6434.2788,267.9241 L6434.2788,270.6428 Z " fill="#000000"/><text fill="#000000" font-family="Verdana" font-size="12" font-style="italic" lengthAdjust="spacing" textLength="59.0332" x="6502.4863" y="261.008">&#171;Service&#187;</text><text fill="#000000" font-family="Verdana" font-size="14" lengthAdjust="spacing" textLength="177.3857" x="6443.31" y="276.8332">PeriodicoConsultaService</text><line style="stroke:#000000;stroke-width:1;" x1="6419.31" x2="6622.6957" y1="285.135" y2="285.135"/><line style="stroke:#000000;stroke-width:1;" x1="6419.31" x2="6622.6957" y1="293.135" y2="293.135"/></g><!--class ClassificarPeriodicoPredatorioService--><g class="entity" data-entity="ClassificarPeriodicoPredatorioService" data-source-line="22" data-uid="ent0016" id="entity_ClassificarPeriodicoPredatorioService"><rect fill="#FFFFFF" height="56.2656" rx="2.5" ry="2.5" style="stroke:#000000;stroke-width:1;" width="288.1621" x="6658.92" y="244.8694"/><ellipse cx="6671.92" cy="265.0022" fill="#FFFFFF" rx="9" ry="9" style="stroke:#000000;stroke-width:1;"/><path d="M6674.8888,270.6428 Q6674.3106,270.9397 6673.67,271.0803 Q6673.0294,271.2366 6672.3263,271.2366 Q6669.8263,271.2366 6668.4981,269.5959 Q6667.1856,267.9397 6667.1856,264.8147 Q6667.1856,261.6897 6668.4981,260.0334 Q6669.8263,258.3772 6672.3263,258.3772 Q6673.0294,258.3772 6673.67,258.5334 Q6674.3263,258.6897 6674.8888,258.9866 L6674.8888,261.7053 Q6674.2638,261.1272 6673.67,260.8616 Q6673.0763,260.5803 6672.4513,260.5803 Q6671.1075,260.5803 6670.42,261.6584 Q6669.7325,262.7209 6669.7325,264.8147 Q6669.7325,266.9084 6670.42,267.9866 Q6671.1075,269.0491 6672.4513,269.0491 Q6673.0763,269.0491 6673.67,268.7834 Q6674.2638,268.5022 6674.8888,267.9241 L6674.8888,270.6428 Z " fill="#000000"/><text fill="#000000" font-family="Verdana" font-size="12" font-style="italic" lengthAdjust="spacing" textLength="59.0332" x="6784.4845" y="261.008">&#171;Service&#187;</text><text fill="#000000" font-family="Verdana" font-size="14" lengthAdjust="spacing" textLength="260.1621" x="6683.92" y="276.8332">ClassificarPeriodicoPredatorioService</text><line style="stroke:#000000;stroke-width:1;" x1="6659.92" x2="6946.0821" y1="285.135" y2="285.135"/><line style="stroke:#000000;stroke-width:1;" x1="6659.92" x2="6946.0821" y1="293.135" y2="293.135"/></g><!--class CriarUsuarioService--><g class="entity" data-entity="CriarUsuarioService" data-source-line="23" data-uid="ent0017" id="entity_CriarUsuarioService"><rect fill="#FFFFFF" height="56.2656" rx="2.5" ry="2.5" style="stroke:#000000;stroke-width:1;" width="166.7012" x="5147.65" y="244.8694"/><ellipse cx="5160.65" cy="265.0022" fill="#FFFFFF" rx="9" ry="9" style="stroke:#000000;stroke-width:1;"/><path d="M5163.6188,270.6428 Q5163.0406,270.9397 5162.4,271.0803 Q5161.7594,271.2366 5161.0563,271.2366 Q5158.5563,271.2366 5157.2281,269.5959 Q5155.9156,267.9397 5155.9156,264.8147 Q5155.9156,261.6897 5157.2281,260.0334 Q5158.5563,258.3772 5161.0563,258.3772 Q5161.7594,258.3772 5162.4,258.5334 Q5163.0563,258.6897 5163.6188,258.9866 L5163.6188,261.7053 Q5162.9938,261.1272 5162.4,260.8616 Q5161.8063,260.5803 5161.1813,260.5803 Q5159.8375,260.5803 5159.15,261.6584 Q5158.4625,262.7209 5158.4625,264.8147 Q5158.4625,266.9084 5159.15,267.9866 Q5159.8375,269.0491 5161.1813,269.0491 Q5161.8063,269.0491 5162.4,268.7834 Q5162.9938,268.5022 5163.6188,267.9241 L5163.6188,270.6428 Z " fill="#000000"/><text fill="#000000" font-family="Verdana" font-size="12" font-style="italic" lengthAdjust="spacing" textLength="59.0332" x="5212.484" y="261.008">&#171;Service&#187;</text><text fill="#000000" font-family="Verdana" font-size="14" lengthAdjust="spacing" textLength="138.7012" x="5172.65" y="276.8332">CriarUsuarioService</text><line style="stroke:#000000;stroke-width:1;" x1="5148.65" x2="5313.3512" y1="285.135" y2="285.135"/><line style="stroke:#000000;stroke-width:1;" x1="5148.65" x2="5313.3512" y1="293.135" y2="293.135"/></g><!--class AvaliarVeiculoService--><g class="entity" data-entity="AvaliarVeiculoService" data-source-line="24" data-uid="ent0018" id="entity_AvaliarVeiculoService"><rect fill="#FFFFFF" height="56.2656" rx="2.5" ry="2.5" style="stroke:#000000;stroke-width:1;" width="179.4023" x="4933.3" y="244.8694"/><ellipse cx="4946.3" cy="265.0022" fill="#FFFFFF" rx="9" ry="9" style="stroke:#000000;stroke-width:1;"/><path d="M4949.2688,270.6428 Q4948.6906,270.9397 4948.05,271.0803 Q4947.4094,271.2366 4946.7063,271.2366 Q4944.2063,271.2366 4942.8781,269.5959 Q4941.5656,267.9397 4941.5656,264.8147 Q4941.5656,261.6897 4942.8781,260.0334 Q4944.2063,258.3772 4946.7063,258.3772 Q4947.4094,258.3772 4948.05,258.5334 Q4948.7063,258.6897 4949.2688,258.9866 L4949.2688,261.7053 Q4948.6438,261.1272 4948.05,260.8616 Q4947.4563,260.5803 4946.8313,260.5803 Q4945.4875,260.5803 4944.8,261.6584 Q4944.1125,262.7209 4944.1125,264.8147 Q4944.1125,266.9084 4944.8,267.9866 Q4945.4875,269.0491 4946.8313,269.0491 Q4947.4563,269.0491 4948.05,268.7834 Q4948.6438,268.5022 4949.2688,267.9241 L4949.2688,270.6428 Z " fill="#000000"/><text fill="#000000" font-family="Verdana" font-size="12" font-style="italic" lengthAdjust="spacing" textLength="59.0332" x="5004.4846" y="261.008">&#171;Service&#187;</text><text fill="#000000" font-family="Verdana" font-size="14" lengthAdjust="spacing" textLength="151.4023" x="4958.3" y="276.8332">AvaliarVeiculoService</text><line style="stroke:#000000;stroke-width:1;" x1="4934.3" x2="5111.7023" y1="285.135" y2="285.135"/><line style="stroke:#000000;stroke-width:1;" x1="4934.3" x2="5111.7023" y1="293.135" y2="293.135"/></g><!--class ListarLogVeiculoService--><g class="entity" data-entity="ListarLogVeiculoService" data-source-line="25" data-uid="ent0019" id="entity_ListarLogVeiculoService"><rect fill="#FFFFFF" height="56.2656" rx="2.5" ry="2.5" style="stroke:#000000;stroke-width:1;" width="194.9063" x="5771.55" y="244.8694"/><ellipse cx="5784.55" cy="265.0022" fill="#FFFFFF" rx="9" ry="9" style="stroke:#000000;stroke-width:1;"/><path d="M5787.5188,270.6428 Q5786.9406,270.9397 5786.3,271.0803 Q5785.6594,271.2366 5784.9563,271.2366 Q5782.4563,271.2366 5781.1281,269.5959 Q5779.8156,267.9397 5779.8156,264.8147 Q5779.8156,261.6897 5781.1281,260.0334 Q5782.4563,258.3772 5784.9563,258.3772 Q5785.6594,258.3772 5786.3,258.5334 Q5786.9563,258.6897 5787.5188,258.9866 L5787.5188,261.7053 Q5786.8938,261.1272 5786.3,260.8616 Q5785.7063,260.5803 5785.0813,260.5803 Q5783.7375,260.5803 5783.05,261.6584 Q5782.3625,262.7209 5782.3625,264.8147 Q5782.3625,266.9084 5783.05,267.9866 Q5783.7375,269.0491 5785.0813,269.0491 Q5785.7063,269.0491 5786.3,268.7834 Q5786.8938,268.5022 5787.5188,267.9241 L5787.5188,270.6428 Z " fill="#000000"/><text fill="#000000" font-family="Verdana" font-size="12" font-style="italic" lengthAdjust="spacing" textLength="59.0332" x="5850.4865" y="261.008">&#171;Service&#187;</text><text fill="#000000" font-family="Verdana" font-size="14" lengthAdjust="spacing" textLength="166.9063" x="5796.55" y="276.8332">ListarLogVeiculoService</text><line style="stroke:#000000;stroke-width:1;" x1="5772.55" x2="5965.4563" y1="285.135" y2="285.135"/><line style="stroke:#000000;stroke-width:1;" x1="5772.55" x2="5965.4563" y1="293.135" y2="293.135"/></g><!--class RegistrarLogService--><g class="entity" data-entity="RegistrarLogService" data-source-line="26" data-uid="ent0020" id="entity_RegistrarLogService"><rect fill="#FFFFFF" height="56.2656" rx="2.5" ry="2.5" style="stroke:#000000;stroke-width:1;" width="168.9844" x="6001.51" y="244.8694"/><ellipse cx="6014.51" cy="265.0022" fill="#FFFFFF" rx="9" ry="9" style="stroke:#000000;stroke-width:1;"/><path d="M6017.4788,270.6428 Q6016.9006,270.9397 6016.26,271.0803 Q6015.6194,271.2366 6014.9163,271.2366 Q6012.4163,271.2366 6011.0881,269.5959 Q6009.7756,267.9397 6009.7756,264.8147 Q6009.7756,261.6897 6011.0881,260.0334 Q6012.4163,258.3772 6014.9163,258.3772 Q6015.6194,258.3772 6016.26,258.5334 Q6016.9163,258.6897 6017.4788,258.9866 L6017.4788,261.7053 Q6016.8538,261.1272 6016.26,260.8616 Q6015.6663,260.5803 6015.0413,260.5803 Q6013.6975,260.5803 6013.01,261.6584 Q6012.3225,262.7209 6012.3225,264.8147 Q6012.3225,266.9084 6013.01,267.9866 Q6013.6975,269.0491 6015.0413,269.0491 Q6015.6663,269.0491 6016.26,268.7834 Q6016.8538,268.5022 6017.4788,267.9241 L6017.4788,270.6428 Z " fill="#000000"/><text fill="#000000" font-family="Verdana" font-size="12" font-style="italic" lengthAdjust="spacing" textLength="59.0332" x="6067.4856" y="261.008">&#171;Service&#187;</text><text fill="#000000" font-family="Verdana" font-size="14" lengthAdjust="spacing" textLength="140.9844" x="6026.51" y="276.8332">RegistrarLogService</text><line style="stroke:#000000;stroke-width:1;" x1="6002.51" x2="6169.4944" y1="285.135" y2="285.135"/><line style="stroke:#000000;stroke-width:1;" x1="6002.51" x2="6169.4944" y1="293.135" y2="293.135"/></g><!--class AutorizacaoServiceRsa--><g class="entity" data-entity="AutorizacaoServiceRsa" data-source-line="27" data-uid="ent0021" id="entity_AutorizacaoServiceRsa"><rect fill="#FFFFFF" height="56.2656" rx="2.5" ry="2.5" style="stroke:#000000;stroke-width:1;" width="188.2617" x="6981.87" y="244.8694"/><ellipse cx="6994.87" cy="265.0022" fill="#FFFFFF" rx="9" ry="9" style="stroke:#000000;stroke-width:1;"/><path d="M6997.8388,270.6428 Q6997.2606,270.9397 6996.62,271.0803 Q6995.9794,271.2366 6995.2763,271.2366 Q6992.7763,271.2366 6991.4481,269.5959 Q6990.1356,267.9397 6990.1356,264.8147 Q6990.1356,261.6897 6991.4481,260.0334 Q6992.7763,258.3772 6995.2763,258.3772 Q6995.9794,258.3772 6996.62,258.5334 Q6997.2763,258.6897 6997.8388,258.9866 L6997.8388,261.7053 Q6997.2138,261.1272 6996.62,260.8616 Q6996.0263,260.5803 6995.4013,260.5803 Q6994.0575,260.5803 6993.37,261.6584 Q6992.6825,262.7209 6992.6825,264.8147 Q6992.6825,266.9084 6993.37,267.9866 Q6994.0575,269.0491 6995.4013,269.0491 Q6996.0263,269.0491 6996.62,268.7834 Q6997.2138,268.5022 6997.8388,267.9241 L6997.8388,270.6428 Z " fill="#000000"/><text fill="#000000" font-family="Verdana" font-size="12" font-style="italic" lengthAdjust="spacing" textLength="59.0332" x="7057.4843" y="261.008">&#171;Service&#187;</text><text fill="#000000" font-family="Verdana" font-size="14" lengthAdjust="spacing" textLength="160.2617" x="7006.87" y="276.8332">AutorizacaoServiceRsa</text><line style="stroke:#000000;stroke-width:1;" x1="6982.87" x2="7169.1317" y1="285.135" y2="285.135"/><line style="stroke:#000000;stroke-width:1;" x1="6982.87" x2="7169.1317" y1="293.135" y2="293.135"/></g><!--class AreaPesquisaRepository--><g class="entity" data-entity="AreaPesquisaRepository" data-source-line="31" data-uid="ent0023" id="entity_AreaPesquisaRepository"><rect fill="#FFFFFF" height="56.2656" rx="2.5" ry="2.5" style="stroke:#000000;stroke-width:1;" width="197.4697" x="233.27" y="244.8694"/><ellipse cx="246.27" cy="265.0022" fill="#FFFFFF" rx="9" ry="9" style="stroke:#000000;stroke-width:1;"/><path d="M249.2388,270.6428 Q248.6606,270.9397 248.02,271.0803 Q247.3794,271.2366 246.6763,271.2366 Q244.1763,271.2366 242.8481,269.5959 Q241.5356,267.9397 241.5356,264.8147 Q241.5356,261.6897 242.8481,260.0334 Q244.1763,258.3772 246.6763,258.3772 Q247.3794,258.3772 248.02,258.5334 Q248.6763,258.6897 249.2388,258.9866 L249.2388,261.7053 Q248.6138,261.1272 248.02,260.8616 Q247.4263,260.5803 246.8013,260.5803 Q245.4575,260.5803 244.77,261.6584 Q244.0825,262.7209 244.0825,264.8147 Q244.0825,266.9084 244.77,267.9866 Q245.4575,269.0491 246.8013,269.0491 Q247.4263,269.0491 248.02,268.7834 Q248.6138,268.5022 249.2388,267.9241 L249.2388,270.6428 Z " fill="#000000"/><text fill="#000000" font-family="Verdana" font-size="12" font-style="italic" lengthAdjust="spacing" textLength="79.0313" x="303.4892" y="261.008">&#171;Repository&#187;</text><text fill="#000000" font-family="Verdana" font-size="14" lengthAdjust="spacing" textLength="169.4697" x="258.27" y="276.8332">AreaPesquisaRepository</text><line style="stroke:#000000;stroke-width:1;" x1="234.27" x2="429.7397" y1="285.135" y2="285.135"/><line style="stroke:#000000;stroke-width:1;" x1="234.27" x2="429.7397" y1="293.135" y2="293.135"/></g><!--class ProgramaRepository--><g class="entity" data-entity="ProgramaRepository" data-source-line="32" data-uid="ent0024" id="entity_ProgramaRepository"><rect fill="#FFFFFF" height="56.2656" rx="2.5" ry="2.5" style="stroke:#000000;stroke-width:1;" width="171.2744" x="27.36" y="244.8694"/><ellipse cx="40.36" cy="265.0022" fill="#FFFFFF" rx="9" ry="9" style="stroke:#000000;stroke-width:1;"/><path d="M43.3288,270.6428 Q42.7506,270.9397 42.11,271.0803 Q41.4694,271.2366 40.7663,271.2366 Q38.2663,271.2366 36.9381,269.5959 Q35.6256,267.9397 35.6256,264.8147 Q35.6256,261.6897 36.9381,260.0334 Q38.2663,258.3772 40.7663,258.3772 Q41.4694,258.3772 42.11,258.5334 Q42.7663,258.6897 43.3288,258.9866 L43.3288,261.7053 Q42.7038,261.1272 42.11,260.8616 Q41.5163,260.5803 40.8913,260.5803 Q39.5475,260.5803 38.86,261.6584 Q38.1725,262.7209 38.1725,264.8147 Q38.1725,266.9084 38.86,267.9866 Q39.5475,269.0491 40.8913,269.0491 Q41.5163,269.0491 42.11,268.7834 Q42.7038,268.5022 43.3288,267.9241 L43.3288,270.6428 Z " fill="#000000"/><text fill="#000000" font-family="Verdana" font-size="12" font-style="italic" lengthAdjust="spacing" textLength="79.0313" x="84.4816" y="261.008">&#171;Repository&#187;</text><text fill="#000000" font-family="Verdana" font-size="14" lengthAdjust="spacing" textLength="143.2744" x="52.36" y="276.8332">ProgramaRepository</text><line style="stroke:#000000;stroke-width:1;" x1="28.36" x2="197.6344" y1="285.135" y2="285.135"/><line style="stroke:#000000;stroke-width:1;" x1="28.36" x2="197.6344" y1="293.135" y2="293.135"/></g><!--class UsuarioRepository--><g class="entity" data-entity="UsuarioRepository" data-source-line="33" data-uid="ent0025" id="entity_UsuarioRepository"><rect fill="#FFFFFF" height="56.2656" rx="2.5" ry="2.5" style="stroke:#000000;stroke-width:1;" width="156.2764" x="652.86" y="244.8694"/><ellipse cx="665.86" cy="265.0022" fill="#FFFFFF" rx="9" ry="9" style="stroke:#000000;stroke-width:1;"/><path d="M668.8288,270.6428 Q668.2506,270.9397 667.61,271.0803 Q666.9694,271.2366 666.2663,271.2366 Q663.7663,271.2366 662.4381,269.5959 Q661.1256,267.9397 661.1256,264.8147 Q661.1256,261.6897 662.4381,260.0334 Q663.7663,258.3772 666.2663,258.3772 Q666.9694,258.3772 667.61,258.5334 Q668.2663,258.6897 668.8288,258.9866 L668.8288,261.7053 Q668.2038,261.1272 667.61,260.8616 Q667.0163,260.5803 666.3913,260.5803 Q665.0475,260.5803 664.36,261.6584 Q663.6725,262.7209 663.6725,264.8147 Q663.6725,266.9084 664.36,267.9866 Q665.0475,269.0491 666.3913,269.0491 Q667.0163,269.0491 667.61,268.7834 Q668.2038,268.5022 668.8288,267.9241 L668.8288,270.6428 Z " fill="#000000"/><text fill="#000000" font-family="Verdana" font-size="12" font-style="italic" lengthAdjust="spacing" textLength="79.0313" x="702.4826" y="261.008">&#171;Repository&#187;</text><text fill="#000000" font-family="Verdana" font-size="14" lengthAdjust="spacing" textLength="128.2764" x="677.86" y="276.8332">UsuarioRepository</text><line style="stroke:#000000;stroke-width:1;" x1="653.86" x2="808.1364" y1="285.135" y2="285.135"/><line style="stroke:#000000;stroke-width:1;" x1="653.86" x2="808.1364" y1="293.135" y2="293.135"/></g><!--class VeiculoPublicacaoRepository--><g class="entity" data-entity="VeiculoPublicacaoRepository" data-source-line="34" data-uid="ent0026" id="entity_VeiculoPublicacaoRepository"><rect fill="#FFFFFF" height="56.2656" rx="2.5" ry="2.5" style="stroke:#000000;stroke-width:1;" width="229.2773" x="844.36" y="244.8694"/><ellipse cx="857.36" cy="265.0022" fill="#FFFFFF" rx="9" ry="9" style="stroke:#000000;stroke-width:1;"/><path d="M860.3288,270.6428 Q859.7506,270.9397 859.11,271.0803 Q858.4694,271.2366 857.7663,271.2366 Q855.2663,271.2366 853.9381,269.5959 Q852.6256,267.9397 852.6256,264.8147 Q852.6256,261.6897 853.9381,260.0334 Q855.2663,258.3772 857.7663,258.3772 Q858.4694,258.3772 859.11,258.5334 Q859.7663,258.6897 860.3288,258.9866 L860.3288,261.7053 Q859.7038,261.1272 859.11,260.8616 Q858.5163,260.5803 857.8913,260.5803 Q856.5475,260.5803 855.86,261.6584 Q855.1725,262.7209 855.1725,264.8147 Q855.1725,266.9084 855.86,267.9866 Q856.5475,269.0491 857.8913,269.0491 Q858.5163,269.0491 859.11,268.7834 Q859.7038,268.5022 860.3288,267.9241 L860.3288,270.6428 Z " fill="#000000"/><text fill="#000000" font-family="Verdana" font-size="12" font-style="italic" lengthAdjust="spacing" textLength="79.0313" x="930.483" y="261.008">&#171;Repository&#187;</text><text fill="#000000" font-family="Verdana" font-size="14" lengthAdjust="spacing" textLength="201.2773" x="869.36" y="276.8332">VeiculoPublicacaoRepository</text><line style="stroke:#000000;stroke-width:1;" x1="845.36" x2="1072.6373" y1="285.135" y2="285.135"/><line style="stroke:#000000;stroke-width:1;" x1="845.36" x2="1072.6373" y1="293.135" y2="293.135"/></g><!--class EventoRepository--><g class="entity" data-entity="EventoRepository" data-source-line="35" data-uid="ent0027" id="entity_EventoRepository"><rect fill="#FFFFFF" height="56.2656" rx="2.5" ry="2.5" style="stroke:#000000;stroke-width:1;" width="151.7441" x="466.13" y="244.8694"/><ellipse cx="479.13" cy="265.0022" fill="#FFFFFF" rx="9" ry="9" style="stroke:#000000;stroke-width:1;"/><path d="M482.0988,270.6428 Q481.5206,270.9397 480.88,271.0803 Q480.2394,271.2366 479.5363,271.2366 Q477.0363,271.2366 475.7081,269.5959 Q474.3956,267.9397 474.3956,264.8147 Q474.3956,261.6897 475.7081,260.0334 Q477.0363,258.3772 479.5363,258.3772 Q480.2394,258.3772 480.88,258.5334 Q481.5363,258.6897 482.0988,258.9866 L482.0988,261.7053 Q481.4738,261.1272 480.88,260.8616 Q480.2863,260.5803 479.6613,260.5803 Q478.3175,260.5803 477.63,261.6584 Q476.9425,262.7209 476.9425,264.8147 Q476.9425,266.9084 477.63,267.9866 Q478.3175,269.0491 479.6613,269.0491 Q480.2863,269.0491 480.88,268.7834 Q481.4738,268.5022 482.0988,267.9241 L482.0988,270.6428 Z " fill="#000000"/><text fill="#000000" font-family="Verdana" font-size="12" font-style="italic" lengthAdjust="spacing" textLength="79.0313" x="513.4864" y="261.008">&#171;Repository&#187;</text><text fill="#000000" font-family="Verdana" font-size="14" lengthAdjust="spacing" textLength="123.7441" x="491.13" y="276.8332">EventoRepository</text><line style="stroke:#000000;stroke-width:1;" x1="467.13" x2="616.8741" y1="285.135" y2="285.135"/><line style="stroke:#000000;stroke-width:1;" x1="467.13" x2="616.8741" y1="293.135" y2="293.135"/></g><!--class AreaPesquisaDTO--><g class="entity" data-entity="AreaPesquisaDTO" data-source-line="39" data-uid="ent0029" id="entity_AreaPesquisaDTO"><rect fill="#FFFFFF" height="44" rx="2.5" ry="2.5" style="stroke:#000000;stroke-width:1;" width="152.749" x="1291.63" y="251.0094"/><ellipse cx="1304.63" cy="265.0094" fill="#FFFFFF" rx="9" ry="9" style="stroke:#000000;stroke-width:1;"/><path d="M1307.5988,270.65 Q1307.0206,270.9469 1306.38,271.0875 Q1305.7394,271.2438 1305.0363,271.2438 Q1302.5363,271.2438 1301.2081,269.6031 Q1299.8956,267.9469 1299.8956,264.8219 Q1299.8956,261.6969 1301.2081,260.0406 Q1302.5363,258.3844 1305.0363,258.3844 Q1305.7394,258.3844 1306.38,258.5406 Q1307.0363,258.6969 1307.5988,258.9938 L1307.5988,261.7125 Q1306.9738,261.1344 1306.38,260.8688 Q1305.7863,260.5875 1305.1613,260.5875 Q1303.8175,260.5875 1303.13,261.6656 Q1302.4425,262.7281 1302.4425,264.8219 Q1302.4425,266.9156 1303.13,267.9938 Q1303.8175,269.0563 1305.1613,269.0563 Q1305.7863,269.0563 1306.38,268.7906 Q1306.9738,268.5094 1307.5988,267.9313 L1307.5988,270.65 Z " fill="#000000"/><text fill="#000000" font-family="Verdana" font-size="14" lengthAdjust="spacing" textLength="124.749" x="1316.63" y="269.8561">AreaPesquisaDTO</text><line style="stroke:#000000;stroke-width:1;" x1="1292.63" x2="1443.379" y1="279.0094" y2="279.0094"/><line style="stroke:#000000;stroke-width:1;" x1="1292.63" x2="1443.379" y1="287.0094" y2="287.0094"/></g><!--class ProgramaDTO--><g class="entity" data-entity="ProgramaDTO" data-source-line="40" data-uid="ent0030" id="entity_ProgramaDTO"><rect fill="#FFFFFF" height="44" rx="2.5" ry="2.5" style="stroke:#000000;stroke-width:1;" width="126.5537" x="1129.72" y="251.0094"/><ellipse cx="1142.72" cy="265.0094" fill="#FFFFFF" rx="9" ry="9" style="stroke:#000000;stroke-width:1;"/><path d="M1145.6888,270.65 Q1145.1106,270.9469 1144.47,271.0875 Q1143.8294,271.2438 1143.1263,271.2438 Q1140.6263,271.2438 1139.2981,269.6031 Q1137.9856,267.9469 1137.9856,264.8219 Q1137.9856,261.6969 1139.2981,260.0406 Q1140.6263,258.3844 1143.1263,258.3844 Q1143.8294,258.3844 1144.47,258.5406 Q1145.1263,258.6969 1145.6888,258.9938 L1145.6888,261.7125 Q1145.0638,261.1344 1144.47,260.8688 Q1143.8763,260.5875 1143.2513,260.5875 Q1141.9075,260.5875 1141.22,261.6656 Q1140.5325,262.7281 1140.5325,264.8219 Q1140.5325,266.9156 1141.22,267.9938 Q1141.9075,269.0563 1143.2513,269.0563 Q1143.8763,269.0563 1144.47,268.7906 Q1145.0638,268.5094 1145.6888,267.9313 L1145.6888,270.65 Z " fill="#000000"/><text fill="#000000" font-family="Verdana" font-size="14" lengthAdjust="spacing" textLength="98.5537" x="1154.72" y="269.8561">ProgramaDTO</text><line style="stroke:#000000;stroke-width:1;" x1="1130.72" x2="1255.2737" y1="279.0094" y2="279.0094"/><line style="stroke:#000000;stroke-width:1;" x1="1130.72" x2="1255.2737" y1="287.0094" y2="287.0094"/></g><!--class EventoCreateDTO--><g class="entity" data-entity="EventoCreateDTO" data-source-line="41" data-uid="ent0031" id="entity_EventoCreateDTO"><rect fill="#FFFFFF" height="44" rx="2.5" ry="2.5" style="stroke:#000000;stroke-width:1;" width="153.8496" x="2559.08" y="251.0094"/><ellipse cx="2572.08" cy="265.0094" fill="#FFFFFF" rx="9" ry="9" style="stroke:#000000;stroke-width:1;"/><path d="M2575.0488,270.65 Q2574.4706,270.9469 2573.83,271.0875 Q2573.1894,271.2438 2572.4863,271.2438 Q2569.9863,271.2438 2568.6581,269.6031 Q2567.3456,267.9469 2567.3456,264.8219 Q2567.3456,261.6969 2568.6581,260.0406 Q2569.9863,258.3844 2572.4863,258.3844 Q2573.1894,258.3844 2573.83,258.5406 Q2574.4863,258.6969 2575.0488,258.9938 L2575.0488,261.7125 Q2574.4238,261.1344 2573.83,260.8688 Q2573.2363,260.5875 2572.6113,260.5875 Q2571.2675,260.5875 2570.58,261.6656 Q2569.8925,262.7281 2569.8925,264.8219 Q2569.8925,266.9156 2570.58,267.9938 Q2571.2675,269.0563 2572.6113,269.0563 Q2573.2363,269.0563 2573.83,268.7906 Q2574.4238,268.5094 2575.0488,267.9313 L2575.0488,270.65 Z " fill="#000000"/><text fill="#000000" font-family="Verdana" font-size="14" lengthAdjust="spacing" textLength="125.8496" x="2584.08" y="269.8561">EventoCreateDTO</text><line style="stroke:#000000;stroke-width:1;" x1="2560.08" x2="2711.9296" y1="279.0094" y2="279.0094"/><line style="stroke:#000000;stroke-width:1;" x1="2560.08" x2="2711.9296" y1="287.0094" y2="287.0094"/></g><!--class EventoResponseDTO--><g class="entity" data-entity="EventoResponseDTO" data-source-line="42" data-uid="ent0032" id="entity_EventoResponseDTO"><rect fill="#FFFFFF" height="44" rx="2.5" ry="2.5" style="stroke:#000000;stroke-width:1;" width="174.8906" x="2117.55" y="251.0094"/><ellipse cx="2130.55" cy="265.0094" fill="#FFFFFF" rx="9" ry="9" style="stroke:#000000;stroke-width:1;"/><path d="M2133.5188,270.65 Q2132.9406,270.9469 2132.3,271.0875 Q2131.6594,271.2438 2130.9563,271.2438 Q2128.4563,271.2438 2127.1281,269.6031 Q2125.8156,267.9469 2125.8156,264.8219 Q2125.8156,261.6969 2127.1281,260.0406 Q2128.4563,258.3844 2130.9563,258.3844 Q2131.6594,258.3844 2132.3,258.5406 Q2132.9563,258.6969 2133.5188,258.9938 L2133.5188,261.7125 Q2132.8938,261.1344 2132.3,260.8688 Q2131.7063,260.5875 2131.0813,260.5875 Q2129.7375,260.5875 2129.05,261.6656 Q2128.3625,262.7281 2128.3625,264.8219 Q2128.3625,266.9156 2129.05,267.9938 Q2129.7375,269.0563 2131.0813,269.0563 Q2131.7063,269.0563 2132.3,268.7906 Q2132.8938,268.5094 2133.5188,267.9313 L2133.5188,270.65 Z " fill="#000000"/><text fill="#000000" font-family="Verdana" font-size="14" lengthAdjust="spacing" textLength="146.8906" x="2142.55" y="269.8561">EventoResponseDTO</text><line style="stroke:#000000;stroke-width:1;" x1="2118.55" x2="2291.4406" y1="279.0094" y2="279.0094"/><line style="stroke:#000000;stroke-width:1;" x1="2118.55" x2="2291.4406" y1="287.0094" y2="287.0094"/></g><!--class EventoVisualizacaoDTO--><g class="entity" data-entity="EventoVisualizacaoDTO" data-source-line="43" data-uid="ent0033" id="entity_EventoVisualizacaoDTO"><rect fill="#FFFFFF" height="44" rx="2.5" ry="2.5" style="stroke:#000000;stroke-width:1;" width="193.7852" x="2748.11" y="251.0094"/><ellipse cx="2761.11" cy="265.0094" fill="#FFFFFF" rx="9" ry="9" style="stroke:#000000;stroke-width:1;"/><path d="M2764.0788,270.65 Q2763.5006,270.9469 2762.86,271.0875 Q2762.2194,271.2438 2761.5163,271.2438 Q2759.0163,271.2438 2757.6881,269.6031 Q2756.3756,267.9469 2756.3756,264.8219 Q2756.3756,261.6969 2757.6881,260.0406 Q2759.0163,258.3844 2761.5163,258.3844 Q2762.2194,258.3844 2762.86,258.5406 Q2763.5163,258.6969 2764.0788,258.9938 L2764.0788,261.7125 Q2763.4538,261.1344 2762.86,260.8688 Q2762.2663,260.5875 2761.6413,260.5875 Q2760.2975,260.5875 2759.61,261.6656 Q2758.9225,262.7281 2758.9225,264.8219 Q2758.9225,266.9156 2759.61,267.9938 Q2760.2975,269.0563 2761.6413,269.0563 Q2762.2663,269.0563 2762.86,268.7906 Q2763.4538,268.5094 2764.0788,267.9313 L2764.0788,270.65 Z " fill="#000000"/><text fill="#000000" font-family="Verdana" font-size="14" lengthAdjust="spacing" textLength="165.7852" x="2773.11" y="269.8561">EventoVisualizacaoDTO</text><line style="stroke:#000000;stroke-width:1;" x1="2749.11" x2="2940.8952" y1="279.0094" y2="279.0094"/><line style="stroke:#000000;stroke-width:1;" x1="2749.11" x2="2940.8952" y1="287.0094" y2="287.0094"/></g><!--class EventoResumoListaDTO--><g class="entity" data-entity="EventoResumoListaDTO" data-source-line="44" data-uid="ent0034" id="entity_EventoResumoListaDTO"><rect fill="#FFFFFF" height="44" rx="2.5" ry="2.5" style="stroke:#000000;stroke-width:1;" width="196.7861" x="2327.61" y="251.0094"/><ellipse cx="2340.61" cy="265.0094" fill="#FFFFFF" rx="9" ry="9" style="stroke:#000000;stroke-width:1;"/><path d="M2343.5788,270.65 Q2343.0006,270.9469 2342.36,271.0875 Q2341.7194,271.2438 2341.0163,271.2438 Q2338.5163,271.2438 2337.1881,269.6031 Q2335.8756,267.9469 2335.8756,264.8219 Q2335.8756,261.6969 2337.1881,260.0406 Q2338.5163,258.3844 2341.0163,258.3844 Q2341.7194,258.3844 2342.36,258.5406 Q2343.0163,258.6969 2343.5788,258.9938 L2343.5788,261.7125 Q2342.9538,261.1344 2342.36,260.8688 Q2341.7663,260.5875 2341.1413,260.5875 Q2339.7975,260.5875 2339.11,261.6656 Q2338.4225,262.7281 2338.4225,264.8219 Q2338.4225,266.9156 2339.11,267.9938 Q2339.7975,269.0563 2341.1413,269.0563 Q2341.7663,269.0563 2342.36,268.7906 Q2342.9538,268.5094 2343.5788,267.9313 L2343.5788,270.65 Z " fill="#000000"/><text fill="#000000" font-family="Verdana" font-size="14" lengthAdjust="spacing" textLength="168.7861" x="2352.61" y="269.8561">EventoResumoListaDTO</text><line style="stroke:#000000;stroke-width:1;" x1="2328.61" x2="2523.3961" y1="279.0094" y2="279.0094"/><line style="stroke:#000000;stroke-width:1;" x1="2328.61" x2="2523.3961" y1="287.0094" y2="287.0094"/></g><!--class PeriodicoRequestDTO--><g class="entity" data-entity="PeriodicoRequestDTO" data-source-line="45" data-uid="ent0035" id="entity_PeriodicoRequestDTO"><rect fill="#FFFFFF" height="44" rx="2.5" ry="2.5" style="stroke:#000000;stroke-width:1;" width="180.1543" x="4559.92" y="251.0094"/><ellipse cx="4572.92" cy="265.0094" fill="#FFFFFF" rx="9" ry="9" style="stroke:#000000;stroke-width:1;"/><path d="M4575.8888,270.65 Q4575.3106,270.9469 4574.67,271.0875 Q4574.0294,271.2438 4573.3263,271.2438 Q4570.8263,271.2438 4569.4981,269.6031 Q4568.1856,267.9469 4568.1856,264.8219 Q4568.1856,261.6969 4569.4981,260.0406 Q4570.8263,258.3844 4573.3263,258.3844 Q4574.0294,258.3844 4574.67,258.5406 Q4575.3263,258.6969 4575.8888,258.9938 L4575.8888,261.7125 Q4575.2638,261.1344 4574.67,260.8688 Q4574.0763,260.5875 4573.4513,260.5875 Q4572.1075,260.5875 4571.42,261.6656 Q4570.7325,262.7281 4570.7325,264.8219 Q4570.7325,266.9156 4571.42,267.9938 Q4572.1075,269.0563 4573.4513,269.0563 Q4574.0763,269.0563 4574.67,268.7906 Q4575.2638,268.5094 4575.8888,267.9313 L4575.8888,270.65 Z " fill="#000000"/><text fill="#000000" font-family="Verdana" font-size="14" lengthAdjust="spacing" textLength="152.1543" x="4584.92" y="269.8561">PeriodicoRequestDTO</text><line style="stroke:#000000;stroke-width:1;" x1="4560.92" x2="4739.0743" y1="279.0094" y2="279.0094"/><line style="stroke:#000000;stroke-width:1;" x1="4560.92" x2="4739.0743" y1="287.0094" y2="287.0094"/></g><!--class PeriodicoResponseDTO--><g class="entity" data-entity="PeriodicoResponseDTO" data-source-line="46" data-uid="ent0036" id="entity_PeriodicoResponseDTO"><rect fill="#FFFFFF" height="44" rx="2.5" ry="2.5" style="stroke:#000000;stroke-width:1;" width="190.5244" x="3842.74" y="251.0094"/><ellipse cx="3855.74" cy="265.0094" fill="#FFFFFF" rx="9" ry="9" style="stroke:#000000;stroke-width:1;"/><path d="M3858.7088,270.65 Q3858.1306,270.9469 3857.49,271.0875 Q3856.8494,271.2438 3856.1463,271.2438 Q3853.6463,271.2438 3852.3181,269.6031 Q3851.0056,267.9469 3851.0056,264.8219 Q3851.0056,261.6969 3852.3181,260.0406 Q3853.6463,258.3844 3856.1463,258.3844 Q3856.8494,258.3844 3857.49,258.5406 Q3858.1463,258.6969 3858.7088,258.9938 L3858.7088,261.7125 Q3858.0838,261.1344 3857.49,260.8688 Q3856.8963,260.5875 3856.2713,260.5875 Q3854.9275,260.5875 3854.24,261.6656 Q3853.5525,262.7281 3853.5525,264.8219 Q3853.5525,266.9156 3854.24,267.9938 Q3854.9275,269.0563 3856.2713,269.0563 Q3856.8963,269.0563 3857.49,268.7906 Q3858.0838,268.5094 3858.7088,267.9313 L3858.7088,270.65 Z " fill="#000000"/><text fill="#000000" font-family="Verdana" font-size="14" lengthAdjust="spacing" textLength="162.5244" x="3867.74" y="269.8561">PeriodicoResponseDTO</text><line style="stroke:#000000;stroke-width:1;" x1="3843.74" x2="4032.2644" y1="279.0094" y2="279.0094"/><line style="stroke:#000000;stroke-width:1;" x1="3843.74" x2="4032.2644" y1="287.0094" y2="287.0094"/></g><!--class PeriodicoVisualizacaoDTO--><g class="entity" data-entity="PeriodicoVisualizacaoDTO" data-source-line="47" data-uid="ent0037" id="entity_PeriodicoVisualizacaoDTO"><rect fill="#FFFFFF" height="44" rx="2.5" ry="2.5" style="stroke:#000000;stroke-width:1;" width="209.4189" x="4068.29" y="251.0094"/><ellipse cx="4081.29" cy="265.0094" fill="#FFFFFF" rx="9" ry="9" style="stroke:#000000;stroke-width:1;"/><path d="M4084.2588,270.65 Q4083.6806,270.9469 4083.04,271.0875 Q4082.3994,271.2438 4081.6963,271.2438 Q4079.1963,271.2438 4077.8681,269.6031 Q4076.5556,267.9469 4076.5556,264.8219 Q4076.5556,261.6969 4077.8681,260.0406 Q4079.1963,258.3844 4081.6963,258.3844 Q4082.3994,258.3844 4083.04,258.5406 Q4083.6963,258.6969 4084.2588,258.9938 L4084.2588,261.7125 Q4083.6338,261.1344 4083.04,260.8688 Q4082.4463,260.5875 4081.8213,260.5875 Q4080.4775,260.5875 4079.79,261.6656 Q4079.1025,262.7281 4079.1025,264.8219 Q4079.1025,266.9156 4079.79,267.9938 Q4080.4775,269.0563 4081.8213,269.0563 Q4082.4463,269.0563 4083.04,268.7906 Q4083.6338,268.5094 4084.2588,267.9313 L4084.2588,270.65 Z " fill="#000000"/><text fill="#000000" font-family="Verdana" font-size="14" lengthAdjust="spacing" textLength="181.4189" x="4093.29" y="269.8561">PeriodicoVisualizacaoDTO</text><line style="stroke:#000000;stroke-width:1;" x1="4069.29" x2="4276.7089" y1="279.0094" y2="279.0094"/><line style="stroke:#000000;stroke-width:1;" x1="4069.29" x2="4276.7089" y1="287.0094" y2="287.0094"/></g><!--class PeriodicoResumoListaDTO--><g class="entity" data-entity="PeriodicoResumoListaDTO" data-source-line="48" data-uid="ent0038" id="entity_PeriodicoResumoListaDTO"><rect fill="#FFFFFF" height="44" rx="2.5" ry="2.5" style="stroke:#000000;stroke-width:1;" width="212.4199" x="4312.79" y="251.0094"/><ellipse cx="4325.79" cy="265.0094" fill="#FFFFFF" rx="9" ry="9" style="stroke:#000000;stroke-width:1;"/><path d="M4328.7588,270.65 Q4328.1806,270.9469 4327.54,271.0875 Q4326.8994,271.2438 4326.1963,271.2438 Q4323.6963,271.2438 4322.3681,269.6031 Q4321.0556,267.9469 4321.0556,264.8219 Q4321.0556,261.6969 4322.3681,260.0406 Q4323.6963,258.3844 4326.1963,258.3844 Q4326.8994,258.3844 4327.54,258.5406 Q4328.1963,258.6969 4328.7588,258.9938 L4328.7588,261.7125 Q4328.1338,261.1344 4327.54,260.8688 Q4326.9463,260.5875 4326.3213,260.5875 Q4324.9775,260.5875 4324.29,261.6656 Q4323.6025,262.7281 4323.6025,264.8219 Q4323.6025,266.9156 4324.29,267.9938 Q4324.9775,269.0563 4326.3213,269.0563 Q4326.9463,269.0563 4327.54,268.7906 Q4328.1338,268.5094 4328.7588,267.9313 L4328.7588,270.65 Z " fill="#000000"/><text fill="#000000" font-family="Verdana" font-size="14" lengthAdjust="spacing" textLength="184.4199" x="4337.79" y="269.8561">PeriodicoResumoListaDTO</text><line style="stroke:#000000;stroke-width:1;" x1="4313.79" x2="4524.2099" y1="279.0094" y2="279.0094"/><line style="stroke:#000000;stroke-width:1;" x1="4313.79" x2="4524.2099" y1="287.0094" y2="287.0094"/></g><!--class ClassificacaoPeriodicoRequestDTO--><g class="entity" data-entity="ClassificacaoPeriodicoRequestDTO" data-source-line="49" data-uid="ent0039" id="entity_ClassificacaoPeriodicoRequestDTO"><rect fill="#FFFFFF" height="44" rx="2.5" ry="2.5" style="stroke:#000000;stroke-width:1;" width="270.8125" x="2976.59" y="251.0094"/><ellipse cx="2989.59" cy="265.0094" fill="#FFFFFF" rx="9" ry="9" style="stroke:#000000;stroke-width:1;"/><path d="M2992.5588,270.65 Q2991.9806,270.9469 2991.34,271.0875 Q2990.6994,271.2438 2989.9963,271.2438 Q2987.4963,271.2438 2986.1681,269.6031 Q2984.8556,267.9469 2984.8556,264.8219 Q2984.8556,261.6969 2986.1681,260.0406 Q2987.4963,258.3844 2989.9963,258.3844 Q2990.6994,258.3844 2991.34,258.5406 Q2991.9963,258.6969 2992.5588,258.9938 L2992.5588,261.7125 Q2991.9338,261.1344 2991.34,260.8688 Q2990.7463,260.5875 2990.1213,260.5875 Q2988.7775,260.5875 2988.09,261.6656 Q2987.4025,262.7281 2987.4025,264.8219 Q2987.4025,266.9156 2988.09,267.9938 Q2988.7775,269.0563 2990.1213,269.0563 Q2990.7463,269.0563 2991.34,268.7906 Q2991.9338,268.5094 2992.5588,267.9313 L2992.5588,270.65 Z " fill="#000000"/><text fill="#000000" font-family="Verdana" font-size="14" lengthAdjust="spacing" textLength="242.8125" x="3001.59" y="269.8561">ClassificacaoPeriodicoRequestDTO</text><line style="stroke:#000000;stroke-width:1;" x1="2977.59" x2="3246.4025" y1="279.0094" y2="279.0094"/><line style="stroke:#000000;stroke-width:1;" x1="2977.59" x2="3246.4025" y1="287.0094" y2="287.0094"/></g><!--class UsuarioRequestDTO--><g class="entity" data-entity="UsuarioRequestDTO" data-source-line="50" data-uid="ent0040" id="entity_UsuarioRequestDTO"><rect fill="#FFFFFF" height="44" rx="2.5" ry="2.5" style="stroke:#000000;stroke-width:1;" width="169.0527" x="1699.47" y="251.0094"/><ellipse cx="1712.47" cy="265.0094" fill="#FFFFFF" rx="9" ry="9" style="stroke:#000000;stroke-width:1;"/><path d="M1715.4388,270.65 Q1714.8606,270.9469 1714.22,271.0875 Q1713.5794,271.2438 1712.8763,271.2438 Q1710.3763,271.2438 1709.0481,269.6031 Q1707.7356,267.9469 1707.7356,264.8219 Q1707.7356,261.6969 1709.0481,260.0406 Q1710.3763,258.3844 1712.8763,258.3844 Q1713.5794,258.3844 1714.22,258.5406 Q1714.8763,258.6969 1715.4388,258.9938 L1715.4388,261.7125 Q1714.8138,261.1344 1714.22,260.8688 Q1713.6263,260.5875 1713.0013,260.5875 Q1711.6575,260.5875 1710.97,261.6656 Q1710.2825,262.7281 1710.2825,264.8219 Q1710.2825,266.9156 1710.97,267.9938 Q1711.6575,269.0563 1713.0013,269.0563 Q1713.6263,269.0563 1714.22,268.7906 Q1714.8138,268.5094 1715.4388,267.9313 L1715.4388,270.65 Z " fill="#000000"/><text fill="#000000" font-family="Verdana" font-size="14" lengthAdjust="spacing" textLength="141.0527" x="1724.47" y="269.8561">UsuarioRequestDTO</text><line style="stroke:#000000;stroke-width:1;" x1="1700.47" x2="1867.5227" y1="279.0094" y2="279.0094"/><line style="stroke:#000000;stroke-width:1;" x1="1700.47" x2="1867.5227" y1="287.0094" y2="287.0094"/></g><!--class UsuarioResponseDTO--><g class="entity" data-entity="UsuarioResponseDTO" data-source-line="51" data-uid="ent0041" id="entity_UsuarioResponseDTO"><rect fill="#FFFFFF" height="44" rx="2.5" ry="2.5" style="stroke:#000000;stroke-width:1;" width="179.4229" x="1903.29" y="251.0094"/><ellipse cx="1916.29" cy="265.0094" fill="#FFFFFF" rx="9" ry="9" style="stroke:#000000;stroke-width:1;"/><path d="M1919.2588,270.65 Q1918.6806,270.9469 1918.04,271.0875 Q1917.3994,271.2438 1916.6963,271.2438 Q1914.1963,271.2438 1912.8681,269.6031 Q1911.5556,267.9469 1911.5556,264.8219 Q1911.5556,261.6969 1912.8681,260.0406 Q1914.1963,258.3844 1916.6963,258.3844 Q1917.3994,258.3844 1918.04,258.5406 Q1918.6963,258.6969 1919.2588,258.9938 L1919.2588,261.7125 Q1918.6338,261.1344 1918.04,260.8688 Q1917.4463,260.5875 1916.8213,260.5875 Q1915.4775,260.5875 1914.79,261.6656 Q1914.1025,262.7281 1914.1025,264.8219 Q1914.1025,266.9156 1914.79,267.9938 Q1915.4775,269.0563 1916.8213,269.0563 Q1917.4463,269.0563 1918.04,268.7906 Q1918.6338,268.5094 1919.2588,267.9313 L1919.2588,270.65 Z " fill="#000000"/><text fill="#000000" font-family="Verdana" font-size="14" lengthAdjust="spacing" textLength="151.4229" x="1928.29" y="269.8561">UsuarioResponseDTO</text><line style="stroke:#000000;stroke-width:1;" x1="1904.29" x2="2081.7129" y1="279.0094" y2="279.0094"/><line style="stroke:#000000;stroke-width:1;" x1="1904.29" x2="2081.7129" y1="287.0094" y2="287.0094"/></g><!--class LogVeiculoDTO--><g class="entity" data-entity="LogVeiculoDTO" data-source-line="52" data-uid="ent0042" id="entity_LogVeiculoDTO"><rect fill="#FFFFFF" height="44" rx="2.5" ry="2.5" style="stroke:#000000;stroke-width:1;" width="134.709" x="3282.65" y="251.0094"/><ellipse cx="3295.65" cy="265.0094" fill="#FFFFFF" rx="9" ry="9" style="stroke:#000000;stroke-width:1;"/><path d="M3298.6188,270.65 Q3298.0406,270.9469 3297.4,271.0875 Q3296.7594,271.2438 3296.0563,271.2438 Q3293.5563,271.2438 3292.2281,269.6031 Q3290.9156,267.9469 3290.9156,264.8219 Q3290.9156,261.6969 3292.2281,260.0406 Q3293.5563,258.3844 3296.0563,258.3844 Q3296.7594,258.3844 3297.4,258.5406 Q3298.0563,258.6969 3298.6188,258.9938 L3298.6188,261.7125 Q3297.9938,261.1344 3297.4,260.8688 Q3296.8063,260.5875 3296.1813,260.5875 Q3294.8375,260.5875 3294.15,261.6656 Q3293.4625,262.7281 3293.4625,264.8219 Q3293.4625,266.9156 3294.15,267.9938 Q3294.8375,269.0563 3296.1813,269.0563 Q3296.8063,269.0563 3297.4,268.7906 Q3297.9938,268.5094 3298.6188,267.9313 L3298.6188,270.65 Z " fill="#000000"/><text fill="#000000" font-family="Verdana" font-size="14" lengthAdjust="spacing" textLength="106.709" x="3307.65" y="269.8561">LogVeiculoDTO</text><line style="stroke:#000000;stroke-width:1;" x1="3283.65" x2="3416.359" y1="279.0094" y2="279.0094"/><line style="stroke:#000000;stroke-width:1;" x1="3283.65" x2="3416.359" y1="287.0094" y2="287.0094"/></g><!--class AcaoLogDTO--><g class="entity" data-entity="AcaoLogDTO" data-source-line="53" data-uid="ent0043" id="entity_AcaoLogDTO"><rect fill="#FFFFFF" height="44" rx="2.5" ry="2.5" style="stroke:#000000;stroke-width:1;" width="118.0225" x="3689.99" y="251.0094"/><ellipse cx="3702.99" cy="265.0094" fill="#FFFFFF" rx="9" ry="9" style="stroke:#000000;stroke-width:1;"/><path d="M3705.9588,270.65 Q3705.3806,270.9469 3704.74,271.0875 Q3704.0994,271.2438 3703.3963,271.2438 Q3700.8963,271.2438 3699.5681,269.6031 Q3698.2556,267.9469 3698.2556,264.8219 Q3698.2556,261.6969 3699.5681,260.0406 Q3700.8963,258.3844 3703.3963,258.3844 Q3704.0994,258.3844 3704.74,258.5406 Q3705.3963,258.6969 3705.9588,258.9938 L3705.9588,261.7125 Q3705.3338,261.1344 3704.74,260.8688 Q3704.1463,260.5875 3703.5213,260.5875 Q3702.1775,260.5875 3701.49,261.6656 Q3700.8025,262.7281 3700.8025,264.8219 Q3700.8025,266.9156 3701.49,267.9938 Q3702.1775,269.0563 3703.5213,269.0563 Q3704.1463,269.0563 3704.74,268.7906 Q3705.3338,268.5094 3705.9588,267.9313 L3705.9588,270.65 Z " fill="#000000"/><text fill="#000000" font-family="Verdana" font-size="14" lengthAdjust="spacing" textLength="90.0225" x="3714.99" y="269.8561">AcaoLogDTO</text><line style="stroke:#000000;stroke-width:1;" x1="3690.99" x2="3807.0125" y1="279.0094" y2="279.0094"/><line style="stroke:#000000;stroke-width:1;" x1="3690.99" x2="3807.0125" y1="287.0094" y2="287.0094"/></g><!--class FiltroVeiculoRequestDTO--><g class="entity" data-entity="FiltroVeiculoRequestDTO" data-source-line="54" data-uid="ent0044" id="entity_FiltroVeiculoRequestDTO"><rect fill="#FFFFFF" height="44" rx="2.5" ry="2.5" style="stroke:#000000;stroke-width:1;" width="202.5967" x="3452.7" y="251.0094"/><ellipse cx="3465.7" cy="265.0094" fill="#FFFFFF" rx="9" ry="9" style="stroke:#000000;stroke-width:1;"/><path d="M3468.6688,270.65 Q3468.0906,270.9469 3467.45,271.0875 Q3466.8094,271.2438 3466.1063,271.2438 Q3463.6063,271.2438 3462.2781,269.6031 Q3460.9656,267.9469 3460.9656,264.8219 Q3460.9656,261.6969 3462.2781,260.0406 Q3463.6063,258.3844 3466.1063,258.3844 Q3466.8094,258.3844 3467.45,258.5406 Q3468.1063,258.6969 3468.6688,258.9938 L3468.6688,261.7125 Q3468.0438,261.1344 3467.45,260.8688 Q3466.8563,260.5875 3466.2313,260.5875 Q3464.8875,260.5875 3464.2,261.6656 Q3463.5125,262.7281 3463.5125,264.8219 Q3463.5125,266.9156 3464.2,267.9938 Q3464.8875,269.0563 3466.2313,269.0563 Q3466.8563,269.0563 3467.45,268.7906 Q3468.0438,268.5094 3468.6688,267.9313 L3468.6688,270.65 Z " fill="#000000"/><text fill="#000000" font-family="Verdana" font-size="14" lengthAdjust="spacing" textLength="174.5967" x="3477.7" y="269.8561">FiltroVeiculoRequestDTO</text><line style="stroke:#000000;stroke-width:1;" x1="3453.7" x2="3654.2967" y1="279.0094" y2="279.0094"/><line style="stroke:#000000;stroke-width:1;" x1="3453.7" x2="3654.2967" y1="287.0094" y2="287.0094"/></g><!--class VeiculoPublicacaoDTO--><g class="entity" data-entity="VeiculoPublicacaoDTO" data-source-line="55" data-uid="ent0045" id="entity_VeiculoPublicacaoDTO"><rect fill="#FFFFFF" height="44" rx="2.5" ry="2.5" style="stroke:#000000;stroke-width:1;" width="184.5566" x="1479.72" y="251.0094"/><ellipse cx="1492.72" cy="265.0094" fill="#FFFFFF" rx="9" ry="9" style="stroke:#000000;stroke-width:1;"/><path d="M1495.6888,270.65 Q1495.1106,270.9469 1494.47,271.0875 Q1493.8294,271.2438 1493.1263,271.2438 Q1490.6263,271.2438 1489.2981,269.6031 Q1487.9856,267.9469 1487.9856,264.8219 Q1487.9856,261.6969 1489.2981,260.0406 Q1490.6263,258.3844 1493.1263,258.3844 Q1493.8294,258.3844 1494.47,258.5406 Q1495.1263,258.6969 1495.6888,258.9938 L1495.6888,261.7125 Q1495.0638,261.1344 1494.47,260.8688 Q1493.8763,260.5875 1493.2513,260.5875 Q1491.9075,260.5875 1491.22,261.6656 Q1490.5325,262.7281 1490.5325,264.8219 Q1490.5325,266.9156 1491.22,267.9938 Q1491.9075,269.0563 1493.2513,269.0563 Q1493.8763,269.0563 1494.47,268.7906 Q1495.0638,268.5094 1495.6888,267.9313 L1495.6888,270.65 Z " fill="#000000"/><text fill="#000000" font-family="Verdana" font-size="14" lengthAdjust="spacing" textLength="156.5566" x="1504.72" y="269.8561">VeiculoPublicacaoDTO</text><line style="stroke:#000000;stroke-width:1;" x1="1480.72" x2="1663.2766" y1="279.0094" y2="279.0094"/><line style="stroke:#000000;stroke-width:1;" x1="1480.72" x2="1663.2766" y1="287.0094" y2="287.0094"/></g><!--class TokenDTO--><g class="entity" data-entity="TokenDTO" data-source-line="56" data-uid="ent0046" id="entity_TokenDTO"><rect fill="#FFFFFF" height="44" rx="2.5" ry="2.5" style="stroke:#000000;stroke-width:1;" width="101.0625" x="4775.47" y="251.0094"/><ellipse cx="4788.47" cy="265.0094" fill="#FFFFFF" rx="9" ry="9" style="stroke:#000000;stroke-width:1;"/><path d="M4791.4388,270.65 Q4790.8606,270.9469 4790.22,271.0875 Q4789.5794,271.2438 4788.8763,271.2438 Q4786.3763,271.2438 4785.0481,269.6031 Q4783.7356,267.9469 4783.7356,264.8219 Q4783.7356,261.6969 4785.0481,260.0406 Q4786.3763,258.3844 4788.8763,258.3844 Q4789.5794,258.3844 4790.22,258.5406 Q4790.8763,258.6969 4791.4388,258.9938 L4791.4388,261.7125 Q4790.8138,261.1344 4790.22,260.8688 Q4789.6263,260.5875 4789.0013,260.5875 Q4787.6575,260.5875 4786.97,261.6656 Q4786.2825,262.7281 4786.2825,264.8219 Q4786.2825,266.9156 4786.97,267.9938 Q4787.6575,269.0563 4789.0013,269.0563 Q4789.6263,269.0563 4790.22,268.7906 Q4790.8138,268.5094 4791.4388,267.9313 L4791.4388,270.65 Z " fill="#000000"/><text fill="#000000" font-family="Verdana" font-size="14" lengthAdjust="spacing" textLength="73.0625" x="4800.47" y="269.8561">TokenDTO</text><line style="stroke:#000000;stroke-width:1;" x1="4776.47" x2="4875.5325" y1="279.0094" y2="279.0094"/><line style="stroke:#000000;stroke-width:1;" x1="4776.47" x2="4875.5325" y1="287.0094" y2="287.0094"/></g><!--link AreaPesquisaController to AreaPesquisaRepository--><g class="link" data-entity-1="AreaPesquisaController" data-entity-2="AreaPesquisaRepository" data-source-line="60" data-uid="lnk47" id="link_AreaPesquisaController_AreaPesquisaRepository"><path codeLine="60" d="M2378.94,154.3694 C2359.63,163.7694 2336.88,173.1094 2315,177.8694 C2264.36,188.9094 498.21,169.5994 449,185.8694 C413.8,197.5194 384.8216,220.0904 362.8016,240.6904" fill="none" id="AreaPesquisaController-to-AreaPesquisaRepository" style="stroke:#000000;stroke-width:1;"/><polygon fill="#000000" points="358.42,244.7894,367.725,241.5619,362.0713,241.3735,362.2597,235.7198,358.42,244.7894" style="stroke:#000000;stroke-width:1;"/></g><!--link ProgramaController to ProgramaRepository--><g class="link" data-entity-1="ProgramaController" data-entity-2="ProgramaRepository" data-source-line="61" data-uid="lnk48" id="link_ProgramaController_ProgramaRepository"><path codeLine="61" d="M2131.83,127.6794 C1765.13,132.0194 306.75,151.3994 216,185.8694 C184.18,197.9594 159.2595,219.8983 140.1895,240.2783" fill="none" id="ProgramaController-to-ProgramaRepository" style="stroke:#000000;stroke-width:1;"/><polygon fill="#000000" points="136.09,244.6594,145.16,240.8207,139.5062,241.0085,139.3185,235.3547,136.09,244.6594" style="stroke:#000000;stroke-width:1;"/></g><!--link UsuarioController to CriarUsuarioService--><g class="link" data-entity-1="UsuarioController" data-entity-2="CriarUsuarioService" data-source-line="62" data-uid="lnk49" id="link_UsuarioController_CriarUsuarioService"><path codeLine="62" d="M2856.8,154.3394 C2872.62,163.7394 2891.45,173.0794 2910,177.8694 C2939.85,185.5994 5101.09,175.1594 5130,185.8694 C5161.55,197.5594 5185.9283,219.4958 5204.5283,239.9958" fill="none" id="UsuarioController-to-CriarUsuarioService" style="stroke:#000000;stroke-width:1;"/><polygon fill="#000000" points="5208.56,244.4394,5205.4748,235.0862,5205.2002,240.7364,5199.55,240.4618,5208.56,244.4394" style="stroke:#000000;stroke-width:1;"/></g><!--link UsuarioController to UsuarioRepository--><g class="link" data-entity-1="UsuarioController" data-entity-2="UsuarioRepository" data-source-line="63" data-uid="lnk50" id="link_UsuarioController_UsuarioRepository"><path codeLine="63" d="M2777.66,154.3294 C2762.02,163.7294 2743.39,173.0694 2725,177.8694 C2673.99,191.2094 876.2,166.9194 827,185.8694 C796.49,197.6294 773.4592,219.4291 755.9392,239.9191" fill="none" id="UsuarioController-to-UsuarioRepository" style="stroke:#000000;stroke-width:1;"/><polygon fill="#000000" points="752.04,244.4794,760.929,240.2385,755.2894,240.6792,754.8487,235.0395,752.04,244.4794" style="stroke:#000000;stroke-width:1;"/></g><!--link EventoController to CriarEventoService--><g class="link" data-entity-1="EventoController" data-entity-2="CriarEventoService" data-source-line="64" data-uid="lnk51" id="link_EventoController_CriarEventoService"><path codeLine="64" d="M3038.87,154.3394 C3054.34,163.7294 3072.78,173.0694 3091,177.8694 C3124.11,186.5994 5523.95,173.8294 5556,185.8694 C5587.13,197.5794 5610.9814,219.4582 5629.1414,239.9582" fill="none" id="EventoController-to-CriarEventoService" style="stroke:#000000;stroke-width:1;"/><polygon fill="#000000" points="5633.12,244.4494,5630.1463,235.0602,5629.8045,240.7067,5624.158,240.3649,5633.12,244.4494" style="stroke:#000000;stroke-width:1;"/></g><!--link EventoController to EventoConsultaService--><g class="link" data-entity-1="EventoController" data-entity-2="EventoConsultaService" data-source-line="65" data-uid="lnk52" id="link_EventoController_EventoConsultaService"><path codeLine="65" d="M3038.87,154.3294 C3054.34,163.7294 3072.78,173.0694 3091,177.8694 C3151.19,193.7394 5273.1,165.7294 5332,185.8694 C5365.89,197.4594 5393.2656,219.6489 5414.2156,240.1889" fill="none" id="EventoController-to-EventoConsultaService" style="stroke:#000000;stroke-width:1;"/><polygon fill="#000000" points="5418.5,244.3894,5414.8738,235.2324,5414.9297,240.8889,5409.2731,240.9448,5418.5,244.3894" style="stroke:#000000;stroke-width:1;"/></g><!--link EventoController to UsuarioRepository--><g class="link" data-entity-1="EventoController" data-entity-2="UsuarioRepository" data-source-line="66" data-uid="lnk53" id="link_EventoController_UsuarioRepository"><path codeLine="66" d="M2961.59,154.3294 C2946.3,163.7194 2928.06,173.0694 2910,177.8694 C2882.04,185.3194 854,175.4794 827,185.8694 C796.49,197.6194 773.4603,219.4301 755.9403,239.9101" fill="none" id="EventoController-to-UsuarioRepository" style="stroke:#000000;stroke-width:1;"/><polygon fill="#000000" points="752.04,244.4694,760.9301,240.2306,755.2903,240.67,754.851,235.0302,752.04,244.4694" style="stroke:#000000;stroke-width:1;"/></g><!--link PeriodicoController to CriarPeriodicoService--><g class="link" data-entity-1="PeriodicoController" data-entity-2="CriarPeriodicoService" data-source-line="67" data-uid="lnk54" id="link_PeriodicoController_CriarPeriodicoService"><path codeLine="67" d="M3440.13,154.3594 C3456.82,163.7594 3476.62,173.0894 3496,177.8694 C3532.3,186.8294 6152.78,173.3094 6188,185.8694 C6220.61,197.5094 6246.348,219.558 6266.018,240.078" fill="none" id="PeriodicoController-to-CriarPeriodicoService" style="stroke:#000000;stroke-width:1;"/><polygon fill="#000000" points="6270.17,244.4094,6266.8296,235.1443,6266.71,240.7999,6261.0544,240.6803,6270.17,244.4094" style="stroke:#000000;stroke-width:1;"/></g><!--link PeriodicoController to PeriodicoConsultaService--><g class="link" data-entity-1="PeriodicoController" data-entity-2="PeriodicoConsultaService" data-source-line="68" data-uid="lnk55" id="link_PeriodicoController_PeriodicoConsultaService"><path codeLine="68" d="M3440.13,154.3594 C3456.82,163.7594 3476.62,173.0894 3496,177.8694 C3535.16,187.5294 6361.6,173.5394 6400,185.8694 C6436.09,197.4594 6466.1738,220.1216 6489.0438,240.7416" fill="none" id="PeriodicoController-to-PeriodicoConsultaService" style="stroke:#000000;stroke-width:1;"/><polygon fill="#000000" points="6493.5,244.7594,6489.4942,235.7619,6489.7865,241.4112,6484.1372,241.7035,6493.5,244.7594" style="stroke:#000000;stroke-width:1;"/></g><!--link PeriodicoController to ClassificarPeriodicoPredatorioService--><g class="link" data-entity-1="PeriodicoController" data-entity-2="ClassificarPeriodicoPredatorioService" data-source-line="69" data-uid="lnk56" id="link_PeriodicoController_ClassificarPeriodicoPredatorioService"><path codeLine="69" d="M3440.13,154.3594 C3456.81,163.7594 3476.62,173.0994 3496,177.8694 C3580.82,198.7894 6556.26,164.6294 6641,185.8694 C6686.26,197.2194 6727.7621,220.4999 6759.2621,241.1499" fill="none" id="PeriodicoController-to-ClassificarPeriodicoPredatorioService" style="stroke:#000000;stroke-width:1;"/><polygon fill="#000000" points="6764.28,244.4394,6758.9462,236.1599,6760.0984,241.6981,6754.5602,242.8504,6764.28,244.4394" style="stroke:#000000;stroke-width:1;"/></g><!--link PeriodicoController to UsuarioRepository--><g class="link" data-entity-1="PeriodicoController" data-entity-2="UsuarioRepository" data-source-line="70" data-uid="lnk57" id="link_PeriodicoController_UsuarioRepository"><path codeLine="70" d="M3355.41,154.3594 C3338.54,163.7594 3318.54,173.0894 3299,177.8694 C3265.65,186.0394 859.04,173.5494 827,185.8694 C796.49,197.6094 773.448,219.418 755.938,239.908" fill="none" id="PeriodicoController-to-UsuarioRepository" style="stroke:#000000;stroke-width:1;"/><polygon fill="#000000" points="752.04,244.4694,760.9278,240.226,755.2883,240.6683,754.846,235.0287,752.04,244.4694" style="stroke:#000000;stroke-width:1;"/></g><!--link PeriodicoController to VeiculoPublicacaoRepository--><g class="link" data-entity-1="PeriodicoController" data-entity-2="VeiculoPublicacaoRepository" data-source-line="71" data-uid="lnk58" id="link_PeriodicoController_VeiculoPublicacaoRepository"><path codeLine="71" d="M3355.41,154.3494 C3338.54,163.7494 3318.54,173.0894 3299,177.8694 C3240.05,192.3094 1172.73,170.5394 1114,185.8694 C1070.36,197.2694 1030.8557,220.4324 1000.8057,241.0724" fill="none" id="PeriodicoController-to-VeiculoPublicacaoRepository" style="stroke:#000000;stroke-width:1;"/><polygon fill="#000000" points="995.86,244.4694,1005.5433,242.671,999.9814,241.6385,1001.0139,236.0767,995.86,244.4694" style="stroke:#000000;stroke-width:1;"/></g><!--link LogVeiculoController to ListarLogVeiculoService--><g class="link" data-entity-1="LogVeiculoController" data-entity-2="ListarLogVeiculoService" data-source-line="72" data-uid="lnk59" id="link_LogVeiculoController_ListarLogVeiculoService"><path codeLine="72" d="M3240.37,154.3694 C3258.28,163.7694 3279.46,173.0994 3300,177.8694 C3333.2,185.5894 5721.68,175.0494 5754,185.8694 C5788.77,197.5194 5817.189,220.0474 5838.779,240.6474" fill="none" id="LogVeiculoController-to-ListarLogVeiculoService" style="stroke:#000000;stroke-width:1;"/><polygon fill="#000000" points="5843.12,244.7894,5839.3698,235.6825,5839.5025,241.3378,5833.8472,241.4705,5843.12,244.7894" style="stroke:#000000;stroke-width:1;"/></g><!--link LogVeiculoController to RegistrarLogService--><g class="link" data-entity-1="LogVeiculoController" data-entity-2="RegistrarLogService" data-source-line="73" data-uid="lnk60" id="link_LogVeiculoController_RegistrarLogService"><path codeLine="73" d="M3240.37,154.3694 C3258.28,163.7694 3279.46,173.1094 3300,177.8694 C3336.31,186.2994 5949.01,173.0194 5984,185.8694 C6015.76,197.5494 6040.4146,219.4974 6059.2246,240.0074" fill="none" id="LogVeiculoController-to-RegistrarLogService" style="stroke:#000000;stroke-width:1;"/><polygon fill="#000000" points="6063.28,244.4294,6060.1448,235.0929,6059.9005,240.7444,6054.2489,240.5001,6063.28,244.4294" style="stroke:#000000;stroke-width:1;"/></g><!--link LogVeiculoController to UsuarioRepository--><g class="link" data-entity-1="LogVeiculoController" data-entity-2="UsuarioRepository" data-source-line="74" data-uid="lnk61" id="link_LogVeiculoController_UsuarioRepository"><path codeLine="74" d="M3149.63,154.3694 C3131.72,163.7694 3110.54,173.0994 3090,177.8694 C3059.39,184.9894 856.33,174.5794 827,185.8694 C796.49,197.6194 773.4592,219.4191 755.9392,239.9091" fill="none" id="LogVeiculoController-to-UsuarioRepository" style="stroke:#000000;stroke-width:1;"/><polygon fill="#000000" points="752.04,244.4694,760.929,240.2285,755.2894,240.6692,754.8487,235.0295,752.04,244.4694" style="stroke:#000000;stroke-width:1;"/></g><!--link VeiculoController to AvaliarVeiculoService--><g class="link" data-entity-1="VeiculoController" data-entity-2="AvaliarVeiculoService" data-source-line="75" data-uid="lnk62" id="link_VeiculoController_AvaliarVeiculoService"><path codeLine="75" d="M2671.87,154.3294 C2687.34,163.7294 2705.78,173.0694 2724,177.8694 C2782.26,193.2394 4835.34,168.3894 4893,185.8694 C4930.96,197.3794 4963.4253,220.0947 4988.2153,240.6947" fill="none" id="VeiculoController-to-AvaliarVeiculoService" style="stroke:#000000;stroke-width:1;"/><polygon fill="#000000" points="4992.83,244.5294,4988.4645,235.7009,4988.9844,241.3338,4983.3515,241.8538,4992.83,244.5294" style="stroke:#000000;stroke-width:1;"/></g><!--link VeiculoController to UsuarioRepository--><g class="link" data-entity-1="VeiculoController" data-entity-2="UsuarioRepository" data-source-line="76" data-uid="lnk63" id="link_VeiculoController_UsuarioRepository"><path codeLine="76" d="M2593.66,154.3294 C2578.02,163.7194 2559.39,173.0594 2541,177.8694 C2494.94,189.9294 871.42,168.7494 827,185.8694 C796.5,197.6294 773.4591,219.439 755.9491,239.919" fill="none" id="VeiculoController-to-UsuarioRepository" style="stroke:#000000;stroke-width:1;"/><polygon fill="#000000" points="752.05,244.4794,760.9389,240.2381,755.2992,240.679,754.8583,235.0394,752.05,244.4794" style="stroke:#000000;stroke-width:1;"/></g><!--link VeiculoController to VeiculoPublicacaoRepository--><g class="link" data-entity-1="VeiculoController" data-entity-2="VeiculoPublicacaoRepository" data-source-line="77" data-uid="lnk64" id="link_VeiculoController_VeiculoPublicacaoRepository"><path codeLine="77" d="M2593.66,154.3194 C2578.01,163.7094 2559.38,173.0494 2541,177.8694 C2464.31,197.9794 1190.69,165.7694 1114,185.8694 C1070.37,197.3094 1030.8673,220.4746 1000.8173,241.0946" fill="none" id="VeiculoController-to-VeiculoPublicacaoRepository" style="stroke:#000000;stroke-width:1;"/><polygon fill="#000000" points="995.87,244.4894,1005.5541,242.6954,999.9927,241.6604,1001.0277,236.099,995.87,244.4894" style="stroke:#000000;stroke-width:1;"/></g><!--link VeiculoController to EventoRepository--><g class="link" data-entity-1="VeiculoController" data-entity-2="EventoRepository" data-source-line="78" data-uid="lnk65" id="link_VeiculoController_EventoRepository"><path codeLine="78" d="M2593.66,154.3294 C2578.02,163.7294 2559.39,173.0694 2541,177.8694 C2489.78,191.2694 684.25,166.4494 635,185.8694 C605.11,197.6594 582.8746,219.3881 566.0146,239.8581" fill="none" id="VeiculoController-to-EventoRepository" style="stroke:#000000;stroke-width:1;"/><polygon fill="#000000" points="562.2,244.4894,571.0094,240.0854,565.3788,240.6299,564.8343,234.9994,562.2,244.4894" style="stroke:#000000;stroke-width:1;"/></g><!--link AutorizacaoController to AutorizacaoServiceRsa--><g class="link" data-entity-1="AutorizacaoController" data-entity-2="AutorizacaoServiceRsa" data-source-line="79" data-uid="lnk66" id="link_AutorizacaoController_AutorizacaoServiceRsa"><path codeLine="79" d="M3694.37,126.7194 C4214.26,126.8094 6806.58,130.0594 6965,185.8694 C6998.59,197.7094 7025.6966,219.8477 7046.4566,240.3077" fill="none" id="AutorizacaoController-to-AutorizacaoServiceRsa" style="stroke:#000000;stroke-width:1;"/><polygon fill="#000000" points="7050.73,244.5194,7047.1277,235.353,7047.1688,241.0097,7041.5121,241.0508,7050.73,244.5194" style="stroke:#000000;stroke-width:1;"/></g><!--link AreaPesquisaController to AreaPesquisaDTO--><g class="link" data-entity-1="AreaPesquisaController" data-entity-2="AreaPesquisaDTO" data-source-line="82" data-uid="lnk67" id="link_AreaPesquisaController_AreaPesquisaDTO"><path codeLine="82" d="M2378.92,154.3094 C2359.62,163.7094 2336.87,173.0494 2315,177.8694 C2268.72,188.0794 1506.09,168.4894 1462,185.8694 C1428.85,198.9494 1403.9542,224.9431 1387.2642,245.9331" fill="none" id="AreaPesquisaController-to-AreaPesquisaDTO" style="stroke:#000000;stroke-width:1;stroke-dasharray:7,7;"/><polygon fill="#000000" points="1383.53,250.6294,1392.2622,246.0744,1386.6419,246.7158,1386.0005,241.0954,1383.53,250.6294" style="stroke:#000000;stroke-width:1;"/></g><!--link ProgramaController to ProgramaDTO--><g class="link" data-entity-1="ProgramaController" data-entity-2="ProgramaDTO" data-source-line="83" data-uid="lnk68" id="link_ProgramaController_ProgramaDTO"><path codeLine="83" d="M2132.03,128.4794 C1916.54,133.4794 1350.52,149.8994 1274,185.8694 C1244.28,199.8494 1223.4337,225.0309 1209.4537,245.6809" fill="none" id="ProgramaController-to-ProgramaDTO" style="stroke:#000000;stroke-width:1;stroke-dasharray:7,7;"/><polygon fill="#000000" points="1206.09,250.6494,1214.4478,245.4391,1208.893,246.509,1207.8232,240.9542,1206.09,250.6494" style="stroke:#000000;stroke-width:1;"/></g><!--link EventoController to EventoCreateDTO--><g class="link" data-entity-1="EventoController" data-entity-2="EventoCreateDTO" data-source-line="84" data-uid="lnk69" id="link_EventoController_EventoCreateDTO"><path codeLine="84" d="M2961.04,154.2094 C2945.83,163.4694 2927.79,172.7494 2910,177.8694 C2871.74,188.8994 2767.82,170.7194 2731,185.8694 C2697.86,199.5194 2672.6254,225.4223 2655.6454,246.2123" fill="none" id="EventoController-to-EventoCreateDTO" style="stroke:#000000;stroke-width:1;stroke-dasharray:7,7;"/><polygon fill="#000000" points="2651.85,250.8594,2660.6411,246.4191,2655.0128,246.9869,2654.4451,241.3586,2651.85,250.8594" style="stroke:#000000;stroke-width:1;"/></g><!--link EventoController to EventoResponseDTO--><g class="link" data-entity-1="EventoController" data-entity-2="EventoResponseDTO" data-source-line="85" data-uid="lnk70" id="link_EventoController_EventoResponseDTO"><path codeLine="85" d="M2961.57,154.2394 C2946.27,163.6194 2928.04,172.9794 2910,177.8694 C2877.83,186.6094 2341.31,174.4394 2310,185.8694 C2274.34,198.8994 2246.0459,225.1696 2226.9559,246.1696" fill="none" id="EventoController-to-EventoResponseDTO" style="stroke:#000000;stroke-width:1;stroke-dasharray:7,7;"/><polygon fill="#000000" points="2222.92,250.6094,2231.9337,246.6404,2226.2833,246.9096,2226.0141,241.2591,2222.92,250.6094" style="stroke:#000000;stroke-width:1;"/></g><!--link EventoController to EventoVisualizacaoDTO--><g class="link" data-entity-1="EventoController" data-entity-2="EventoVisualizacaoDTO" data-source-line="86" data-uid="lnk71" id="link_EventoController_EventoVisualizacaoDTO"><path codeLine="86" d="M2970.85,154.0594 C2940.85,182.1694 2899.1576,221.2461 2871.8676,246.8261" fill="none" id="EventoController-to-EventoVisualizacaoDTO" style="stroke:#000000;stroke-width:1;stroke-dasharray:7,7;"/><polygon fill="#000000" points="2867.49,250.9294,2876.7919,247.6928,2871.138,247.51,2871.3208,241.8561,2867.49,250.9294" style="stroke:#000000;stroke-width:1;"/></g><!--link EventoController to EventoResumoListaDTO--><g class="link" data-entity-1="EventoController" data-entity-2="EventoResumoListaDTO" data-source-line="87" data-uid="lnk72" id="link_EventoController_EventoResumoListaDTO"><path codeLine="87" d="M2961.55,154.1594 C2946.25,163.5294 2928.02,172.8994 2910,177.8694 C2870.57,188.7494 2580.69,172.6094 2542,185.8694 C2503.8,198.9694 2472.0633,225.468 2450.5733,246.448" fill="none" id="EventoController-to-EventoResumoListaDTO" style="stroke:#000000;stroke-width:1;stroke-dasharray:7,7;"/><polygon fill="#000000" points="2446.28,250.6394,2455.5142,247.2145,2449.8577,247.1465,2449.9257,241.4901,2446.28,250.6394" style="stroke:#000000;stroke-width:1;"/></g><!--link EventoController to FiltroVeiculoRequestDTO--><g class="link" data-entity-1="EventoController" data-entity-2="FiltroVeiculoRequestDTO" data-source-line="88" data-uid="lnk73" id="link_EventoController_FiltroVeiculoRequestDTO"><path codeLine="88" d="M3038.92,154.1394 C3054.4,163.5194 3072.82,172.8894 3091,177.8694 C3127.87,187.9794 3398.77,173.6694 3435,185.8694 C3473.91,198.9794 3506.5947,225.5424 3528.7247,246.5124" fill="none" id="EventoController-to-FiltroVeiculoRequestDTO" style="stroke:#000000;stroke-width:1;stroke-dasharray:7,7;"/><polygon fill="#000000" points="3533.08,250.6394,3529.2984,241.5454,3529.4506,247.2002,3523.7958,247.3524,3533.08,250.6394" style="stroke:#000000;stroke-width:1;"/></g><!--link PeriodicoController to PeriodicoRequestDTO--><g class="link" data-entity-1="PeriodicoController" data-entity-2="PeriodicoRequestDTO" data-source-line="89" data-uid="lnk74" id="link_PeriodicoController_PeriodicoRequestDTO"><path codeLine="89" d="M3440.14,154.3094 C3456.83,163.6994 3476.63,173.0494 3496,177.8694 C3552.44,191.9394 4488.21,166.3294 4543,185.8694 C4579.16,198.7794 4608.0803,225.1198 4627.5903,246.1598" fill="none" id="PeriodicoController-to-PeriodicoRequestDTO" style="stroke:#000000;stroke-width:1;stroke-dasharray:7,7;"/><polygon fill="#000000" points="4631.67,250.5594,4628.4836,241.2402,4628.2703,246.8931,4622.6175,246.6798,4631.67,250.5594" style="stroke:#000000;stroke-width:1;"/></g><!--link PeriodicoController to PeriodicoResponseDTO--><g class="link" data-entity-1="PeriodicoController" data-entity-2="PeriodicoResponseDTO" data-source-line="90" data-uid="lnk75" id="link_PeriodicoController_PeriodicoResponseDTO"><path codeLine="90" d="M3440.18,154.1394 C3456.88,163.5094 3476.68,172.8894 3496,177.8694 C3531.51,187.0394 3791.42,173.6494 3826,185.8694 C3863.23,199.0394 3893.7212,225.4332 3914.3512,246.3932" fill="none" id="PeriodicoController-to-PeriodicoResponseDTO" style="stroke:#000000;stroke-width:1;stroke-dasharray:7,7;"/><polygon fill="#000000" points="3918.56,250.6694,3915.0975,241.4492,3915.0526,247.1059,3909.396,247.061,3918.56,250.6694" style="stroke:#000000;stroke-width:1;"/></g><!--link PeriodicoController to PeriodicoVisualizacaoDTO--><g class="link" data-entity-1="PeriodicoController" data-entity-2="PeriodicoVisualizacaoDTO" data-source-line="91" data-uid="lnk76" id="link_PeriodicoController_PeriodicoVisualizacaoDTO"><path codeLine="91" d="M3440.16,154.2394 C3456.85,163.6294 3476.65,172.9794 3496,177.8694 C3555.79,192.9894 3992.35,166.7894 4051,185.8694 C4090.69,198.7894 4124.3032,225.4575 4147.0632,246.4875" fill="none" id="PeriodicoController-to-PeriodicoVisualizacaoDTO" style="stroke:#000000;stroke-width:1;stroke-dasharray:7,7;"/><polygon fill="#000000" points="4151.47,250.5594,4147.5743,241.5137,4147.7977,247.1662,4142.1452,247.3895,4151.47,250.5594" style="stroke:#000000;stroke-width:1;"/></g><!--link PeriodicoController to PeriodicoResumoListaDTO--><g class="link" data-entity-1="PeriodicoController" data-entity-2="PeriodicoResumoListaDTO" data-source-line="92" data-uid="lnk77" id="link_PeriodicoController_PeriodicoResumoListaDTO"><path codeLine="92" d="M3440.14,154.2794 C3456.84,163.6794 3476.64,173.0194 3496,177.8694 C3539.06,188.6594 4252.71,172.3894 4295,185.8694 C4335.21,198.6894 4369.451,225.4127 4392.621,246.4827" fill="none" id="PeriodicoController-to-PeriodicoResumoListaDTO" style="stroke:#000000;stroke-width:1;stroke-dasharray:7,7;"/><polygon fill="#000000" points="4397.06,250.5194,4393.0926,241.505,4393.3608,247.1555,4387.7103,247.4237,4397.06,250.5194" style="stroke:#000000;stroke-width:1;"/></g><!--link PeriodicoController to ClassificacaoPeriodicoRequestDTO--><g class="link" data-entity-1="PeriodicoController" data-entity-2="ClassificacaoPeriodicoRequestDTO" data-source-line="93" data-uid="lnk78" id="link_PeriodicoController_ClassificacaoPeriodicoRequestDTO"><path codeLine="93" d="M3350.49,154.2894 C3334.51,162.7294 3316.33,171.4694 3299,177.8694 C3284.44,183.2494 3279.46,180.2294 3265,185.8694 C3220.84,203.0994 3178.9225,227.9278 3148.8525,247.3178" fill="none" id="PeriodicoController-to-ClassificacaoPeriodicoRequestDTO" style="stroke:#000000;stroke-width:1;stroke-dasharray:7,7;"/><polygon fill="#000000" points="3143.81,250.5694,3153.5415,249.0537,3148.0121,247.8597,3149.2061,242.3303,3143.81,250.5694" style="stroke:#000000;stroke-width:1;"/></g><!--link PeriodicoController to FiltroVeiculoRequestDTO--><g class="link" data-entity-1="PeriodicoController" data-entity-2="FiltroVeiculoRequestDTO" data-source-line="94" data-uid="lnk79" id="link_PeriodicoController_FiltroVeiculoRequestDTO"><path codeLine="94" d="M3427.34,154.0594 C3457.53,182.1694 3499.509,221.2605 3526.979,246.8405" fill="none" id="PeriodicoController-to-FiltroVeiculoRequestDTO" style="stroke:#000000;stroke-width:1;stroke-dasharray:7,7;"/><polygon fill="#000000" points="3531.37,250.9294,3527.5094,241.8687,3527.7108,247.522,3522.0576,247.7234,3531.37,250.9294" style="stroke:#000000;stroke-width:1;"/></g><!--link UsuarioController to UsuarioRequestDTO--><g class="link" data-entity-1="UsuarioController" data-entity-2="UsuarioRequestDTO" data-source-line="95" data-uid="lnk80" id="link_UsuarioController_UsuarioRequestDTO"><path codeLine="95" d="M2777.65,154.2794 C2762,163.6694 2743.37,173.0194 2725,177.8694 C2679.93,189.7894 1929.7,169.6494 1886,185.8694 C1851.02,198.8594 1823.6466,225.0688 1805.2166,246.0788" fill="none" id="UsuarioController-to-UsuarioRequestDTO" style="stroke:#000000;stroke-width:1;stroke-dasharray:7,7;"/><polygon fill="#000000" points="1801.26,250.5894,1810.202,246.4613,1804.5572,246.8306,1804.1879,241.1858,1801.26,250.5894" style="stroke:#000000;stroke-width:1;"/></g><!--link UsuarioController to UsuarioResponseDTO--><g class="link" data-entity-1="UsuarioController" data-entity-2="UsuarioResponseDTO" data-source-line="96" data-uid="lnk81" id="link_UsuarioController_UsuarioResponseDTO"><path codeLine="96" d="M2777.64,154.2494 C2761.99,163.6294 2743.37,172.9894 2725,177.8694 C2691.44,186.7994 2132.68,174.1194 2100,185.8694 C2063.87,198.8694 2034.955,225.1948 2015.425,246.2048" fill="none" id="UsuarioController-to-UsuarioResponseDTO" style="stroke:#000000;stroke-width:1;stroke-dasharray:7,7;"/><polygon fill="#000000" points="2011.34,250.5994,2020.3973,246.7308,2014.7442,246.9372,2014.5378,241.2841,2011.34,250.5994" style="stroke:#000000;stroke-width:1;"/></g><!--link LogVeiculoController to LogVeiculoDTO--><g class="link" data-entity-1="LogVeiculoController" data-entity-2="LogVeiculoDTO" data-source-line="97" data-uid="lnk82" id="link_LogVeiculoController_LogVeiculoDTO"><path codeLine="97" d="M3228.65,154.1094 C3240.35,163.9094 3253.44,175.1794 3265,185.8694 C3287.97,207.1394 3308.8626,228.484 3325.7726,246.244" fill="none" id="LogVeiculoController-to-LogVeiculoDTO" style="stroke:#000000;stroke-width:1;stroke-dasharray:7,7;"/><polygon fill="#000000" points="3329.91,250.5894,3326.6008,241.3131,3326.4622,246.9682,3320.807,246.8296,3329.91,250.5894" style="stroke:#000000;stroke-width:1;"/></g><!--link LogVeiculoController to AcaoLogDTO--><g class="link" data-entity-1="LogVeiculoController" data-entity-2="AcaoLogDTO" data-source-line="98" data-uid="lnk83" id="link_LogVeiculoController_AcaoLogDTO"><path codeLine="98" d="M3240.67,154.3094 C3258.54,163.6394 3279.6,172.9394 3300,177.8694 C3340.29,187.6194 3635.4,168.4194 3673,185.8694 C3702.12,199.3894 3721.5412,224.8597 3734.2712,245.6897" fill="none" id="LogVeiculoController-to-AcaoLogDTO" style="stroke:#000000;stroke-width:1;stroke-dasharray:7,7;"/><polygon fill="#000000" points="3737.4,250.8094,3736.1199,241.0441,3734.7927,246.543,3729.2937,245.2158,3737.4,250.8094" style="stroke:#000000;stroke-width:1;"/></g><!--link VeiculoController to ClassificacaoPeriodicoRequestDTO--><g class="link" data-entity-1="VeiculoController" data-entity-2="ClassificacaoPeriodicoRequestDTO" data-source-line="99" data-uid="lnk84" id="link_VeiculoController_ClassificacaoPeriodicoRequestDTO"><path codeLine="99" d="M2672.4,154.3094 C2687.78,163.5794 2706.03,172.8394 2724,177.8694 C2774.32,191.9594 2908.69,171.7694 2959,185.8694 C3006.25,199.1194 3049.7036,226.2976 3079.0636,247.2176" fill="none" id="VeiculoController-to-ClassificacaoPeriodicoRequestDTO" style="stroke:#000000;stroke-width:1;stroke-dasharray:7,7;"/><polygon fill="#000000" points="3083.95,250.6994,3078.9415,242.2191,3079.878,247.7979,3074.2992,248.7344,3083.95,250.6994" style="stroke:#000000;stroke-width:1;"/></g><!--link VeiculoController to VeiculoPublicacaoDTO--><g class="link" data-entity-1="VeiculoController" data-entity-2="VeiculoPublicacaoDTO" data-source-line="100" data-uid="lnk85" id="link_VeiculoController_VeiculoPublicacaoDTO"><path codeLine="100" d="M2593.65,154.2794 C2578,163.6694 2559.37,173.0194 2541,177.8694 C2494.86,190.0594 1727.04,170.0994 1682,185.8694 C1645.14,198.7794 1615.2911,225.1871 1595.1311,246.2271" fill="none" id="VeiculoController-to-VeiculoPublicacaoDTO" style="stroke:#000000;stroke-width:1;stroke-dasharray:7,7;"/><polygon fill="#000000" points="1590.98,250.5594,1600.0948,246.8283,1594.4392,246.9491,1594.3184,241.2936,1590.98,250.5594" style="stroke:#000000;stroke-width:1;"/></g><!--link AutorizacaoController to TokenDTO--><g class="link" data-entity-1="AutorizacaoController" data-entity-2="TokenDTO" data-source-line="101" data-uid="lnk86" id="link_AutorizacaoController_TokenDTO"><path codeLine="101" d="M3694.24,127.1094 C3949.54,128.7294 4664.54,137.5894 4758,185.8694 C4785.08,199.8694 4802.0412,224.7181 4813.0812,245.3681" fill="none" id="AutorizacaoController-to-TokenDTO" style="stroke:#000000;stroke-width:1;stroke-dasharray:7,7;"/><polygon fill="#000000" points="4815.91,250.6594,4815.1942,240.8366,4813.5526,246.25,4808.1392,244.6084,4815.91,250.6594" style="stroke:#000000;stroke-width:1;"/></g><!--SRC=[fPRDRXen4CVl-nHkBaqEf7s020b18qL2BO8qTsTtIgsODR6zIAJgyrJglK_0YtMyBBi6ZxrRzHA2_PknFH__uPtz3XjWMyb5cLbX9R2Pu6lDDvmLd4tn4pyAO5DLMgrm-tgoU61plWTzavaNKMuvmYoNt9Y9jLeyLnOUSbMkn1kmZnwovVaBNyFAxj6BXjncMRF4hXhl4hIvOdTtdrK1up7xaR6ZOpRHm1TWNYjXUCSYkGHZkuNnkBNuj8FIgc7iNAsVGEIL7CWlG0jLY7mehbKTq67qLrDnT3yC_gThJoghj7ZZEUyn-EbbPWLw9t8mx7e6MoWBA7C1viPbQQesMrLYcCzIDTM2wsFq6rj4c_-e_9XAMfuYQuTjo5EadvT-j-wl-2Pop_b2Gy5Ta5JlXPeqfRZ9ZaiacnoboBambkkk35Fi4jP8wnfFdjvbkzbS6dv6-cbUmbOPuIp8LDyhMRZIYBHaQxslo-dqXUY1Vh89R3_On6fHFKjC8Zwpt-HOT77EZyZiyKkjHLEfgYBwSgI2D_fhJPcZXOLm7JiFEyWGEqy2mo2FwIFjgesgg-Ri0gSwNi9hXKqTsGlFR3TZn_hMrCbTCw5XwXfjTkCxuVMwnl1N9tWKxlXBzqAYYZKiSKPGClxcetg1qYrW5Rndez48Mqtomw_37sm9Jp17OtRgkm_CgoMqo29pQeGsTBzan71mTDWlMJWO74Y8KOGC6YiBPcJhy4o_QOuKS1eDJwOcQ7lufTP7wPZUnzqFqVoezV1d9AGf8tziEAF848WR49CW3eUNfpboQ6N_vpCL3jhYKgWp-hTBVM5gpfqw-3Z83hznad7ZViOwLKzrwktjED1teaKTvijzKFOEkDJ-1EIhNWAxbEUqHr-eIJ8cbrHProycX7q0spsj5xvyu13l_ZDZVEzyYXd6GXHAhAF3wTR3TQ4X6zUnvyClYddJa0PwGq2RaIEJxaQ7duReNm00]--></g></svg>