<svg xmlns="http://www.w3.org/2000/svg" xmlns:xlink="http://www.w3.org/1999/xlink" contentStyleType="text/css" data-diagram-type="CLASS" height="423px" preserveAspectRatio="none" style="width:4749px;height:423px;background:#FFFFFF;" version="1.1" viewBox="0 0 4749 423" width="4749px" zoomAndPan="magnify"><title>Diagrama da Camada de Servi&#231;o (Business Logic Layer)</title><defs/><g><g class="title" data-source-line="2"><text fill="#000000" font-family="Verdana" font-size="22" font-weight="bold" lengthAdjust="spacing" textLength="690.1318" x="2024.9341" y="35.4209">Diagrama da Camada de Servi&#231;o (Business Logic Layer)</text></g><!--cluster Services--><g class="cluster" data-entity="Services" data-source-line="6" data-uid="ent0002" id="cluster_Services"><rect fill="#FFFFFF" height="239" rx="2.5" ry="2.5" style="stroke:#000000;stroke-width:1;" width="1959" x="1274" y="58.6094"/><text fill="#000000" font-family="Verdana" font-size="14" font-style="italic" lengthAdjust="spacing" textLength="98.5605" x="2204.2197" y="73.6045">&#171;Component&#187;</text><text fill="#000000" font-family="Verdana" font-size="14" font-weight="bold" lengthAdjust="spacing" textLength="66.5342" x="2220.2329" y="89.9014">Services</text></g><!--cluster Repositories (Dependencies)--><g class="cluster" data-entity="Repositories (Dependencies)" data-source-line="22" data-uid="ent0016" id="cluster_Repositories (Dependencies)"><path d="M13.5,321.6094 L242.0684,321.6094 A3.75,3.75 0 0 1 244.5684,324.1094 L251.5684,343.9063 L2173.5,343.9063 A2.5,2.5 0 0 1 2176,346.4063 L2176,414.1094 A2.5,2.5 0 0 1 2173.5,416.6094 L13.5,416.6094 A2.5,2.5 0 0 1 11,414.1094 L11,324.1094 A2.5,2.5 0 0 1 13.5,321.6094" fill="#FFFFFF" style="stroke:#000000;stroke-width:1;"/><line style="stroke:#000000;stroke-width:1;" x1="11" x2="251.5684" y1="343.9063" y2="343.9063"/><text fill="#000000" font-family="Verdana" font-size="14" font-weight="bold" lengthAdjust="spacing" textLength="227.5684" x="15" y="336.6045">Repositories (Dependencies)</text></g><!--cluster Domain (Entities, DTOs, Enums)--><g class="cluster" data-entity="Domain (Entities, DTOs, Enums)" data-source-line="35" data-uid="ent0027" id="cluster_Domain (Entities, DTOs, Enums)"><rect fill="#FFFFFF" height="95" rx="2.5" ry="2.5" style="stroke:#000000;stroke-width:1;" width="2543" x="2200" y="321.6094"/><text fill="#000000" font-family="Verdana" font-size="14" font-weight="bold" lengthAdjust="spacing" textLength="252.2598" x="3345.3701" y="336.6045">Domain (Entities, DTOs, Enums)</text></g><!--class AvaliarVeiculoService--><g class="entity" data-entity="AvaliarVeiculoService" data-source-line="7" data-uid="ent0003" id="entity_AvaliarVeiculoService"><rect fill="#FFFFFF" height="56.2656" rx="2.5" ry="2.5" style="stroke:#000000;stroke-width:1;" width="179.4023" x="1506.5" y="109.6094"/><ellipse cx="1519.5" cy="129.7422" fill="#FFFFFF" rx="9" ry="9" style="stroke:#000000;stroke-width:1;"/><path d="M1522.4688,135.3828 Q1521.8906,135.6797 1521.25,135.8203 Q1520.6094,135.9766 1519.9063,135.9766 Q1517.4063,135.9766 1516.0781,134.3359 Q1514.7656,132.6797 1514.7656,129.5547 Q1514.7656,126.4297 1516.0781,124.7734 Q1517.4063,123.1172 1519.9063,123.1172 Q1520.6094,123.1172 1521.25,123.2734 Q1521.9063,123.4297 1522.4688,123.7266 L1522.4688,126.4453 Q1521.8438,125.8672 1521.25,125.6016 Q1520.6563,125.3203 1520.0313,125.3203 Q1518.6875,125.3203 1518,126.3984 Q1517.3125,127.4609 1517.3125,129.5547 Q1517.3125,131.6484 1518,132.7266 Q1518.6875,133.7891 1520.0313,133.7891 Q1520.6563,133.7891 1521.25,133.5234 Q1521.8438,133.2422 1522.4688,132.6641 L1522.4688,135.3828 Z " fill="#000000"/><text fill="#000000" font-family="Verdana" font-size="12" font-style="italic" lengthAdjust="spacing" textLength="59.1621" x="1577.6201" y="125.748">&#171;Service&#187;</text><text fill="#000000" font-family="Verdana" font-size="14" lengthAdjust="spacing" textLength="151.4023" x="1531.5" y="141.5732">AvaliarVeiculoService</text><line style="stroke:#000000;stroke-width:1;" x1="1507.5" x2="1684.9023" y1="149.875" y2="149.875"/><line style="stroke:#000000;stroke-width:1;" x1="1507.5" x2="1684.9023" y1="157.875" y2="157.875"/></g><!--class ClassificarPeriodicoPredatorioService--><g class="entity" data-entity="ClassificarPeriodicoPredatorioService" data-source-line="8" data-uid="ent0004" id="entity_ClassificarPeriodicoPredatorioService"><rect fill="#FFFFFF" height="56.2656" rx="2.5" ry="2.5" style="stroke:#000000;stroke-width:1;" width="288.1621" x="1761" y="225.6094"/><ellipse cx="1774" cy="245.7422" fill="#FFFFFF" rx="9" ry="9" style="stroke:#000000;stroke-width:1;"/><path d="M1776.9688,251.3828 Q1776.3906,251.6797 1775.75,251.8203 Q1775.1094,251.9766 1774.4063,251.9766 Q1771.9063,251.9766 1770.5781,250.3359 Q1769.2656,248.6797 1769.2656,245.5547 Q1769.2656,242.4297 1770.5781,240.7734 Q1771.9063,239.1172 1774.4063,239.1172 Q1775.1094,239.1172 1775.75,239.2734 Q1776.4063,239.4297 1776.9688,239.7266 L1776.9688,242.4453 Q1776.3438,241.8672 1775.75,241.6016 Q1775.1563,241.3203 1774.5313,241.3203 Q1773.1875,241.3203 1772.5,242.3984 Q1771.8125,243.4609 1771.8125,245.5547 Q1771.8125,247.6484 1772.5,248.7266 Q1773.1875,249.7891 1774.5313,249.7891 Q1775.1563,249.7891 1775.75,249.5234 Q1776.3438,249.2422 1776.9688,248.6641 L1776.9688,251.3828 Z " fill="#000000"/><text fill="#000000" font-family="Verdana" font-size="12" font-style="italic" lengthAdjust="spacing" textLength="59.1621" x="1886.5" y="241.748">&#171;Service&#187;</text><text fill="#000000" font-family="Verdana" font-size="14" lengthAdjust="spacing" textLength="260.1621" x="1786" y="257.5732">ClassificarPeriodicoPredatorioService</text><line style="stroke:#000000;stroke-width:1;" x1="1762" x2="2048.1621" y1="265.875" y2="265.875"/><line style="stroke:#000000;stroke-width:1;" x1="1762" x2="2048.1621" y1="273.875" y2="273.875"/></g><!--class CriarEventoService--><g class="entity" data-entity="CriarEventoService" data-source-line="9" data-uid="ent0005" id="entity_CriarEventoService"><rect fill="#FFFFFF" height="56.2656" rx="2.5" ry="2.5" style="stroke:#000000;stroke-width:1;" width="162.1689" x="1721" y="109.6094"/><ellipse cx="1734" cy="129.7422" fill="#FFFFFF" rx="9" ry="9" style="stroke:#000000;stroke-width:1;"/><path d="M1736.9688,135.3828 Q1736.3906,135.6797 1735.75,135.8203 Q1735.1094,135.9766 1734.4063,135.9766 Q1731.9063,135.9766 1730.5781,134.3359 Q1729.2656,132.6797 1729.2656,129.5547 Q1729.2656,126.4297 1730.5781,124.7734 Q1731.9063,123.1172 1734.4063,123.1172 Q1735.1094,123.1172 1735.75,123.2734 Q1736.4063,123.4297 1736.9688,123.7266 L1736.9688,126.4453 Q1736.3438,125.8672 1735.75,125.6016 Q1735.1563,125.3203 1734.5313,125.3203 Q1733.1875,125.3203 1732.5,126.3984 Q1731.8125,127.4609 1731.8125,129.5547 Q1731.8125,131.6484 1732.5,132.7266 Q1733.1875,133.7891 1734.5313,133.7891 Q1735.1563,133.7891 1735.75,133.5234 Q1736.3438,133.2422 1736.9688,132.6641 L1736.9688,135.3828 Z " fill="#000000"/><text fill="#000000" font-family="Verdana" font-size="12" font-style="italic" lengthAdjust="spacing" textLength="59.1621" x="1783.5034" y="125.748">&#171;Service&#187;</text><text fill="#000000" font-family="Verdana" font-size="14" lengthAdjust="spacing" textLength="134.1689" x="1746" y="141.5732">CriarEventoService</text><line style="stroke:#000000;stroke-width:1;" x1="1722" x2="1882.1689" y1="149.875" y2="149.875"/><line style="stroke:#000000;stroke-width:1;" x1="1722" x2="1882.1689" y1="157.875" y2="157.875"/></g><!--class CriarPeriodicoService--><g class="entity" data-entity="CriarPeriodicoService" data-source-line="10" data-uid="ent0006" id="entity_CriarPeriodicoService"><rect fill="#FFFFFF" height="56.2656" rx="2.5" ry="2.5" style="stroke:#000000;stroke-width:1;" width="177.8027" x="1918" y="109.6094"/><ellipse cx="1931" cy="129.7422" fill="#FFFFFF" rx="9" ry="9" style="stroke:#000000;stroke-width:1;"/><path d="M1933.9688,135.3828 Q1933.3906,135.6797 1932.75,135.8203 Q1932.1094,135.9766 1931.4063,135.9766 Q1928.9063,135.9766 1927.5781,134.3359 Q1926.2656,132.6797 1926.2656,129.5547 Q1926.2656,126.4297 1927.5781,124.7734 Q1928.9063,123.1172 1931.4063,123.1172 Q1932.1094,123.1172 1932.75,123.2734 Q1933.4063,123.4297 1933.9688,123.7266 L1933.9688,126.4453 Q1933.3438,125.8672 1932.75,125.6016 Q1932.1563,125.3203 1931.5313,125.3203 Q1930.1875,125.3203 1929.5,126.3984 Q1928.8125,127.4609 1928.8125,129.5547 Q1928.8125,131.6484 1929.5,132.7266 Q1930.1875,133.7891 1931.5313,133.7891 Q1932.1563,133.7891 1932.75,133.5234 Q1933.3438,133.2422 1933.9688,132.6641 L1933.9688,135.3828 Z " fill="#000000"/><text fill="#000000" font-family="Verdana" font-size="12" font-style="italic" lengthAdjust="spacing" textLength="59.1621" x="1988.3203" y="125.748">&#171;Service&#187;</text><text fill="#000000" font-family="Verdana" font-size="14" lengthAdjust="spacing" textLength="149.8027" x="1943" y="141.5732">CriarPeriodicoService</text><line style="stroke:#000000;stroke-width:1;" x1="1919" x2="2094.8027" y1="149.875" y2="149.875"/><line style="stroke:#000000;stroke-width:1;" x1="1919" x2="2094.8027" y1="157.875" y2="157.875"/></g><!--class CriarUsuarioService--><g class="entity" data-entity="CriarUsuarioService" data-source-line="11" data-uid="ent0007" id="entity_CriarUsuarioService"><rect fill="#FFFFFF" height="56.2656" rx="2.5" ry="2.5" style="stroke:#000000;stroke-width:1;" width="166.7012" x="2130.5" y="109.6094"/><ellipse cx="2143.5" cy="129.7422" fill="#FFFFFF" rx="9" ry="9" style="stroke:#000000;stroke-width:1;"/><path d="M2146.4688,135.3828 Q2145.8906,135.6797 2145.25,135.8203 Q2144.6094,135.9766 2143.9063,135.9766 Q2141.4063,135.9766 2140.0781,134.3359 Q2138.7656,132.6797 2138.7656,129.5547 Q2138.7656,126.4297 2140.0781,124.7734 Q2141.4063,123.1172 2143.9063,123.1172 Q2144.6094,123.1172 2145.25,123.2734 Q2145.9063,123.4297 2146.4688,123.7266 L2146.4688,126.4453 Q2145.8438,125.8672 2145.25,125.6016 Q2144.6563,125.3203 2144.0313,125.3203 Q2142.6875,125.3203 2142,126.3984 Q2141.3125,127.4609 2141.3125,129.5547 Q2141.3125,131.6484 2142,132.7266 Q2142.6875,133.7891 2144.0313,133.7891 Q2144.6563,133.7891 2145.25,133.5234 Q2145.8438,133.2422 2146.4688,132.6641 L2146.4688,135.3828 Z " fill="#000000"/><text fill="#000000" font-family="Verdana" font-size="12" font-style="italic" lengthAdjust="spacing" textLength="59.1621" x="2195.2695" y="125.748">&#171;Service&#187;</text><text fill="#000000" font-family="Verdana" font-size="14" lengthAdjust="spacing" textLength="138.7012" x="2155.5" y="141.5732">CriarUsuarioService</text><line style="stroke:#000000;stroke-width:1;" x1="2131.5" x2="2296.2012" y1="149.875" y2="149.875"/><line style="stroke:#000000;stroke-width:1;" x1="2131.5" x2="2296.2012" y1="157.875" y2="157.875"/></g><!--class EventoConsultaService--><g class="entity" data-entity="EventoConsultaService" data-source-line="12" data-uid="ent0008" id="entity_EventoConsultaService"><rect fill="#FFFFFF" height="56.2656" rx="2.5" ry="2.5" style="stroke:#000000;stroke-width:1;" width="189.752" x="2333" y="109.6094"/><ellipse cx="2346" cy="129.7422" fill="#FFFFFF" rx="9" ry="9" style="stroke:#000000;stroke-width:1;"/><path d="M2348.9688,135.3828 Q2348.3906,135.6797 2347.75,135.8203 Q2347.1094,135.9766 2346.4063,135.9766 Q2343.9063,135.9766 2342.5781,134.3359 Q2341.2656,132.6797 2341.2656,129.5547 Q2341.2656,126.4297 2342.5781,124.7734 Q2343.9063,123.1172 2346.4063,123.1172 Q2347.1094,123.1172 2347.75,123.2734 Q2348.4063,123.4297 2348.9688,123.7266 L2348.9688,126.4453 Q2348.3438,125.8672 2347.75,125.6016 Q2347.1563,125.3203 2346.5313,125.3203 Q2345.1875,125.3203 2344.5,126.3984 Q2343.8125,127.4609 2343.8125,129.5547 Q2343.8125,131.6484 2344.5,132.7266 Q2345.1875,133.7891 2346.5313,133.7891 Q2347.1563,133.7891 2347.75,133.5234 Q2348.3438,133.2422 2348.9688,132.6641 L2348.9688,135.3828 Z " fill="#000000"/><text fill="#000000" font-family="Verdana" font-size="12" font-style="italic" lengthAdjust="spacing" textLength="59.1621" x="2409.2949" y="125.748">&#171;Service&#187;</text><text fill="#000000" font-family="Verdana" font-size="14" lengthAdjust="spacing" textLength="161.752" x="2358" y="141.5732">EventoConsultaService</text><line style="stroke:#000000;stroke-width:1;" x1="2334" x2="2521.752" y1="149.875" y2="149.875"/><line style="stroke:#000000;stroke-width:1;" x1="2334" x2="2521.752" y1="157.875" y2="157.875"/></g><!--class PeriodicoConsultaService--><g class="entity" data-entity="PeriodicoConsultaService" data-source-line="13" data-uid="ent0009" id="entity_PeriodicoConsultaService"><rect fill="#FFFFFF" height="56.2656" rx="2.5" ry="2.5" style="stroke:#000000;stroke-width:1;" width="205.3857" x="2558.5" y="109.6094"/><ellipse cx="2571.5" cy="129.7422" fill="#FFFFFF" rx="9" ry="9" style="stroke:#000000;stroke-width:1;"/><path d="M2574.4688,135.3828 Q2573.8906,135.6797 2573.25,135.8203 Q2572.6094,135.9766 2571.9063,135.9766 Q2569.4063,135.9766 2568.0781,134.3359 Q2566.7656,132.6797 2566.7656,129.5547 Q2566.7656,126.4297 2568.0781,124.7734 Q2569.4063,123.1172 2571.9063,123.1172 Q2572.6094,123.1172 2573.25,123.2734 Q2573.9063,123.4297 2574.4688,123.7266 L2574.4688,126.4453 Q2573.8438,125.8672 2573.25,125.6016 Q2572.6563,125.3203 2572.0313,125.3203 Q2570.6875,125.3203 2570,126.3984 Q2569.3125,127.4609 2569.3125,129.5547 Q2569.3125,131.6484 2570,132.7266 Q2570.6875,133.7891 2572.0313,133.7891 Q2572.6563,133.7891 2573.25,133.5234 Q2573.8438,133.2422 2574.4688,132.6641 L2574.4688,135.3828 Z " fill="#000000"/><text fill="#000000" font-family="Verdana" font-size="12" font-style="italic" lengthAdjust="spacing" textLength="59.1621" x="2642.6118" y="125.748">&#171;Service&#187;</text><text fill="#000000" font-family="Verdana" font-size="14" lengthAdjust="spacing" textLength="177.3857" x="2583.5" y="141.5732">PeriodicoConsultaService</text><line style="stroke:#000000;stroke-width:1;" x1="2559.5" x2="2762.8857" y1="149.875" y2="149.875"/><line style="stroke:#000000;stroke-width:1;" x1="2559.5" x2="2762.8857" y1="157.875" y2="157.875"/></g><!--class ListarLogVeiculoService--><g class="entity" data-entity="ListarLogVeiculoService" data-source-line="14" data-uid="ent0010" id="entity_ListarLogVeiculoService"><rect fill="#FFFFFF" height="56.2656" rx="2.5" ry="2.5" style="stroke:#000000;stroke-width:1;" width="194.9063" x="3022.5" y="109.6094"/><ellipse cx="3035.5" cy="129.7422" fill="#FFFFFF" rx="9" ry="9" style="stroke:#000000;stroke-width:1;"/><path d="M3038.4688,135.3828 Q3037.8906,135.6797 3037.25,135.8203 Q3036.6094,135.9766 3035.9063,135.9766 Q3033.4063,135.9766 3032.0781,134.3359 Q3030.7656,132.6797 3030.7656,129.5547 Q3030.7656,126.4297 3032.0781,124.7734 Q3033.4063,123.1172 3035.9063,123.1172 Q3036.6094,123.1172 3037.25,123.2734 Q3037.9063,123.4297 3038.4688,123.7266 L3038.4688,126.4453 Q3037.8438,125.8672 3037.25,125.6016 Q3036.6563,125.3203 3036.0313,125.3203 Q3034.6875,125.3203 3034,126.3984 Q3033.3125,127.4609 3033.3125,129.5547 Q3033.3125,131.6484 3034,132.7266 Q3034.6875,133.7891 3036.0313,133.7891 Q3036.6563,133.7891 3037.25,133.5234 Q3037.8438,133.2422 3038.4688,132.6641 L3038.4688,135.3828 Z " fill="#000000"/><text fill="#000000" font-family="Verdana" font-size="12" font-style="italic" lengthAdjust="spacing" textLength="59.1621" x="3101.3721" y="125.748">&#171;Service&#187;</text><text fill="#000000" font-family="Verdana" font-size="14" lengthAdjust="spacing" textLength="166.9063" x="3047.5" y="141.5732">ListarLogVeiculoService</text><line style="stroke:#000000;stroke-width:1;" x1="3023.5" x2="3216.4063" y1="149.875" y2="149.875"/><line style="stroke:#000000;stroke-width:1;" x1="3023.5" x2="3216.4063" y1="157.875" y2="157.875"/></g><!--class RegistrarLogService--><g class="entity" data-entity="RegistrarLogService" data-source-line="15" data-uid="ent0011" id="entity_RegistrarLogService"><rect fill="#FFFFFF" height="56.2656" rx="2.5" ry="2.5" style="stroke:#000000;stroke-width:1;" width="168.9844" x="2084.5" y="225.6094"/><ellipse cx="2097.5" cy="245.7422" fill="#FFFFFF" rx="9" ry="9" style="stroke:#000000;stroke-width:1;"/><path d="M2100.4688,251.3828 Q2099.8906,251.6797 2099.25,251.8203 Q2098.6094,251.9766 2097.9063,251.9766 Q2095.4063,251.9766 2094.0781,250.3359 Q2092.7656,248.6797 2092.7656,245.5547 Q2092.7656,242.4297 2094.0781,240.7734 Q2095.4063,239.1172 2097.9063,239.1172 Q2098.6094,239.1172 2099.25,239.2734 Q2099.9063,239.4297 2100.4688,239.7266 L2100.4688,242.4453 Q2099.8438,241.8672 2099.25,241.6016 Q2098.6563,241.3203 2098.0313,241.3203 Q2096.6875,241.3203 2096,242.3984 Q2095.3125,243.4609 2095.3125,245.5547 Q2095.3125,247.6484 2096,248.7266 Q2096.6875,249.7891 2098.0313,249.7891 Q2098.6563,249.7891 2099.25,249.5234 Q2099.8438,249.2422 2100.4688,248.6641 L2100.4688,251.3828 Z " fill="#000000"/><text fill="#000000" font-family="Verdana" font-size="12" font-style="italic" lengthAdjust="spacing" textLength="59.1621" x="2150.4111" y="241.748">&#171;Service&#187;</text><text fill="#000000" font-family="Verdana" font-size="14" lengthAdjust="spacing" textLength="140.9844" x="2109.5" y="257.5732">RegistrarLogService</text><line style="stroke:#000000;stroke-width:1;" x1="2085.5" x2="2252.4844" y1="265.875" y2="265.875"/><line style="stroke:#000000;stroke-width:1;" x1="2085.5" x2="2252.4844" y1="273.875" y2="273.875"/></g><!--class AutorizacaoServiceRsa--><g class="entity" data-entity="AutorizacaoServiceRsa" data-source-line="16" data-uid="ent0012" id="entity_AutorizacaoServiceRsa"><rect fill="#FFFFFF" height="56.2656" rx="2.5" ry="2.5" style="stroke:#000000;stroke-width:1;" width="188.2617" x="2799" y="109.6094"/><ellipse cx="2812" cy="129.7422" fill="#FFFFFF" rx="9" ry="9" style="stroke:#000000;stroke-width:1;"/><path d="M2814.9688,135.3828 Q2814.3906,135.6797 2813.75,135.8203 Q2813.1094,135.9766 2812.4063,135.9766 Q2809.9063,135.9766 2808.5781,134.3359 Q2807.2656,132.6797 2807.2656,129.5547 Q2807.2656,126.4297 2808.5781,124.7734 Q2809.9063,123.1172 2812.4063,123.1172 Q2813.1094,123.1172 2813.75,123.2734 Q2814.4063,123.4297 2814.9688,123.7266 L2814.9688,126.4453 Q2814.3438,125.8672 2813.75,125.6016 Q2813.1563,125.3203 2812.5313,125.3203 Q2811.1875,125.3203 2810.5,126.3984 Q2809.8125,127.4609 2809.8125,129.5547 Q2809.8125,131.6484 2810.5,132.7266 Q2811.1875,133.7891 2812.5313,133.7891 Q2813.1563,133.7891 2813.75,133.5234 Q2814.3438,133.2422 2814.9688,132.6641 L2814.9688,135.3828 Z " fill="#000000"/><text fill="#000000" font-family="Verdana" font-size="12" font-style="italic" lengthAdjust="spacing" textLength="59.1621" x="2874.5498" y="125.748">&#171;Service&#187;</text><text fill="#000000" font-family="Verdana" font-size="14" lengthAdjust="spacing" textLength="160.2617" x="2824" y="141.5732">AutorizacaoServiceRsa</text><line style="stroke:#000000;stroke-width:1;" x1="2800" x2="2986.2617" y1="149.875" y2="149.875"/><line style="stroke:#000000;stroke-width:1;" x1="2800" x2="2986.2617" y1="157.875" y2="157.875"/></g><!--class UsuarioDetailsService--><g class="entity" data-entity="UsuarioDetailsService" data-source-line="17" data-uid="ent0013" id="entity_UsuarioDetailsService"><rect fill="#FFFFFF" height="56.2656" rx="2.5" ry="2.5" style="stroke:#000000;stroke-width:1;" width="181.4805" x="1290.5" y="109.6094"/><ellipse cx="1303.5" cy="129.7422" fill="#FFFFFF" rx="9" ry="9" style="stroke:#000000;stroke-width:1;"/><path d="M1306.4688,135.3828 Q1305.8906,135.6797 1305.25,135.8203 Q1304.6094,135.9766 1303.9063,135.9766 Q1301.4063,135.9766 1300.0781,134.3359 Q1298.7656,132.6797 1298.7656,129.5547 Q1298.7656,126.4297 1300.0781,124.7734 Q1301.4063,123.1172 1303.9063,123.1172 Q1304.6094,123.1172 1305.25,123.2734 Q1305.9063,123.4297 1306.4688,123.7266 L1306.4688,126.4453 Q1305.8438,125.8672 1305.25,125.6016 Q1304.6563,125.3203 1304.0313,125.3203 Q1302.6875,125.3203 1302,126.3984 Q1301.3125,127.4609 1301.3125,129.5547 Q1301.3125,131.6484 1302,132.7266 Q1302.6875,133.7891 1304.0313,133.7891 Q1304.6563,133.7891 1305.25,133.5234 Q1305.8438,133.2422 1306.4688,132.6641 L1306.4688,135.3828 Z " fill="#000000"/><text fill="#000000" font-family="Verdana" font-size="12" font-style="italic" lengthAdjust="spacing" textLength="59.1621" x="1362.6592" y="125.748">&#171;Service&#187;</text><text fill="#000000" font-family="Verdana" font-size="14" lengthAdjust="spacing" textLength="153.4805" x="1315.5" y="141.5732">UsuarioDetailsService</text><line style="stroke:#000000;stroke-width:1;" x1="1291.5" x2="1470.9805" y1="149.875" y2="149.875"/><line style="stroke:#000000;stroke-width:1;" x1="1291.5" x2="1470.9805" y1="157.875" y2="157.875"/></g><!--class JwtService--><g class="entity" data-entity="JwtService" data-source-line="18" data-uid="ent0014" id="entity_JwtService"><rect fill="#FFFFFF" height="56.2656" rx="2.5" ry="2.5" style="stroke:#000000;stroke-width:1;" width="100.8096" x="2547.5" y="225.6094"/><ellipse cx="2560.5" cy="245.7422" fill="#FFFFFF" rx="9" ry="9" style="stroke:#000000;stroke-width:1;"/><path d="M2563.4688,251.3828 Q2562.8906,251.6797 2562.25,251.8203 Q2561.6094,251.9766 2560.9063,251.9766 Q2558.4063,251.9766 2557.0781,250.3359 Q2555.7656,248.6797 2555.7656,245.5547 Q2555.7656,242.4297 2557.0781,240.7734 Q2558.4063,239.1172 2560.9063,239.1172 Q2561.6094,239.1172 2562.25,239.2734 Q2562.9063,239.4297 2563.4688,239.7266 L2563.4688,242.4453 Q2562.8438,241.8672 2562.25,241.6016 Q2561.6563,241.3203 2561.0313,241.3203 Q2559.6875,241.3203 2559,242.3984 Q2558.3125,243.4609 2558.3125,245.5547 Q2558.3125,247.6484 2559,248.7266 Q2559.6875,249.7891 2561.0313,249.7891 Q2561.6563,249.7891 2562.25,249.5234 Q2562.8438,249.2422 2563.4688,248.6641 L2563.4688,251.3828 Z " fill="#000000"/><text fill="#000000" font-family="Verdana" font-size="12" font-style="italic" lengthAdjust="spacing" textLength="59.1621" x="2579.3237" y="241.748">&#171;Service&#187;</text><text fill="#000000" font-family="Verdana" font-size="14" lengthAdjust="spacing" textLength="72.8096" x="2572.5" y="257.5732">JwtService</text><line style="stroke:#000000;stroke-width:1;" x1="2548.5" x2="2647.3096" y1="265.875" y2="265.875"/><line style="stroke:#000000;stroke-width:1;" x1="2548.5" x2="2647.3096" y1="273.875" y2="273.875"/></g><!--class VeiculoSpecification--><g class="entity" data-entity="VeiculoSpecification" data-source-line="19" data-uid="ent0015" id="entity_VeiculoSpecification"><rect fill="#FFFFFF" height="56.2656" rx="2.5" ry="2.5" style="stroke:#000000;stroke-width:1;" width="168.9912" x="2343.5" y="225.6094"/><ellipse cx="2356.5" cy="245.7422" fill="#FFFFFF" rx="9" ry="9" style="stroke:#000000;stroke-width:1;"/><path d="M2359.4688,251.3828 Q2358.8906,251.6797 2358.25,251.8203 Q2357.6094,251.9766 2356.9063,251.9766 Q2354.4063,251.9766 2353.0781,250.3359 Q2351.7656,248.6797 2351.7656,245.5547 Q2351.7656,242.4297 2353.0781,240.7734 Q2354.4063,239.1172 2356.9063,239.1172 Q2357.6094,239.1172 2358.25,239.2734 Q2358.9063,239.4297 2359.4688,239.7266 L2359.4688,242.4453 Q2358.8438,241.8672 2358.25,241.6016 Q2357.6563,241.3203 2357.0313,241.3203 Q2355.6875,241.3203 2355,242.3984 Q2354.3125,243.4609 2354.3125,245.5547 Q2354.3125,247.6484 2355,248.7266 Q2355.6875,249.7891 2357.0313,249.7891 Q2357.6563,249.7891 2358.25,249.5234 Q2358.8438,249.2422 2359.4688,248.6641 L2359.4688,251.3828 Z " fill="#000000"/><text fill="#000000" font-family="Verdana" font-size="12" font-style="italic" lengthAdjust="spacing" textLength="84.4805" x="2396.7554" y="241.748">&#171;Component&#187;</text><text fill="#000000" font-family="Verdana" font-size="14" lengthAdjust="spacing" textLength="140.9912" x="2368.5" y="257.5732">VeiculoSpecification</text><line style="stroke:#000000;stroke-width:1;" x1="2344.5" x2="2511.4912" y1="265.875" y2="265.875"/><line style="stroke:#000000;stroke-width:1;" x1="2344.5" x2="2511.4912" y1="273.875" y2="273.875"/></g><!--class AreaPesquisaRepository--><g class="entity" data-entity="AreaPesquisaRepository" data-source-line="23" data-uid="ent0017" id="entity_AreaPesquisaRepository"><rect fill="#FFFFFF" height="44" rx="2.5" ry="2.5" style="stroke:#000000;stroke-width:1;" width="197.4697" x="291.5" y="356.6094"/><ellipse cx="304.5" cy="370.6094" fill="#FFFFFF" rx="9" ry="9" style="stroke:#000000;stroke-width:1;"/><path d="M300.4219,366.375 L300.4219,364.2188 L307.8125,364.2188 L307.8125,366.375 L305.3438,366.375 L305.3438,374.4531 L307.8125,374.4531 L307.8125,376.6094 L300.4219,376.6094 L300.4219,374.4531 L302.8906,374.4531 L302.8906,366.375 L300.4219,366.375 Z " fill="#000000"/><text fill="#000000" font-family="Verdana" font-size="14" font-style="italic" lengthAdjust="spacing" textLength="169.4697" x="316.5" y="375.4561">AreaPesquisaRepository</text><line style="stroke:#000000;stroke-width:1;" x1="292.5" x2="487.9697" y1="384.6094" y2="384.6094"/><line style="stroke:#000000;stroke-width:1;" x1="292.5" x2="487.9697" y1="392.6094" y2="392.6094"/></g><!--class EventoRepository--><g class="entity" data-entity="EventoRepository" data-source-line="24" data-uid="ent0018" id="entity_EventoRepository"><rect fill="#FFFFFF" height="44" rx="2.5" ry="2.5" style="stroke:#000000;stroke-width:1;" width="151.7441" x="922" y="356.6094"/><ellipse cx="935" cy="370.6094" fill="#FFFFFF" rx="9" ry="9" style="stroke:#000000;stroke-width:1;"/><path d="M930.9219,366.375 L930.9219,364.2188 L938.3125,364.2188 L938.3125,366.375 L935.8438,366.375 L935.8438,374.4531 L938.3125,374.4531 L938.3125,376.6094 L930.9219,376.6094 L930.9219,374.4531 L933.3906,374.4531 L933.3906,366.375 L930.9219,366.375 Z " fill="#000000"/><text fill="#000000" font-family="Verdana" font-size="14" font-style="italic" lengthAdjust="spacing" textLength="123.7441" x="947" y="375.4561">EventoRepository</text><line style="stroke:#000000;stroke-width:1;" x1="923" x2="1072.7441" y1="384.6094" y2="384.6094"/><line style="stroke:#000000;stroke-width:1;" x1="923" x2="1072.7441" y1="392.6094" y2="392.6094"/></g><!--class PeriodicoRepository--><g class="entity" data-entity="PeriodicoRepository" data-source-line="25" data-uid="ent0019" id="entity_PeriodicoRepository"><rect fill="#FFFFFF" height="44" rx="2.5" ry="2.5" style="stroke:#000000;stroke-width:1;" width="167.3779" x="1109.5" y="356.6094"/><ellipse cx="1122.5" cy="370.6094" fill="#FFFFFF" rx="9" ry="9" style="stroke:#000000;stroke-width:1;"/><path d="M1118.4219,366.375 L1118.4219,364.2188 L1125.8125,364.2188 L1125.8125,366.375 L1123.3438,366.375 L1123.3438,374.4531 L1125.8125,374.4531 L1125.8125,376.6094 L1118.4219,376.6094 L1118.4219,374.4531 L1120.8906,374.4531 L1120.8906,366.375 L1118.4219,366.375 Z " fill="#000000"/><text fill="#000000" font-family="Verdana" font-size="14" font-style="italic" lengthAdjust="spacing" textLength="139.3779" x="1134.5" y="375.4561">PeriodicoRepository</text><line style="stroke:#000000;stroke-width:1;" x1="1110.5" x2="1275.8779" y1="384.6094" y2="384.6094"/><line style="stroke:#000000;stroke-width:1;" x1="1110.5" x2="1275.8779" y1="392.6094" y2="392.6094"/></g><!--class UsuarioRepository--><g class="entity" data-entity="UsuarioRepository" data-source-line="26" data-uid="ent0020" id="entity_UsuarioRepository"><rect fill="#FFFFFF" height="44" rx="2.5" ry="2.5" style="stroke:#000000;stroke-width:1;" width="156.2764" x="524" y="356.6094"/><ellipse cx="537" cy="370.6094" fill="#FFFFFF" rx="9" ry="9" style="stroke:#000000;stroke-width:1;"/><path d="M532.9219,366.375 L532.9219,364.2188 L540.3125,364.2188 L540.3125,366.375 L537.8438,366.375 L537.8438,374.4531 L540.3125,374.4531 L540.3125,376.6094 L532.9219,376.6094 L532.9219,374.4531 L535.3906,374.4531 L535.3906,366.375 L532.9219,366.375 Z " fill="#000000"/><text fill="#000000" font-family="Verdana" font-size="14" font-style="italic" lengthAdjust="spacing" textLength="128.2764" x="549" y="375.4561">UsuarioRepository</text><line style="stroke:#000000;stroke-width:1;" x1="525" x2="679.2764" y1="384.6094" y2="384.6094"/><line style="stroke:#000000;stroke-width:1;" x1="525" x2="679.2764" y1="392.6094" y2="392.6094"/></g><!--class ProgramaRepository--><g class="entity" data-entity="ProgramaRepository" data-source-line="27" data-uid="ent0021" id="entity_ProgramaRepository"><rect fill="#FFFFFF" height="44" rx="2.5" ry="2.5" style="stroke:#000000;stroke-width:1;" width="171.2744" x="715.5" y="356.6094"/><ellipse cx="728.5" cy="370.6094" fill="#FFFFFF" rx="9" ry="9" style="stroke:#000000;stroke-width:1;"/><path d="M724.4219,366.375 L724.4219,364.2188 L731.8125,364.2188 L731.8125,366.375 L729.3438,366.375 L729.3438,374.4531 L731.8125,374.4531 L731.8125,376.6094 L724.4219,376.6094 L724.4219,374.4531 L726.8906,374.4531 L726.8906,366.375 L724.4219,366.375 Z " fill="#000000"/><text fill="#000000" font-family="Verdana" font-size="14" font-style="italic" lengthAdjust="spacing" textLength="143.2744" x="740.5" y="375.4561">ProgramaRepository</text><line style="stroke:#000000;stroke-width:1;" x1="716.5" x2="885.7744" y1="384.6094" y2="384.6094"/><line style="stroke:#000000;stroke-width:1;" x1="716.5" x2="885.7744" y1="392.6094" y2="392.6094"/></g><!--class LogRepository--><g class="entity" data-entity="LogRepository" data-source-line="28" data-uid="ent0022" id="entity_LogRepository"><rect fill="#FFFFFF" height="44" rx="2.5" ry="2.5" style="stroke:#000000;stroke-width:1;" width="128.3242" x="2032" y="356.6094"/><ellipse cx="2045" cy="370.6094" fill="#FFFFFF" rx="9" ry="9" style="stroke:#000000;stroke-width:1;"/><path d="M2040.9219,366.375 L2040.9219,364.2188 L2048.3125,364.2188 L2048.3125,366.375 L2045.8438,366.375 L2045.8438,374.4531 L2048.3125,374.4531 L2048.3125,376.6094 L2040.9219,376.6094 L2040.9219,374.4531 L2043.3906,374.4531 L2043.3906,366.375 L2040.9219,366.375 Z " fill="#000000"/><text fill="#000000" font-family="Verdana" font-size="14" font-style="italic" lengthAdjust="spacing" textLength="100.3242" x="2057" y="375.4561">LogRepository</text><line style="stroke:#000000;stroke-width:1;" x1="2033" x2="2159.3242" y1="384.6094" y2="384.6094"/><line style="stroke:#000000;stroke-width:1;" x1="2033" x2="2159.3242" y1="392.6094" y2="392.6094"/></g><!--class LogVeiculoRepository--><g class="entity" data-entity="LogVeiculoRepository" data-source-line="29" data-uid="ent0023" id="entity_LogVeiculoRepository"><rect fill="#FFFFFF" height="44" rx="2.5" ry="2.5" style="stroke:#000000;stroke-width:1;" width="179.4297" x="1547.5" y="356.6094"/><ellipse cx="1560.5" cy="370.6094" fill="#FFFFFF" rx="9" ry="9" style="stroke:#000000;stroke-width:1;"/><path d="M1556.4219,366.375 L1556.4219,364.2188 L1563.8125,364.2188 L1563.8125,366.375 L1561.3438,366.375 L1561.3438,374.4531 L1563.8125,374.4531 L1563.8125,376.6094 L1556.4219,376.6094 L1556.4219,374.4531 L1558.8906,374.4531 L1558.8906,366.375 L1556.4219,366.375 Z " fill="#000000"/><text fill="#000000" font-family="Verdana" font-size="14" font-style="italic" lengthAdjust="spacing" textLength="151.4297" x="1572.5" y="375.4561">LogVeiculoRepository</text><line style="stroke:#000000;stroke-width:1;" x1="1548.5" x2="1725.9297" y1="384.6094" y2="384.6094"/><line style="stroke:#000000;stroke-width:1;" x1="1548.5" x2="1725.9297" y1="392.6094" y2="392.6094"/></g><!--class JustificativaRecusaRepository--><g class="entity" data-entity="JustificativaRecusaRepository" data-source-line="30" data-uid="ent0024" id="entity_JustificativaRecusaRepository"><rect fill="#FFFFFF" height="44" rx="2.5" ry="2.5" style="stroke:#000000;stroke-width:1;" width="234.8691" x="1761.5" y="356.6094"/><ellipse cx="1774.5" cy="370.6094" fill="#FFFFFF" rx="9" ry="9" style="stroke:#000000;stroke-width:1;"/><path d="M1770.4219,366.375 L1770.4219,364.2188 L1777.8125,364.2188 L1777.8125,366.375 L1775.3438,366.375 L1775.3438,374.4531 L1777.8125,374.4531 L1777.8125,376.6094 L1770.4219,376.6094 L1770.4219,374.4531 L1772.8906,374.4531 L1772.8906,366.375 L1770.4219,366.375 Z " fill="#000000"/><text fill="#000000" font-family="Verdana" font-size="14" font-style="italic" lengthAdjust="spacing" textLength="206.8691" x="1786.5" y="375.4561">JustificativaRecusaRepository</text><line style="stroke:#000000;stroke-width:1;" x1="1762.5" x2="1995.3691" y1="384.6094" y2="384.6094"/><line style="stroke:#000000;stroke-width:1;" x1="1762.5" x2="1995.3691" y1="392.6094" y2="392.6094"/></g><!--class VeiculoPublicacaoRepository--><g class="entity" data-entity="VeiculoPublicacaoRepository" data-source-line="31" data-uid="ent0025" id="entity_VeiculoPublicacaoRepository"><rect fill="#FFFFFF" height="44" rx="2.5" ry="2.5" style="stroke:#000000;stroke-width:1;" width="229.2773" x="27.5" y="356.6094"/><ellipse cx="40.5" cy="370.6094" fill="#FFFFFF" rx="9" ry="9" style="stroke:#000000;stroke-width:1;"/><path d="M36.4219,366.375 L36.4219,364.2188 L43.8125,364.2188 L43.8125,366.375 L41.3438,366.375 L41.3438,374.4531 L43.8125,374.4531 L43.8125,376.6094 L36.4219,376.6094 L36.4219,374.4531 L38.8906,374.4531 L38.8906,366.375 L36.4219,366.375 Z " fill="#000000"/><text fill="#000000" font-family="Verdana" font-size="14" font-style="italic" lengthAdjust="spacing" textLength="201.2773" x="52.5" y="375.4561">VeiculoPublicacaoRepository</text><line style="stroke:#000000;stroke-width:1;" x1="28.5" x2="255.7773" y1="384.6094" y2="384.6094"/><line style="stroke:#000000;stroke-width:1;" x1="28.5" x2="255.7773" y1="392.6094" y2="392.6094"/></g><!--class RefreshTokenRepository--><g class="entity" data-entity="RefreshTokenRepository" data-source-line="32" data-uid="ent0026" id="entity_RefreshTokenRepository"><rect fill="#FFFFFF" height="44" rx="2.5" ry="2.5" style="stroke:#000000;stroke-width:1;" width="199.5889" x="1312" y="356.6094"/><ellipse cx="1325" cy="370.6094" fill="#FFFFFF" rx="9" ry="9" style="stroke:#000000;stroke-width:1;"/><path d="M1320.9219,366.375 L1320.9219,364.2188 L1328.3125,364.2188 L1328.3125,366.375 L1325.8438,366.375 L1325.8438,374.4531 L1328.3125,374.4531 L1328.3125,376.6094 L1320.9219,376.6094 L1320.9219,374.4531 L1323.3906,374.4531 L1323.3906,366.375 L1320.9219,366.375 Z " fill="#000000"/><text fill="#000000" font-family="Verdana" font-size="14" font-style="italic" lengthAdjust="spacing" textLength="171.5889" x="1337" y="375.4561">RefreshTokenRepository</text><line style="stroke:#000000;stroke-width:1;" x1="1313" x2="1510.5889" y1="384.6094" y2="384.6094"/><line style="stroke:#000000;stroke-width:1;" x1="1313" x2="1510.5889" y1="392.6094" y2="392.6094"/></g><!--class Periodico--><g class="entity" data-entity="Periodico" data-source-line="36" data-uid="ent0028" id="entity_Periodico"><rect fill="#FFFFFF" height="44" rx="2.5" ry="2.5" style="stroke:#000000;stroke-width:1;" width="92.3057" x="4163" y="356.6094"/><ellipse cx="4176" cy="370.6094" fill="#FFFFFF" rx="9" ry="9" style="stroke:#000000;stroke-width:1;"/><path d="M4178.9688,376.25 Q4178.3906,376.5469 4177.75,376.6875 Q4177.1094,376.8438 4176.4063,376.8438 Q4173.9063,376.8438 4172.5781,375.2031 Q4171.2656,373.5469 4171.2656,370.4219 Q4171.2656,367.2969 4172.5781,365.6406 Q4173.9063,363.9844 4176.4063,363.9844 Q4177.1094,363.9844 4177.75,364.1406 Q4178.4063,364.2969 4178.9688,364.5938 L4178.9688,367.3125 Q4178.3438,366.7344 4177.75,366.4688 Q4177.1563,366.1875 4176.5313,366.1875 Q4175.1875,366.1875 4174.5,367.2656 Q4173.8125,368.3281 4173.8125,370.4219 Q4173.8125,372.5156 4174.5,373.5938 Q4175.1875,374.6563 4176.5313,374.6563 Q4177.1563,374.6563 4177.75,374.3906 Q4178.3438,374.1094 4178.9688,373.5313 L4178.9688,376.25 Z " fill="#000000"/><text fill="#000000" font-family="Verdana" font-size="14" lengthAdjust="spacing" textLength="64.3057" x="4188" y="375.4561">Periodico</text><line style="stroke:#000000;stroke-width:1;" x1="4164" x2="4254.3057" y1="384.6094" y2="384.6094"/><line style="stroke:#000000;stroke-width:1;" x1="4164" x2="4254.3057" y1="392.6094" y2="392.6094"/></g><!--class Evento--><g class="entity" data-entity="Evento" data-source-line="37" data-uid="ent0029" id="entity_Evento"><rect fill="#FFFFFF" height="44" rx="2.5" ry="2.5" style="stroke:#000000;stroke-width:1;" width="76.6719" x="3523.5" y="356.6094"/><ellipse cx="3536.5" cy="370.6094" fill="#FFFFFF" rx="9" ry="9" style="stroke:#000000;stroke-width:1;"/><path d="M3539.4688,376.25 Q3538.8906,376.5469 3538.25,376.6875 Q3537.6094,376.8438 3536.9063,376.8438 Q3534.4063,376.8438 3533.0781,375.2031 Q3531.7656,373.5469 3531.7656,370.4219 Q3531.7656,367.2969 3533.0781,365.6406 Q3534.4063,363.9844 3536.9063,363.9844 Q3537.6094,363.9844 3538.25,364.1406 Q3538.9063,364.2969 3539.4688,364.5938 L3539.4688,367.3125 Q3538.8438,366.7344 3538.25,366.4688 Q3537.6563,366.1875 3537.0313,366.1875 Q3535.6875,366.1875 3535,367.2656 Q3534.3125,368.3281 3534.3125,370.4219 Q3534.3125,372.5156 3535,373.5938 Q3535.6875,374.6563 3537.0313,374.6563 Q3537.6563,374.6563 3538.25,374.3906 Q3538.8438,374.1094 3539.4688,373.5313 L3539.4688,376.25 Z " fill="#000000"/><text fill="#000000" font-family="Verdana" font-size="14" lengthAdjust="spacing" textLength="48.6719" x="3548.5" y="375.4561">Evento</text><line style="stroke:#000000;stroke-width:1;" x1="3524.5" x2="3599.1719" y1="384.6094" y2="384.6094"/><line style="stroke:#000000;stroke-width:1;" x1="3524.5" x2="3599.1719" y1="392.6094" y2="392.6094"/></g><!--class Usuario--><g class="entity" data-entity="Usuario" data-source-line="38" data-uid="ent0030" id="entity_Usuario"><rect fill="#FFFFFF" height="44" rx="2.5" ry="2.5" style="stroke:#000000;stroke-width:1;" width="81.2041" x="4290.5" y="356.6094"/><ellipse cx="4303.5" cy="370.6094" fill="#FFFFFF" rx="9" ry="9" style="stroke:#000000;stroke-width:1;"/><path d="M4306.4688,376.25 Q4305.8906,376.5469 4305.25,376.6875 Q4304.6094,376.8438 4303.9063,376.8438 Q4301.4063,376.8438 4300.0781,375.2031 Q4298.7656,373.5469 4298.7656,370.4219 Q4298.7656,367.2969 4300.0781,365.6406 Q4301.4063,363.9844 4303.9063,363.9844 Q4304.6094,363.9844 4305.25,364.1406 Q4305.9063,364.2969 4306.4688,364.5938 L4306.4688,367.3125 Q4305.8438,366.7344 4305.25,366.4688 Q4304.6563,366.1875 4304.0313,366.1875 Q4302.6875,366.1875 4302,367.2656 Q4301.3125,368.3281 4301.3125,370.4219 Q4301.3125,372.5156 4302,373.5938 Q4302.6875,374.6563 4304.0313,374.6563 Q4304.6563,374.6563 4305.25,374.3906 Q4305.8438,374.1094 4306.4688,373.5313 L4306.4688,376.25 Z " fill="#000000"/><text fill="#000000" font-family="Verdana" font-size="14" lengthAdjust="spacing" textLength="53.2041" x="4315.5" y="375.4561">Usuario</text><line style="stroke:#000000;stroke-width:1;" x1="4291.5" x2="4370.7041" y1="384.6094" y2="384.6094"/><line style="stroke:#000000;stroke-width:1;" x1="4291.5" x2="4370.7041" y1="392.6094" y2="392.6094"/></g><!--class VeiculoPublicacao--><g class="entity" data-entity="VeiculoPublicacao" data-source-line="39" data-uid="ent0031" id="entity_VeiculoPublicacao"><rect fill="#FFFFFF" height="44" rx="2.5" ry="2.5" style="stroke:#000000;stroke-width:1;" width="154.2051" x="2587" y="356.6094"/><ellipse cx="2600" cy="370.6094" fill="#FFFFFF" rx="9" ry="9" style="stroke:#000000;stroke-width:1;"/><path d="M2602.9688,376.25 Q2602.3906,376.5469 2601.75,376.6875 Q2601.1094,376.8438 2600.4063,376.8438 Q2597.9063,376.8438 2596.5781,375.2031 Q2595.2656,373.5469 2595.2656,370.4219 Q2595.2656,367.2969 2596.5781,365.6406 Q2597.9063,363.9844 2600.4063,363.9844 Q2601.1094,363.9844 2601.75,364.1406 Q2602.4063,364.2969 2602.9688,364.5938 L2602.9688,367.3125 Q2602.3438,366.7344 2601.75,366.4688 Q2601.1563,366.1875 2600.5313,366.1875 Q2599.1875,366.1875 2598.5,367.2656 Q2597.8125,368.3281 2597.8125,370.4219 Q2597.8125,372.5156 2598.5,373.5938 Q2599.1875,374.6563 2600.5313,374.6563 Q2601.1563,374.6563 2601.75,374.3906 Q2602.3438,374.1094 2602.9688,373.5313 L2602.9688,376.25 Z " fill="#000000"/><text fill="#000000" font-family="Verdana" font-size="14" lengthAdjust="spacing" textLength="126.2051" x="2612" y="375.4561">VeiculoPublicacao</text><line style="stroke:#000000;stroke-width:1;" x1="2588" x2="2740.2051" y1="384.6094" y2="384.6094"/><line style="stroke:#000000;stroke-width:1;" x1="2588" x2="2740.2051" y1="392.6094" y2="392.6094"/></g><!--class Log--><g class="entity" data-entity="Log" data-source-line="40" data-uid="ent0032" id="entity_Log"><rect fill="#FFFFFF" height="44" rx="2.5" ry="2.5" style="stroke:#000000;stroke-width:1;" width="53.252" x="2339.5" y="356.6094"/><ellipse cx="2352.5" cy="370.6094" fill="#FFFFFF" rx="9" ry="9" style="stroke:#000000;stroke-width:1;"/><path d="M2355.4688,376.25 Q2354.8906,376.5469 2354.25,376.6875 Q2353.6094,376.8438 2352.9063,376.8438 Q2350.4063,376.8438 2349.0781,375.2031 Q2347.7656,373.5469 2347.7656,370.4219 Q2347.7656,367.2969 2349.0781,365.6406 Q2350.4063,363.9844 2352.9063,363.9844 Q2353.6094,363.9844 2354.25,364.1406 Q2354.9063,364.2969 2355.4688,364.5938 L2355.4688,367.3125 Q2354.8438,366.7344 2354.25,366.4688 Q2353.6563,366.1875 2353.0313,366.1875 Q2351.6875,366.1875 2351,367.2656 Q2350.3125,368.3281 2350.3125,370.4219 Q2350.3125,372.5156 2351,373.5938 Q2351.6875,374.6563 2353.0313,374.6563 Q2353.6563,374.6563 2354.25,374.3906 Q2354.8438,374.1094 2355.4688,373.5313 L2355.4688,376.25 Z " fill="#000000"/><text fill="#000000" font-family="Verdana" font-size="14" lengthAdjust="spacing" textLength="25.252" x="2364.5" y="375.4561">Log</text><line style="stroke:#000000;stroke-width:1;" x1="2340.5" x2="2391.752" y1="384.6094" y2="384.6094"/><line style="stroke:#000000;stroke-width:1;" x1="2340.5" x2="2391.752" y1="392.6094" y2="392.6094"/></g><!--class LogVeiculo--><g class="entity" data-entity="LogVeiculo" data-source-line="41" data-uid="ent0033" id="entity_LogVeiculo"><rect fill="#FFFFFF" height="44" rx="2.5" ry="2.5" style="stroke:#000000;stroke-width:1;" width="104.3574" x="2776" y="356.6094"/><ellipse cx="2789" cy="370.6094" fill="#FFFFFF" rx="9" ry="9" style="stroke:#000000;stroke-width:1;"/><path d="M2791.9688,376.25 Q2791.3906,376.5469 2790.75,376.6875 Q2790.1094,376.8438 2789.4063,376.8438 Q2786.9063,376.8438 2785.5781,375.2031 Q2784.2656,373.5469 2784.2656,370.4219 Q2784.2656,367.2969 2785.5781,365.6406 Q2786.9063,363.9844 2789.4063,363.9844 Q2790.1094,363.9844 2790.75,364.1406 Q2791.4063,364.2969 2791.9688,364.5938 L2791.9688,367.3125 Q2791.3438,366.7344 2790.75,366.4688 Q2790.1563,366.1875 2789.5313,366.1875 Q2788.1875,366.1875 2787.5,367.2656 Q2786.8125,368.3281 2786.8125,370.4219 Q2786.8125,372.5156 2787.5,373.5938 Q2788.1875,374.6563 2789.5313,374.6563 Q2790.1563,374.6563 2790.75,374.3906 Q2791.3438,374.1094 2791.9688,373.5313 L2791.9688,376.25 Z " fill="#000000"/><text fill="#000000" font-family="Verdana" font-size="14" lengthAdjust="spacing" textLength="76.3574" x="2801" y="375.4561">LogVeiculo</text><line style="stroke:#000000;stroke-width:1;" x1="2777" x2="2879.3574" y1="384.6094" y2="384.6094"/><line style="stroke:#000000;stroke-width:1;" x1="2777" x2="2879.3574" y1="392.6094" y2="392.6094"/></g><!--class JustificativaRecusa--><g class="entity" data-entity="JustificativaRecusa" data-source-line="42" data-uid="ent0034" id="entity_JustificativaRecusa"><rect fill="#FFFFFF" height="44" rx="2.5" ry="2.5" style="stroke:#000000;stroke-width:1;" width="159.7969" x="4567" y="356.6094"/><ellipse cx="4580" cy="370.6094" fill="#FFFFFF" rx="9" ry="9" style="stroke:#000000;stroke-width:1;"/><path d="M4582.9688,376.25 Q4582.3906,376.5469 4581.75,376.6875 Q4581.1094,376.8438 4580.4063,376.8438 Q4577.9063,376.8438 4576.5781,375.2031 Q4575.2656,373.5469 4575.2656,370.4219 Q4575.2656,367.2969 4576.5781,365.6406 Q4577.9063,363.9844 4580.4063,363.9844 Q4581.1094,363.9844 4581.75,364.1406 Q4582.4063,364.2969 4582.9688,364.5938 L4582.9688,367.3125 Q4582.3438,366.7344 4581.75,366.4688 Q4581.1563,366.1875 4580.5313,366.1875 Q4579.1875,366.1875 4578.5,367.2656 Q4577.8125,368.3281 4577.8125,370.4219 Q4577.8125,372.5156 4578.5,373.5938 Q4579.1875,374.6563 4580.5313,374.6563 Q4581.1563,374.6563 4581.75,374.3906 Q4582.3438,374.1094 4582.9688,373.5313 L4582.9688,376.25 Z " fill="#000000"/><text fill="#000000" font-family="Verdana" font-size="14" lengthAdjust="spacing" textLength="131.7969" x="4592" y="375.4561">JustificativaRecusa</text><line style="stroke:#000000;stroke-width:1;" x1="4568" x2="4725.7969" y1="384.6094" y2="384.6094"/><line style="stroke:#000000;stroke-width:1;" x1="4568" x2="4725.7969" y1="392.6094" y2="392.6094"/></g><!--class AreaPesquisa--><g class="entity" data-entity="AreaPesquisa" data-source-line="43" data-uid="ent0035" id="entity_AreaPesquisa"><rect fill="#FFFFFF" height="44" rx="2.5" ry="2.5" style="stroke:#000000;stroke-width:1;" width="122.3975" x="3636" y="356.6094"/><ellipse cx="3649" cy="370.6094" fill="#FFFFFF" rx="9" ry="9" style="stroke:#000000;stroke-width:1;"/><path d="M3651.9688,376.25 Q3651.3906,376.5469 3650.75,376.6875 Q3650.1094,376.8438 3649.4063,376.8438 Q3646.9063,376.8438 3645.5781,375.2031 Q3644.2656,373.5469 3644.2656,370.4219 Q3644.2656,367.2969 3645.5781,365.6406 Q3646.9063,363.9844 3649.4063,363.9844 Q3650.1094,363.9844 3650.75,364.1406 Q3651.4063,364.2969 3651.9688,364.5938 L3651.9688,367.3125 Q3651.3438,366.7344 3650.75,366.4688 Q3650.1563,366.1875 3649.5313,366.1875 Q3648.1875,366.1875 3647.5,367.2656 Q3646.8125,368.3281 3646.8125,370.4219 Q3646.8125,372.5156 3647.5,373.5938 Q3648.1875,374.6563 3649.5313,374.6563 Q3650.1563,374.6563 3650.75,374.3906 Q3651.3438,374.1094 3651.9688,373.5313 L3651.9688,376.25 Z " fill="#000000"/><text fill="#000000" font-family="Verdana" font-size="14" lengthAdjust="spacing" textLength="94.3975" x="3661" y="375.4561">AreaPesquisa</text><line style="stroke:#000000;stroke-width:1;" x1="3637" x2="3757.3975" y1="384.6094" y2="384.6094"/><line style="stroke:#000000;stroke-width:1;" x1="3637" x2="3757.3975" y1="392.6094" y2="392.6094"/></g><!--class Programa--><g class="entity" data-entity="Programa" data-source-line="44" data-uid="ent0036" id="entity_Programa"><rect fill="#FFFFFF" height="44" rx="2.5" ry="2.5" style="stroke:#000000;stroke-width:1;" width="96.2021" x="3793" y="356.6094"/><ellipse cx="3806" cy="370.6094" fill="#FFFFFF" rx="9" ry="9" style="stroke:#000000;stroke-width:1;"/><path d="M3808.9688,376.25 Q3808.3906,376.5469 3807.75,376.6875 Q3807.1094,376.8438 3806.4063,376.8438 Q3803.9063,376.8438 3802.5781,375.2031 Q3801.2656,373.5469 3801.2656,370.4219 Q3801.2656,367.2969 3802.5781,365.6406 Q3803.9063,363.9844 3806.4063,363.9844 Q3807.1094,363.9844 3807.75,364.1406 Q3808.4063,364.2969 3808.9688,364.5938 L3808.9688,367.3125 Q3808.3438,366.7344 3807.75,366.4688 Q3807.1563,366.1875 3806.5313,366.1875 Q3805.1875,366.1875 3804.5,367.2656 Q3803.8125,368.3281 3803.8125,370.4219 Q3803.8125,372.5156 3804.5,373.5938 Q3805.1875,374.6563 3806.5313,374.6563 Q3807.1563,374.6563 3807.75,374.3906 Q3808.3438,374.1094 3808.9688,373.5313 L3808.9688,376.25 Z " fill="#000000"/><text fill="#000000" font-family="Verdana" font-size="14" lengthAdjust="spacing" textLength="68.2021" x="3818" y="375.4561">Programa</text><line style="stroke:#000000;stroke-width:1;" x1="3794" x2="3888.2021" y1="384.6094" y2="384.6094"/><line style="stroke:#000000;stroke-width:1;" x1="3794" x2="3888.2021" y1="392.6094" y2="392.6094"/></g><!--class RefreshToken--><g class="entity" data-entity="RefreshToken" data-source-line="45" data-uid="ent0037" id="entity_RefreshToken"><rect fill="#FFFFFF" height="44" rx="2.5" ry="2.5" style="stroke:#000000;stroke-width:1;" width="124.5166" x="4406.5" y="356.6094"/><ellipse cx="4419.5" cy="370.6094" fill="#FFFFFF" rx="9" ry="9" style="stroke:#000000;stroke-width:1;"/><path d="M4422.4688,376.25 Q4421.8906,376.5469 4421.25,376.6875 Q4420.6094,376.8438 4419.9063,376.8438 Q4417.4063,376.8438 4416.0781,375.2031 Q4414.7656,373.5469 4414.7656,370.4219 Q4414.7656,367.2969 4416.0781,365.6406 Q4417.4063,363.9844 4419.9063,363.9844 Q4420.6094,363.9844 4421.25,364.1406 Q4421.9063,364.2969 4422.4688,364.5938 L4422.4688,367.3125 Q4421.8438,366.7344 4421.25,366.4688 Q4420.6563,366.1875 4420.0313,366.1875 Q4418.6875,366.1875 4418,367.2656 Q4417.3125,368.3281 4417.3125,370.4219 Q4417.3125,372.5156 4418,373.5938 Q4418.6875,374.6563 4420.0313,374.6563 Q4420.6563,374.6563 4421.25,374.3906 Q4421.8438,374.1094 4422.4688,373.5313 L4422.4688,376.25 Z " fill="#000000"/><text fill="#000000" font-family="Verdana" font-size="14" lengthAdjust="spacing" textLength="96.5166" x="4431.5" y="375.4561">RefreshToken</text><line style="stroke:#000000;stroke-width:1;" x1="4407.5" x2="4530.0166" y1="384.6094" y2="384.6094"/><line style="stroke:#000000;stroke-width:1;" x1="4407.5" x2="4530.0166" y1="392.6094" y2="392.6094"/></g><!--class PeriodicoRequestDTO--><g class="entity" data-entity="PeriodicoRequestDTO" data-source-line="46" data-uid="ent0038" id="entity_PeriodicoRequestDTO"><rect fill="#FFFFFF" height="44" rx="2.5" ry="2.5" style="stroke:#000000;stroke-width:1;" width="180.1543" x="3104" y="356.6094"/><ellipse cx="3117" cy="370.6094" fill="#FFFFFF" rx="9" ry="9" style="stroke:#000000;stroke-width:1;"/><path d="M3119.9688,376.25 Q3119.3906,376.5469 3118.75,376.6875 Q3118.1094,376.8438 3117.4063,376.8438 Q3114.9063,376.8438 3113.5781,375.2031 Q3112.2656,373.5469 3112.2656,370.4219 Q3112.2656,367.2969 3113.5781,365.6406 Q3114.9063,363.9844 3117.4063,363.9844 Q3118.1094,363.9844 3118.75,364.1406 Q3119.4063,364.2969 3119.9688,364.5938 L3119.9688,367.3125 Q3119.3438,366.7344 3118.75,366.4688 Q3118.1563,366.1875 3117.5313,366.1875 Q3116.1875,366.1875 3115.5,367.2656 Q3114.8125,368.3281 3114.8125,370.4219 Q3114.8125,372.5156 3115.5,373.5938 Q3116.1875,374.6563 3117.5313,374.6563 Q3118.1563,374.6563 3118.75,374.3906 Q3119.3438,374.1094 3119.9688,373.5313 L3119.9688,376.25 Z " fill="#000000"/><text fill="#000000" font-family="Verdana" font-size="14" lengthAdjust="spacing" textLength="152.1543" x="3129" y="375.4561">PeriodicoRequestDTO</text><line style="stroke:#000000;stroke-width:1;" x1="3105" x2="3283.1543" y1="384.6094" y2="384.6094"/><line style="stroke:#000000;stroke-width:1;" x1="3105" x2="3283.1543" y1="392.6094" y2="392.6094"/></g><!--class EventoCreateDTO--><g class="entity" data-entity="EventoCreateDTO" data-source-line="47" data-uid="ent0039" id="entity_EventoCreateDTO"><rect fill="#FFFFFF" height="44" rx="2.5" ry="2.5" style="stroke:#000000;stroke-width:1;" width="153.8496" x="2915" y="356.6094"/><ellipse cx="2928" cy="370.6094" fill="#FFFFFF" rx="9" ry="9" style="stroke:#000000;stroke-width:1;"/><path d="M2930.9688,376.25 Q2930.3906,376.5469 2929.75,376.6875 Q2929.1094,376.8438 2928.4063,376.8438 Q2925.9063,376.8438 2924.5781,375.2031 Q2923.2656,373.5469 2923.2656,370.4219 Q2923.2656,367.2969 2924.5781,365.6406 Q2925.9063,363.9844 2928.4063,363.9844 Q2929.1094,363.9844 2929.75,364.1406 Q2930.4063,364.2969 2930.9688,364.5938 L2930.9688,367.3125 Q2930.3438,366.7344 2929.75,366.4688 Q2929.1563,366.1875 2928.5313,366.1875 Q2927.1875,366.1875 2926.5,367.2656 Q2925.8125,368.3281 2925.8125,370.4219 Q2925.8125,372.5156 2926.5,373.5938 Q2927.1875,374.6563 2928.5313,374.6563 Q2929.1563,374.6563 2929.75,374.3906 Q2930.3438,374.1094 2930.9688,373.5313 L2930.9688,376.25 Z " fill="#000000"/><text fill="#000000" font-family="Verdana" font-size="14" lengthAdjust="spacing" textLength="125.8496" x="2940" y="375.4561">EventoCreateDTO</text><line style="stroke:#000000;stroke-width:1;" x1="2916" x2="3067.8496" y1="384.6094" y2="384.6094"/><line style="stroke:#000000;stroke-width:1;" x1="2916" x2="3067.8496" y1="392.6094" y2="392.6094"/></g><!--class UsuarioRequestDTO--><g class="entity" data-entity="UsuarioRequestDTO" data-source-line="48" data-uid="ent0040" id="entity_UsuarioRequestDTO"><rect fill="#FFFFFF" height="44" rx="2.5" ry="2.5" style="stroke:#000000;stroke-width:1;" width="169.0527" x="3319.5" y="356.6094"/><ellipse cx="3332.5" cy="370.6094" fill="#FFFFFF" rx="9" ry="9" style="stroke:#000000;stroke-width:1;"/><path d="M3335.4688,376.25 Q3334.8906,376.5469 3334.25,376.6875 Q3333.6094,376.8438 3332.9063,376.8438 Q3330.4063,376.8438 3329.0781,375.2031 Q3327.7656,373.5469 3327.7656,370.4219 Q3327.7656,367.2969 3329.0781,365.6406 Q3330.4063,363.9844 3332.9063,363.9844 Q3333.6094,363.9844 3334.25,364.1406 Q3334.9063,364.2969 3335.4688,364.5938 L3335.4688,367.3125 Q3334.8438,366.7344 3334.25,366.4688 Q3333.6563,366.1875 3333.0313,366.1875 Q3331.6875,366.1875 3331,367.2656 Q3330.3125,368.3281 3330.3125,370.4219 Q3330.3125,372.5156 3331,373.5938 Q3331.6875,374.6563 3333.0313,374.6563 Q3333.6563,374.6563 3334.25,374.3906 Q3334.8438,374.1094 3335.4688,373.5313 L3335.4688,376.25 Z " fill="#000000"/><text fill="#000000" font-family="Verdana" font-size="14" lengthAdjust="spacing" textLength="141.0527" x="3344.5" y="375.4561">UsuarioRequestDTO</text><line style="stroke:#000000;stroke-width:1;" x1="3320.5" x2="3487.5527" y1="384.6094" y2="384.6094"/><line style="stroke:#000000;stroke-width:1;" x1="3320.5" x2="3487.5527" y1="392.6094" y2="392.6094"/></g><!--class FiltroVeiculoRequestDTO--><g class="entity" data-entity="FiltroVeiculoRequestDTO" data-source-line="49" data-uid="ent0041" id="entity_FiltroVeiculoRequestDTO"><rect fill="#FFFFFF" height="44" rx="2.5" ry="2.5" style="stroke:#000000;stroke-width:1;" width="202.5967" x="3924.5" y="356.6094"/><ellipse cx="3937.5" cy="370.6094" fill="#FFFFFF" rx="9" ry="9" style="stroke:#000000;stroke-width:1;"/><path d="M3940.4688,376.25 Q3939.8906,376.5469 3939.25,376.6875 Q3938.6094,376.8438 3937.9063,376.8438 Q3935.4063,376.8438 3934.0781,375.2031 Q3932.7656,373.5469 3932.7656,370.4219 Q3932.7656,367.2969 3934.0781,365.6406 Q3935.4063,363.9844 3937.9063,363.9844 Q3938.6094,363.9844 3939.25,364.1406 Q3939.9063,364.2969 3940.4688,364.5938 L3940.4688,367.3125 Q3939.8438,366.7344 3939.25,366.4688 Q3938.6563,366.1875 3938.0313,366.1875 Q3936.6875,366.1875 3936,367.2656 Q3935.3125,368.3281 3935.3125,370.4219 Q3935.3125,372.5156 3936,373.5938 Q3936.6875,374.6563 3938.0313,374.6563 Q3938.6563,374.6563 3939.25,374.3906 Q3939.8438,374.1094 3940.4688,373.5313 L3940.4688,376.25 Z " fill="#000000"/><text fill="#000000" font-family="Verdana" font-size="14" lengthAdjust="spacing" textLength="174.5967" x="3949.5" y="375.4561">FiltroVeiculoRequestDTO</text><line style="stroke:#000000;stroke-width:1;" x1="3925.5" x2="4126.0967" y1="384.6094" y2="384.6094"/><line style="stroke:#000000;stroke-width:1;" x1="3925.5" x2="4126.0967" y1="392.6094" y2="392.6094"/></g><!--class StatusVeiculo--><g class="entity" data-entity="StatusVeiculo" data-source-line="50" data-uid="ent0042" id="entity_StatusVeiculo"><rect fill="#FFFFFF" height="44" rx="2.5" ry="2.5" style="stroke:#000000;stroke-width:1;" width="123.7168" x="2428" y="356.6094"/><ellipse cx="2441" cy="370.6094" fill="#FFFFFF" rx="9" ry="9" style="stroke:#000000;stroke-width:1;"/><path d="M2445.1094,376.6094 L2437.3906,376.6094 L2437.3906,364.2188 L2445.1094,364.2188 L2445.1094,366.375 L2439.8438,366.375 L2439.8438,369.0469 L2444.6094,369.0469 L2444.6094,371.2031 L2439.8438,371.2031 L2439.8438,374.4531 L2445.1094,374.4531 L2445.1094,376.6094 Z " fill="#000000"/><text fill="#000000" font-family="Verdana" font-size="14" lengthAdjust="spacing" textLength="95.7168" x="2453" y="375.4561">StatusVeiculo</text><line style="stroke:#000000;stroke-width:1;" x1="2429" x2="2550.7168" y1="384.6094" y2="384.6094"/><line style="stroke:#000000;stroke-width:1;" x1="2429" x2="2550.7168" y1="392.6094" y2="392.6094"/></g><!--class AcaoLog--><g class="entity" data-entity="AcaoLog" data-source-line="51" data-uid="ent0043" id="entity_AcaoLog"><rect fill="#FFFFFF" height="44" rx="2.5" ry="2.5" style="stroke:#000000;stroke-width:1;" width="87.6709" x="2216" y="356.6094"/><ellipse cx="2229" cy="370.6094" fill="#FFFFFF" rx="9" ry="9" style="stroke:#000000;stroke-width:1;"/><path d="M2233.1094,376.6094 L2225.3906,376.6094 L2225.3906,364.2188 L2233.1094,364.2188 L2233.1094,366.375 L2227.8438,366.375 L2227.8438,369.0469 L2232.6094,369.0469 L2232.6094,371.2031 L2227.8438,371.2031 L2227.8438,374.4531 L2233.1094,374.4531 L2233.1094,376.6094 Z " fill="#000000"/><text fill="#000000" font-family="Verdana" font-size="14" lengthAdjust="spacing" textLength="59.6709" x="2241" y="375.4561">AcaoLog</text><line style="stroke:#000000;stroke-width:1;" x1="2217" x2="2302.6709" y1="384.6094" y2="384.6094"/><line style="stroke:#000000;stroke-width:1;" x1="2217" x2="2302.6709" y1="392.6094" y2="392.6094"/></g><!--link CriarUsuarioService to UsuarioRepository--><g class="link" data-entity-1="CriarUsuarioService" data-entity-2="UsuarioRepository" data-source-line="56" data-uid="lnk44" id="link_CriarUsuarioService_UsuarioRepository"><path codeLine="56" d="M2130.23,162.4694 C2124.76,163.6394 2119.32,164.6994 2114,165.6094 C1758.15,226.2594 1651.78,128.8594 1304,225.6094 C1228.17,246.6994 1222.39,286.6494 1146,305.6094 C1097.68,317.5994 745.52,298.7594 698,313.6094 C670.47,322.2094 648.1642,337.5662 629.8642,352.6962" fill="none" id="CriarUsuarioService-to-UsuarioRepository" style="stroke:#000000;stroke-width:1;"/><polygon fill="#000000" points="625.24,356.5194,634.7251,353.8674,629.0935,353.3334,629.6275,347.7018,625.24,356.5194" style="stroke:#000000;stroke-width:1;"/></g><!--link CriarUsuarioService to AreaPesquisaRepository--><g class="link" data-entity-1="CriarUsuarioService" data-entity-2="AreaPesquisaRepository" data-source-line="57" data-uid="lnk45" id="link_CriarUsuarioService_AreaPesquisaRepository"><path codeLine="57" d="M2130.25,162.5394 C2124.77,163.6994 2119.32,164.7394 2114,165.6094 C1685.13,235.9494 1568.4,165.3294 1138,225.6094 C974.39,248.5294 938.95,285.2794 775,305.6094 C715.87,312.9394 564.5,297.9894 507,313.6094 C474.83,322.3494 446.828,338.1898 424.108,353.2798" fill="none" id="CriarUsuarioService-to-AreaPesquisaRepository" style="stroke:#000000;stroke-width:1;"/><polygon fill="#000000" points="419.11,356.5994,428.8201,354.9521,423.275,353.8331,424.394,348.288,419.11,356.5994" style="stroke:#000000;stroke-width:1;"/></g><!--link CriarUsuarioService to ProgramaRepository--><g class="link" data-entity-1="CriarUsuarioService" data-entity-2="ProgramaRepository" data-source-line="58" data-uid="lnk46" id="link_CriarUsuarioService_ProgramaRepository"><path codeLine="58" d="M2130.48,162.2894 C2124.93,163.5094 2119.4,164.6394 2114,165.6094 C1830.66,216.6494 1745.93,146.8894 1469,225.6094 C1392.14,247.4594 1385.6,286.5794 1308,305.6094 C1264.5,316.2794 947.97,300.9894 905,313.6094 C875.71,322.2194 851.2433,337.7672 831.2633,352.8972" fill="none" id="CriarUsuarioService-to-ProgramaRepository" style="stroke:#000000;stroke-width:1;"/><polygon fill="#000000" points="826.48,356.5194,836.0697,354.275,830.4661,353.5009,831.2401,347.8973,826.48,356.5194" style="stroke:#000000;stroke-width:1;"/></g><!--link CriarUsuarioService to RegistrarLogService--><g class="link" data-entity-1="CriarUsuarioService" data-entity-2="RegistrarLogService" data-source-line="59" data-uid="lnk47" id="link_CriarUsuarioService_RegistrarLogService"><path codeLine="59" d="M2203.34,165.6294 C2196.21,183.6694 2189.0838,201.7288 2181.9438,219.8088" fill="none" id="CriarUsuarioService-to-RegistrarLogService" style="stroke:#000000;stroke-width:1;"/><polygon fill="#000000" points="2179.74,225.3894,2186.7662,218.4877,2181.5765,220.7389,2179.3254,215.5492,2179.74,225.3894" style="stroke:#000000;stroke-width:1;"/></g><!--link CriarEventoService to EventoRepository--><g class="link" data-entity-1="CriarEventoService" data-entity-2="EventoRepository" data-source-line="60" data-uid="lnk48" id="link_CriarEventoService_EventoRepository"><path codeLine="60" d="M1720.92,161.7794 C1714.88,163.1794 1708.86,164.4794 1703,165.6094 C1475.44,209.5594 1398.56,135.5894 1185,225.6094 C1113.29,255.8394 1051.0941,317.9289 1020.2341,352.0589" fill="none" id="CriarEventoService-to-EventoRepository" style="stroke:#000000;stroke-width:1;"/><polygon fill="#000000" points="1016.21,356.5094,1025.2131,352.5164,1019.5634,352.8006,1019.2791,347.1509,1016.21,356.5094" style="stroke:#000000;stroke-width:1;"/></g><!--link CriarEventoService to AreaPesquisaRepository--><g class="link" data-entity-1="CriarEventoService" data-entity-2="AreaPesquisaRepository" data-source-line="61" data-uid="lnk49" id="link_CriarEventoService_AreaPesquisaRepository"><path codeLine="61" d="M1720.98,162.1194 C1714.93,163.4494 1708.89,164.6294 1703,165.6094 C1288.3,234.6094 1171.05,142.1994 759,225.6094 C642.73,249.1494 615.41,265.4294 507,313.6094 C478.54,326.2594 452.8757,340.2614 430.0057,353.5714" fill="none" id="CriarEventoService-to-AreaPesquisaRepository" style="stroke:#000000;stroke-width:1;"/><polygon fill="#000000" points="424.82,356.5894,434.6106,355.5195,429.1414,354.0744,430.5866,348.6052,424.82,356.5894" style="stroke:#000000;stroke-width:1;"/></g><!--link CriarEventoService to UsuarioRepository--><g class="link" data-entity-1="CriarEventoService" data-entity-2="UsuarioRepository" data-source-line="62" data-uid="lnk50" id="link_CriarEventoService_UsuarioRepository"><path codeLine="62" d="M1720.95,161.9294 C1714.9,163.2894 1708.87,164.5394 1703,165.6094 C1420.16,216.9494 1342.35,177.1694 1059,225.6094 C914.92,250.2394 882.74,274.1394 740,305.6094 C721.44,309.6994 715.59,306.4194 698,313.6094 C672.23,324.1494 650.8933,338.4479 632.4333,352.6679" fill="none" id="CriarEventoService-to-UsuarioRepository" style="stroke:#000000;stroke-width:1;"/><polygon fill="#000000" points="627.68,356.3294,637.2509,354.006,631.641,353.2781,632.3689,347.6683,627.68,356.3294" style="stroke:#000000;stroke-width:1;"/></g><!--link CriarEventoService to RegistrarLogService--><g class="link" data-entity-1="CriarEventoService" data-entity-2="RegistrarLogService" data-source-line="63" data-uid="lnk51" id="link_CriarEventoService_RegistrarLogService"><path codeLine="63" d="M1883.45,163.9094 C1943.11,182.4394 2018.1299,205.7499 2078.5399,224.5099" fill="none" id="CriarEventoService-to-RegistrarLogService" style="stroke:#000000;stroke-width:1;"/><polygon fill="#000000" points="2084.27,226.2894,2076.8612,219.8002,2079.4949,224.8065,2074.4886,227.4403,2084.27,226.2894" style="stroke:#000000;stroke-width:1;"/></g><!--link CriarPeriodicoService to PeriodicoRepository--><g class="link" data-entity-1="CriarPeriodicoService" data-entity-2="PeriodicoRepository" data-source-line="64" data-uid="lnk52" id="link_CriarPeriodicoService_PeriodicoRepository"><path codeLine="64" d="M1917.77,161.9094 C1912.11,163.2094 1906.48,164.4594 1901,165.6094 C1629.67,222.6094 1544.33,192.3694 1295,313.6094 C1269.62,325.9494 1247.6079,339.7048 1227.7779,353.1348" fill="none" id="CriarPeriodicoService-to-PeriodicoRepository" style="stroke:#000000;stroke-width:1;"/><polygon fill="#000000" points="1222.81,356.4994,1232.5049,354.7645,1226.9499,353.6956,1228.0188,348.1406,1222.81,356.4994" style="stroke:#000000;stroke-width:1;"/></g><!--link CriarPeriodicoService to AreaPesquisaRepository--><g class="link" data-entity-1="CriarPeriodicoService" data-entity-2="AreaPesquisaRepository" data-source-line="65" data-uid="lnk53" id="link_CriarPeriodicoService_AreaPesquisaRepository"><path codeLine="65" d="M1917.9,162.6194 C1912.21,163.7394 1906.54,164.7594 1901,165.6094 C1429.8,238.1194 1291.05,104.2794 830,225.6094 C752.34,246.0494 745.72,285.4194 668,305.6094 C598.66,323.6194 575.95,294.1494 507,313.6094 C475.14,322.5994 447.3722,338.2213 424.6522,353.1713" fill="none" id="CriarPeriodicoService-to-AreaPesquisaRepository" style="stroke:#000000;stroke-width:1;"/><polygon fill="#000000" points="419.64,356.4694,429.3571,354.8637,423.8169,353.721,424.9596,348.1807,419.64,356.4694" style="stroke:#000000;stroke-width:1;"/></g><!--link CriarPeriodicoService to UsuarioRepository--><g class="link" data-entity-1="CriarPeriodicoService" data-entity-2="UsuarioRepository" data-source-line="66" data-uid="lnk54" id="link_CriarPeriodicoService_UsuarioRepository"><path codeLine="66" d="M1917.85,162.3194 C1912.17,163.5194 1906.52,164.6294 1901,165.6094 C1643.66,211.3194 1574.35,186.0294 1316,225.6094 C1140.67,252.4694 1101.13,284.6394 925,305.6094 C874.88,311.5794 746.04,298.1294 698,313.6094 C670.74,322.3894 648.6211,337.5268 630.3011,352.5368" fill="none" id="CriarPeriodicoService-to-UsuarioRepository" style="stroke:#000000;stroke-width:1;"/><polygon fill="#000000" points="625.66,356.3394,635.1568,353.7296,629.5276,353.1705,630.0867,347.5414,625.66,356.3394" style="stroke:#000000;stroke-width:1;"/></g><!--link CriarPeriodicoService to RegistrarLogService--><g class="link" data-entity-1="CriarPeriodicoService" data-entity-2="RegistrarLogService" data-source-line="67" data-uid="lnk55" id="link_CriarPeriodicoService_RegistrarLogService"><path codeLine="67" d="M2045.39,165.6294 C2071.12,183.7294 2099.9635,204.0259 2125.6935,222.1359" fill="none" id="CriarPeriodicoService-to-RegistrarLogService" style="stroke:#000000;stroke-width:1;"/><polygon fill="#000000" points="2130.6,225.5894,2125.5425,217.1382,2126.5112,222.7115,2120.938,223.6802,2130.6,225.5894" style="stroke:#000000;stroke-width:1;"/></g><!--link EventoConsultaService to EventoRepository--><g class="link" data-entity-1="EventoConsultaService" data-entity-2="EventoRepository" data-source-line="68" data-uid="lnk56" id="link_EventoConsultaService_EventoRepository"><path codeLine="68" d="M2332.96,162.4494 C2326.9,163.6194 2320.88,164.6894 2315,165.6094 C1973.71,219.2494 1867.78,116.4494 1540,225.6094 C1477.06,246.5694 1477.46,286.3094 1414,305.6094 C1345.52,326.4394 1160.14,291.6894 1092,313.6094 C1064.94,322.3194 1043.1651,337.6094 1025.2751,352.7094" fill="none" id="EventoConsultaService-to-EventoRepository" style="stroke:#000000;stroke-width:1;"/><polygon fill="#000000" points="1020.69,356.5794,1030.1476,353.8311,1024.5109,353.3544,1024.9876,347.7176,1020.69,356.5794" style="stroke:#000000;stroke-width:1;"/></g><!--link EventoConsultaService to VeiculoSpecification--><g class="link" data-entity-1="EventoConsultaService" data-entity-2="VeiculoSpecification" data-source-line="69" data-uid="lnk57" id="link_EventoConsultaService_VeiculoSpecification"><path codeLine="69" d="M2428,165.6294 C2428,183.6694 2428,201.3094 2428,219.3894" fill="none" id="EventoConsultaService-to-VeiculoSpecification" style="stroke:#000000;stroke-width:1;"/><polygon fill="#000000" points="2428,225.3894,2432,216.3894,2428,220.3894,2424,216.3894,2428,225.3894" style="stroke:#000000;stroke-width:1;"/></g><!--link PeriodicoConsultaService to PeriodicoRepository--><g class="link" data-entity-1="PeriodicoConsultaService" data-entity-2="PeriodicoRepository" data-source-line="70" data-uid="lnk58" id="link_PeriodicoConsultaService_PeriodicoRepository"><path codeLine="70" d="M2558.42,162.7994 C2552.54,163.8394 2546.71,164.7894 2541,165.6094 C2336.01,195.0994 1805.47,154.3994 1611,225.6094 C1554.91,246.1494 1559.35,285.7994 1503,305.6094 C1459.36,320.9494 1339.2,299.9694 1295,313.6094 C1266.43,322.4294 1242.723,337.7105 1223.143,352.7105" fill="none" id="PeriodicoConsultaService-to-PeriodicoRepository" style="stroke:#000000;stroke-width:1;"/><polygon fill="#000000" points="1218.38,356.3594,1227.957,354.0614,1222.3491,353.3187,1223.0919,347.7108,1218.38,356.3594" style="stroke:#000000;stroke-width:1;"/></g><!--link PeriodicoConsultaService to VeiculoSpecification--><g class="link" data-entity-1="PeriodicoConsultaService" data-entity-2="VeiculoSpecification" data-source-line="71" data-uid="lnk59" id="link_PeriodicoConsultaService_VeiculoSpecification"><path codeLine="71" d="M2605.78,165.6294 C2568.77,183.7294 2525.6194,204.8422 2488.6094,222.9522" fill="none" id="PeriodicoConsultaService-to-VeiculoSpecification" style="stroke:#000000;stroke-width:1;"/><polygon fill="#000000" points="2483.22,225.5894,2493.0622,225.2265,2487.7111,223.3917,2489.5459,218.0407,2483.22,225.5894" style="stroke:#000000;stroke-width:1;"/></g><!--link ListarLogVeiculoService to LogVeiculoRepository--><g class="link" data-entity-1="ListarLogVeiculoService" data-entity-2="LogVeiculoRepository" data-source-line="72" data-uid="lnk60" id="link_ListarLogVeiculoService_LogVeiculoRepository"><path codeLine="72" d="M3022.36,162.8194 C3016.51,163.8694 3010.69,164.8094 3005,165.6094 C2866.08,185.0594 1866.93,158.0594 1744,225.6094 C1691.25,254.5994 1660.8084,316.4525 1646.9484,350.9225" fill="none" id="ListarLogVeiculoService-to-LogVeiculoRepository" style="stroke:#000000;stroke-width:1;"/><polygon fill="#000000" points="1644.71,356.4894,1651.7788,349.6314,1646.5753,351.8503,1644.3563,346.6469,1644.71,356.4894" style="stroke:#000000;stroke-width:1;"/></g><!--link RegistrarLogService to LogRepository--><g class="link" data-entity-1="RegistrarLogService" data-entity-2="LogRepository" data-source-line="73" data-uid="lnk61" id="link_RegistrarLogService_LogRepository"><path codeLine="73" d="M2152.8,281.9094 C2139.44,304.4094 2123.8327,330.7199 2111.5927,351.3399" fill="none" id="RegistrarLogService-to-LogRepository" style="stroke:#000000;stroke-width:1;"/><polygon fill="#000000" points="2108.53,356.4994,2116.5636,350.8019,2111.0822,352.1998,2109.6843,346.7184,2108.53,356.4994" style="stroke:#000000;stroke-width:1;"/></g><!--link RegistrarLogService to LogVeiculoRepository--><g class="link" data-entity-1="RegistrarLogService" data-entity-2="LogVeiculoRepository" data-source-line="74" data-uid="lnk62" id="link_RegistrarLogService_LogVeiculoRepository"><path codeLine="74" d="M2125.46,281.6594 C2107.96,291.0994 2087.17,300.5794 2067,305.6094 C1997.33,322.9694 1812.97,293.6394 1744,313.6094 C1714.06,322.2794 1688.7897,337.9029 1668.1697,353.0129" fill="none" id="RegistrarLogService-to-LogVeiculoRepository" style="stroke:#000000;stroke-width:1;"/><polygon fill="#000000" points="1663.33,356.5594,1672.9538,354.4662,1667.3631,353.604,1668.2252,348.0132,1663.33,356.5594" style="stroke:#000000;stroke-width:1;"/></g><!--link RegistrarLogService to JustificativaRecusaRepository--><g class="link" data-entity-1="RegistrarLogService" data-entity-2="JustificativaRecusaRepository" data-source-line="75" data-uid="lnk63" id="link_RegistrarLogService_JustificativaRecusaRepository"><path codeLine="75" d="M2122.55,281.6494 C2105.56,290.5094 2085.87,299.6094 2067,305.6094 C2044.72,312.6994 2037.36,306.7794 2015,313.6094 C1980.18,324.2394 1948.2258,339.4689 1921.5258,353.6889" fill="none" id="RegistrarLogService-to-JustificativaRecusaRepository" style="stroke:#000000;stroke-width:1;"/><polygon fill="#000000" points="1916.23,356.5094,1926.0539,355.8092,1920.6431,354.159,1922.2934,348.7482,1916.23,356.5094" style="stroke:#000000;stroke-width:1;"/></g><!--link AvaliarVeiculoService to VeiculoPublicacaoRepository--><g class="link" data-entity-1="AvaliarVeiculoService" data-entity-2="VeiculoPublicacaoRepository" data-source-line="76" data-uid="lnk64" id="link_AvaliarVeiculoService_VeiculoPublicacaoRepository"><path codeLine="76" d="M1506.33,162.4194 C1500.49,163.6094 1494.67,164.6794 1489,165.6094 C952.11,253.2094 789.23,139.0494 274,313.6094 C240.71,324.8894 210.2434,339.7557 184.3434,353.6957" fill="none" id="AvaliarVeiculoService-to-VeiculoPublicacaoRepository" style="stroke:#000000;stroke-width:1;"/><polygon fill="#000000" points="179.06,356.5394,188.8808,355.7962,183.4628,354.1697,185.0893,348.7517,179.06,356.5394" style="stroke:#000000;stroke-width:1;"/></g><!--link AvaliarVeiculoService to PeriodicoRepository--><g class="link" data-entity-1="AvaliarVeiculoService" data-entity-2="PeriodicoRepository" data-source-line="77" data-uid="lnk65" id="link_AvaliarVeiculoService_PeriodicoRepository"><path codeLine="77" d="M1506.47,161.5694 C1500.56,162.9694 1494.7,164.3294 1489,165.6094 C1354.63,195.7994 1272.45,119.2194 1185,225.6094 C1154.38,262.8694 1169.3302,318.6477 1181.6802,350.8277" fill="none" id="AvaliarVeiculoService-to-PeriodicoRepository" style="stroke:#000000;stroke-width:1;"/><polygon fill="#000000" points="1183.83,356.4294,1184.3397,346.5937,1182.0385,351.7613,1176.8709,349.4601,1183.83,356.4294" style="stroke:#000000;stroke-width:1;"/></g><!--link AvaliarVeiculoService to UsuarioRepository--><g class="link" data-entity-1="AvaliarVeiculoService" data-entity-2="UsuarioRepository" data-source-line="78" data-uid="lnk66" id="link_AvaliarVeiculoService_UsuarioRepository"><path codeLine="78" d="M1506.3,162.2494 C1500.46,163.4794 1494.66,164.6094 1489,165.6094 C1230.3,211.1994 1155.17,159.2494 901,225.6094 C805.85,250.4494 784.37,266.5894 698,313.6094 C674.43,326.4394 654.1258,339.9108 635.4658,353.1308" fill="none" id="AvaliarVeiculoService-to-UsuarioRepository" style="stroke:#000000;stroke-width:1;"/><polygon fill="#000000" points="630.57,356.5994,640.2261,354.6605,634.6499,353.7089,635.6014,348.1327,630.57,356.5994" style="stroke:#000000;stroke-width:1;"/></g><!--link AvaliarVeiculoService to RegistrarLogService--><g class="link" data-entity-1="AvaliarVeiculoService" data-entity-2="RegistrarLogService" data-source-line="79" data-uid="lnk67" id="link_AvaliarVeiculoService_RegistrarLogService"><path codeLine="79" d="M1685.74,161.6294 C1691.91,163.0294 1698.04,164.3694 1704,165.6094 C1864.12,198.7994 1907.11,191.3194 2067,225.6094 C2072.64,226.8194 2072.6036,226.7478 2078.4336,228.1378" fill="none" id="AvaliarVeiculoService-to-RegistrarLogService" style="stroke:#000000;stroke-width:1;"/><polygon fill="#000000" points="2084.27,229.5294,2076.4431,223.5511,2079.4063,228.3698,2074.5877,231.333,2084.27,229.5294" style="stroke:#000000;stroke-width:1;"/></g><!--link AvaliarVeiculoService to ClassificarPeriodicoPredatorioService--><g class="link" data-entity-1="AvaliarVeiculoService" data-entity-2="ClassificarPeriodicoPredatorioService" data-source-line="80" data-uid="lnk68" id="link_AvaliarVeiculoService_ClassificarPeriodicoPredatorioService"><path codeLine="80" d="M1669.23,165.6294 C1718.31,183.7294 1777.051,205.4023 1826.131,223.5123" fill="none" id="AvaliarVeiculoService-to-ClassificarPeriodicoPredatorioService" style="stroke:#000000;stroke-width:1;"/><polygon fill="#000000" points="1831.76,225.5894,1824.7012,218.7211,1827.0691,223.8585,1821.9318,226.2265,1831.76,225.5894" style="stroke:#000000;stroke-width:1;"/></g><!--link ClassificarPeriodicoPredatorioService to PeriodicoRepository--><g class="link" data-entity-1="ClassificarPeriodicoPredatorioService" data-entity-2="PeriodicoRepository" data-source-line="81" data-uid="lnk69" id="link_ClassificarPeriodicoPredatorioService_PeriodicoRepository"><path codeLine="81" d="M1764.51,281.6294 C1710.75,290.8894 1648.73,300.2494 1592,305.6094 C1559.13,308.7194 1326.6,304.0494 1295,313.6094 C1266.18,322.3194 1242.2603,337.8141 1222.6903,352.9141" fill="none" id="ClassificarPeriodicoPredatorioService-to-PeriodicoRepository" style="stroke:#000000;stroke-width:1;"/><polygon fill="#000000" points="1217.94,356.5794,1227.509,354.2483,1221.8986,353.525,1222.622,347.9145,1217.94,356.5794" style="stroke:#000000;stroke-width:1;"/></g><!--link ClassificarPeriodicoPredatorioService to UsuarioRepository--><g class="link" data-entity-1="ClassificarPeriodicoPredatorioService" data-entity-2="UsuarioRepository" data-source-line="82" data-uid="lnk70" id="link_ClassificarPeriodicoPredatorioService_UsuarioRepository"><path codeLine="82" d="M1760.86,274.5294 C1671.53,285.9394 1554.33,299.2194 1450,305.6094 C1408.3,308.1594 737.92,301.2894 698,313.6094 C670.44,322.1194 648.1295,337.4705 629.8395,352.6305" fill="none" id="ClassificarPeriodicoPredatorioService-to-UsuarioRepository" style="stroke:#000000;stroke-width:1;"/><polygon fill="#000000" points="625.22,356.4594,634.7018,353.7956,629.0695,353.2686,629.5966,347.6364,625.22,356.4594" style="stroke:#000000;stroke-width:1;"/></g><!--link UsuarioDetailsService to UsuarioRepository--><g class="link" data-entity-1="UsuarioDetailsService" data-entity-2="UsuarioRepository" data-source-line="83" data-uid="lnk71" id="link_UsuarioDetailsService_UsuarioRepository"><path codeLine="83" d="M1290.45,142.6294 C1098.32,152.0394 663.55,178.3594 617,225.6094 C582.76,260.3694 588.7776,317.8132 595.5576,350.6732" fill="none" id="UsuarioDetailsService-to-UsuarioRepository" style="stroke:#000000;stroke-width:1;"/><polygon fill="#000000" points="596.77,356.5494,598.8688,346.9267,595.7596,351.6525,591.0339,348.5433,596.77,356.5494" style="stroke:#000000;stroke-width:1;"/></g><!--link AutorizacaoServiceRsa to JwtService--><g class="link" data-entity-1="AutorizacaoServiceRsa" data-entity-2="JwtService" data-source-line="84" data-uid="lnk72" id="link_AutorizacaoServiceRsa_JwtService"><path codeLine="84" d="M2823.09,165.6294 C2769.59,186.2994 2702.6466,212.1664 2654.5466,230.7564" fill="none" id="AutorizacaoServiceRsa-to-JwtService" style="stroke:#000000;stroke-width:1;"/><polygon fill="#000000" points="2648.95,232.9194,2658.7868,233.4059,2653.6138,231.1169,2655.9028,225.9438,2648.95,232.9194" style="stroke:#000000;stroke-width:1;"/></g><!--link AutorizacaoServiceRsa to RefreshTokenRepository--><g class="link" data-entity-1="AutorizacaoServiceRsa" data-entity-2="RefreshTokenRepository" data-source-line="85" data-uid="lnk73" id="link_AutorizacaoServiceRsa_RefreshTokenRepository"><path codeLine="85" d="M2798.83,162.6094 C2792.82,163.7394 2786.84,164.7494 2781,165.6094 C2539,201.0794 1910.29,137.8294 1682,225.6094 C1629.2,245.9094 1634.77,282.8194 1583,305.6094 C1561.2,315.2094 1552.59,306.0394 1530,313.6094 C1499.06,323.9794 1471.7625,338.9765 1448.7625,353.3065" fill="none" id="AutorizacaoServiceRsa-to-RefreshTokenRepository" style="stroke:#000000;stroke-width:1;"/><polygon fill="#000000" points="1443.67,356.4794,1453.4239,355.1151,1447.9137,353.8354,1449.1935,348.3252,1443.67,356.4794" style="stroke:#000000;stroke-width:1;"/></g><!--link AutorizacaoServiceRsa to UsuarioRepository--><g class="link" data-entity-1="AutorizacaoServiceRsa" data-entity-2="UsuarioRepository" data-source-line="86" data-uid="lnk74" id="link_AutorizacaoServiceRsa_UsuarioRepository"><path codeLine="86" d="M2798.83,162.6394 C2792.82,163.7594 2786.84,164.7694 2781,165.6094 C2249.83,242.1594 2105.96,147.5894 1575,225.6094 C1428.25,247.1694 1398.11,286.6394 1251,305.6094 C1220.53,309.5394 727.34,304.4894 698,313.6094 C670.45,322.1694 648.1419,337.5235 629.8519,352.6635" fill="none" id="AutorizacaoServiceRsa-to-UsuarioRepository" style="stroke:#000000;stroke-width:1;"/><polygon fill="#000000" points="625.23,356.4894,634.7135,353.8318,629.0816,353.3011,629.6123,347.6692,625.23,356.4894" style="stroke:#000000;stroke-width:1;"/></g><!--link CriarPeriodicoService to PeriodicoRequestDTO--><g class="link" data-entity-1="CriarPeriodicoService" data-entity-2="PeriodicoRequestDTO" data-source-line="90" data-uid="lnk75" id="link_CriarPeriodicoService_PeriodicoRequestDTO"><path codeLine="90" d="M2096.13,162.4094 C2101.82,163.5894 2107.48,164.6694 2113,165.6094 C2414.73,216.8794 2517.94,104.4694 2799,225.6094 C2848.15,246.7894 2839.37,285.5794 2889,305.6094 C2929.84,322.0894 3044.8,301.0294 3087,313.6094 C3116.66,322.4494 3141.7161,337.8624 3162.3461,352.8524" fill="none" id="CriarPeriodicoService-to-PeriodicoRequestDTO" style="stroke:#000000;stroke-width:1;stroke-dasharray:7.0,7.0;"/><polygon fill="#000000" points="3167.2,356.3794,3162.2704,347.853,3163.155,353.4403,3157.5678,354.3249,3167.2,356.3794" style="stroke:#000000;stroke-width:1;"/></g><!--link CriarPeriodicoService to Periodico--><g class="link" data-entity-1="CriarPeriodicoService" data-entity-2="Periodico" data-source-line="91" data-uid="lnk76" id="link_CriarPeriodicoService_Periodico"><path codeLine="91" d="M2096.12,162.4994 C2101.81,163.6494 2107.47,164.7094 2113,165.6094 C2466.64,223.3894 2560.33,191.1494 2917,225.6094 C3217.26,254.6194 3290,285.6294 3591,305.6094 C3621.71,307.6494 4116.65,301.6294 4145,313.6094 C4165.7,322.3594 4179.6005,336.5293 4191.0605,351.5493" fill="none" id="CriarPeriodicoService-to-Periodico" style="stroke:#000000;stroke-width:1;stroke-dasharray:7.0,7.0;"/><polygon fill="#000000" points="4194.7,356.3194,4192.4208,346.7379,4191.6671,352.3443,4186.0607,351.5906,4194.7,356.3194" style="stroke:#000000;stroke-width:1;"/></g><!--link CriarEventoService to EventoCreateDTO--><g class="link" data-entity-1="CriarEventoService" data-entity-2="EventoCreateDTO" data-source-line="92" data-uid="lnk77" id="link_CriarEventoService_EventoCreateDTO"><path codeLine="92" d="M1883.03,162.0494 C1889.08,163.3894 1895.12,164.5994 1901,165.6094 C2076.91,195.8994 2537.08,157.3194 2702,225.6094 C2752.37,246.4694 2744.65,284.6794 2795,305.6094 C2837.4,323.2294 2854.68,298.3994 2898,313.6094 C2924.45,322.8994 2945.8504,337.7527 2963.7904,352.5427" fill="none" id="CriarEventoService-to-EventoCreateDTO" style="stroke:#000000;stroke-width:1;stroke-dasharray:7.0,7.0;"/><polygon fill="#000000" points="2968.42,356.3594,2964.0201,347.548,2964.562,353.1788,2958.9312,353.7207,2968.42,356.3594" style="stroke:#000000;stroke-width:1;"/></g><!--link CriarEventoService to Evento--><g class="link" data-entity-1="CriarEventoService" data-entity-2="Evento" data-source-line="93" data-uid="lnk78" id="link_CriarEventoService_Evento"><path codeLine="93" d="M1883.02,162.0894 C1889.08,163.4194 1895.12,164.6194 1901,165.6094 C2284.48,230.4194 2392.76,148.7194 2774,225.6094 C2881.74,247.3394 2899.73,286.7194 3008,305.6094 C3035.26,310.3694 3480.9,301.9694 3506,313.6094 C3525.16,322.4894 3537.1141,336.3861 3546.8341,351.3661" fill="none" id="CriarEventoService-to-Evento" style="stroke:#000000;stroke-width:1;stroke-dasharray:7.0,7.0;"/><polygon fill="#000000" points="3550.1,356.3994,3548.5566,346.6722,3547.3784,352.205,3541.8456,351.0267,3550.1,356.3994" style="stroke:#000000;stroke-width:1;"/></g><!--link CriarUsuarioService to UsuarioRequestDTO--><g class="link" data-entity-1="CriarUsuarioService" data-entity-2="UsuarioRequestDTO" data-source-line="94" data-uid="lnk79" id="link_CriarUsuarioService_UsuarioRequestDTO"><path codeLine="94" d="M2297.54,161.8094 C2303.76,163.1994 2309.97,164.4894 2316,165.6094 C2559.51,210.7594 2635.15,146.9894 2870,225.6094 C2935.77,247.6294 2937.39,286.2694 3004,305.6094 C3067.62,324.0794 3238.59,294.4394 3302,313.6094 C3330.82,322.3194 3354.7397,337.8141 3374.3097,352.9141" fill="none" id="CriarUsuarioService-to-UsuarioRequestDTO" style="stroke:#000000;stroke-width:1;stroke-dasharray:7.0,7.0;"/><polygon fill="#000000" points="3379.06,356.5794,3374.378,347.9145,3375.1014,353.525,3369.491,354.2483,3379.06,356.5794" style="stroke:#000000;stroke-width:1;"/></g><!--link CriarUsuarioService to Usuario--><g class="link" data-entity-1="CriarUsuarioService" data-entity-2="Usuario" data-source-line="95" data-uid="lnk80" id="link_CriarUsuarioService_Usuario"><path codeLine="95" d="M2297.76,162.2194 C2303.9,163.5094 2310.03,164.6594 2316,165.6094 C2778.05,239.1794 2900.6,188.5194 3367,225.6094 C3716.15,253.3794 3801.97,276.3694 4151,305.6094 C4178.07,307.8794 4248.54,301.7894 4273,313.6094 C4292.17,322.8694 4304.5084,336.6137 4314.7384,351.4137" fill="none" id="CriarUsuarioService-to-Usuario" style="stroke:#000000;stroke-width:1;stroke-dasharray:7.0,7.0;"/><polygon fill="#000000" points="4318.15,356.3494,4316.323,346.6715,4315.307,352.2363,4309.7421,351.2203,4318.15,356.3494" style="stroke:#000000;stroke-width:1;"/></g><!--link CriarUsuarioService to Programa--><g class="link" data-entity-1="CriarUsuarioService" data-entity-2="Programa" data-source-line="96" data-uid="lnk81" id="link_CriarUsuarioService_Programa"><path codeLine="96" d="M2297.5,162.0394 C2303.73,163.3794 2309.95,164.5894 2316,165.6094 C2668.48,224.9294 2784.43,97.1794 3118,225.6094 C3172.09,246.4394 3166.3,286.4194 3221,305.6094 C3250.1,315.8194 3747.55,301.7094 3776,313.6094 C3796.89,322.3494 3811.0503,336.5502 3822.7203,351.5802" fill="none" id="CriarUsuarioService-to-Programa" style="stroke:#000000;stroke-width:1;stroke-dasharray:7.0,7.0;"/><polygon fill="#000000" points="3826.4,356.3194,3824.0399,346.7575,3823.3336,352.3701,3817.721,351.6638,3826.4,356.3194" style="stroke:#000000;stroke-width:1;"/></g><!--link CriarUsuarioService to AreaPesquisa--><g class="link" data-entity-1="CriarUsuarioService" data-entity-2="AreaPesquisa" data-source-line="97" data-uid="lnk82" id="link_CriarUsuarioService_AreaPesquisa"><path codeLine="97" d="M2297.52,161.9594 C2303.74,163.3194 2309.95,164.5594 2316,165.6094 C2621.88,218.8694 2713.07,141.7294 3012,225.6094 C3088.93,247.1994 3095.38,286.6494 3173,305.6094 C3221.04,317.3394 3571.54,296.6794 3618,313.6094 C3641.88,322.3094 3659.7076,337.1674 3674.3976,352.2774" fill="none" id="CriarUsuarioService-to-AreaPesquisa" style="stroke:#000000;stroke-width:1;stroke-dasharray:7.0,7.0;"/><polygon fill="#000000" points="3678.58,356.5794,3675.1744,347.3381,3675.0946,352.9944,3669.4383,352.9146,3678.58,356.5794" style="stroke:#000000;stroke-width:1;"/></g><!--link PeriodicoConsultaService to Periodico--><g class="link" data-entity-1="PeriodicoConsultaService" data-entity-2="Periodico" data-source-line="98" data-uid="lnk83" id="link_PeriodicoConsultaService_Periodico"><path codeLine="98" d="M2763.79,162.6194 C2769.93,163.7194 2776.04,164.7294 2782,165.6094 C3142.19,218.7294 3237.38,183.2694 3599,225.6094 C3843.13,254.1894 3926.14,201.7194 4145,313.6094 C4164.73,323.6994 4178.3769,337.4162 4190.0369,351.8962" fill="none" id="PeriodicoConsultaService-to-Periodico" style="stroke:#000000;stroke-width:1;stroke-dasharray:7.0,7.0;"/><polygon fill="#000000" points="4193.8,356.5694,4191.2708,347.0508,4190.6641,352.675,4185.0399,352.0683,4193.8,356.5694" style="stroke:#000000;stroke-width:1;"/></g><!--link PeriodicoConsultaService to FiltroVeiculoRequestDTO--><g class="link" data-entity-1="PeriodicoConsultaService" data-entity-2="FiltroVeiculoRequestDTO" data-source-line="99" data-uid="lnk84" id="link_PeriodicoConsultaService_FiltroVeiculoRequestDTO"><path codeLine="99" d="M2763.51,162.2494 C2769.75,163.4494 2775.95,164.5894 2782,165.6094 C3008.76,204.0394 3067.93,195.8794 3296,225.6094 C3313,227.8294 3890.71,308.2394 3907,313.6094 C3938.19,323.8894 3965.7592,338.9 3988.9592,353.27" fill="none" id="PeriodicoConsultaService-to-FiltroVeiculoRequestDTO" style="stroke:#000000;stroke-width:1;stroke-dasharray:7.0,7.0;"/><polygon fill="#000000" points="3994.06,356.4294,3988.5151,348.2897,3989.8093,353.7965,3984.3025,355.0908,3994.06,356.4294" style="stroke:#000000;stroke-width:1;"/></g><!--link EventoConsultaService to Evento--><g class="link" data-entity-1="EventoConsultaService" data-entity-2="Evento" data-source-line="100" data-uid="lnk85" id="link_EventoConsultaService_Evento"><path codeLine="100" d="M2523.1,162.1094 C2529.14,163.3594 2535.15,164.5394 2541,165.6094 C2748.59,203.5194 2806.5,177.6294 3012,225.6094 C3118.21,250.4094 3136.72,285.9394 3244,305.6094 C3272.65,310.8594 3479.66,301.1694 3506,313.6094 C3525.09,322.6294 3537.0556,336.5116 3546.7856,351.4516" fill="none" id="EventoConsultaService-to-Evento" style="stroke:#000000;stroke-width:1;stroke-dasharray:7.0,7.0;"/><polygon fill="#000000" points="3550.06,356.4794,3548.5002,346.7548,3547.3313,352.2896,3541.7965,351.1207,3550.06,356.4794" style="stroke:#000000;stroke-width:1;"/></g><!--link EventoConsultaService to FiltroVeiculoRequestDTO--><g class="link" data-entity-1="EventoConsultaService" data-entity-2="FiltroVeiculoRequestDTO" data-source-line="101" data-uid="lnk86" id="link_EventoConsultaService_FiltroVeiculoRequestDTO"><path codeLine="101" d="M2523.05,162.3794 C2529.11,163.5594 2535.13,164.6594 2541,165.6094 C2691.61,190.0694 3089.7,155.0794 3225,225.6094 C3266.13,247.0494 3250.11,285.7194 3292,305.6094 C3322.87,320.2694 3873.92,305.0494 3907,313.6094 C3939.7,322.0694 3968.2551,337.9653 3991.3651,353.1453" fill="none" id="EventoConsultaService-to-FiltroVeiculoRequestDTO" style="stroke:#000000;stroke-width:1;stroke-dasharray:7.0,7.0;"/><polygon fill="#000000" points="3996.38,356.4394,3991.0537,348.155,3992.2009,353.6943,3986.6616,354.8415,3996.38,356.4394" style="stroke:#000000;stroke-width:1;"/></g><!--link VeiculoSpecification to FiltroVeiculoRequestDTO--><g class="link" data-entity-1="VeiculoSpecification" data-entity-2="FiltroVeiculoRequestDTO" data-source-line="102" data-uid="lnk87" id="link_VeiculoSpecification_FiltroVeiculoRequestDTO"><path codeLine="102" d="M2471.5,281.8594 C2488.99,291.3294 2509.78,300.7794 2530,305.6094 C2604.4,323.3994 3832.87,294.7094 3907,313.6094 C3939.73,321.9494 3968.2788,337.8598 3991.3788,353.0698" fill="none" id="VeiculoSpecification-to-FiltroVeiculoRequestDTO" style="stroke:#000000;stroke-width:1;stroke-dasharray:7.0,7.0;"/><polygon fill="#000000" points="3996.39,356.3694,3991.0729,348.0791,3992.214,353.6197,3986.6734,354.7608,3996.39,356.3694" style="stroke:#000000;stroke-width:1;"/></g><!--link VeiculoSpecification to StatusVeiculo--><g class="link" data-entity-1="VeiculoSpecification" data-entity-2="StatusVeiculo" data-source-line="103" data-uid="lnk88" id="link_VeiculoSpecification_StatusVeiculo"><path codeLine="103" d="M2441.76,281.9094 C2453.1,304.4094 2466.2701,330.5212 2476.6601,351.1412" fill="none" id="VeiculoSpecification-to-StatusVeiculo" style="stroke:#000000;stroke-width:1;stroke-dasharray:7.0,7.0;"/><polygon fill="#000000" points="2479.36,356.4994,2478.8823,346.6621,2477.1101,352.0342,2471.738,350.262,2479.36,356.4994" style="stroke:#000000;stroke-width:1;"/></g><!--link AvaliarVeiculoService to VeiculoPublicacao--><g class="link" data-entity-1="AvaliarVeiculoService" data-entity-2="VeiculoPublicacao" data-source-line="104" data-uid="lnk89" id="link_AvaliarVeiculoService_VeiculoPublicacao"><path codeLine="104" d="M1685.62,162.3294 C1691.81,163.5694 1697.98,164.6794 1704,165.6094 C1809.84,181.9994 2592.67,147.5594 2666,225.6094 C2699.16,260.8994 2685.7205,318.0322 2674.3405,350.7622" fill="none" id="AvaliarVeiculoService-to-VeiculoPublicacao" style="stroke:#000000;stroke-width:1;stroke-dasharray:7.0,7.0;"/><polygon fill="#000000" points="2672.37,356.4294,2679.1038,349.2422,2674.012,351.7067,2671.5475,346.6149,2672.37,356.4294" style="stroke:#000000;stroke-width:1;"/></g><!--link RegistrarLogService to Log--><g class="link" data-entity-1="RegistrarLogService" data-entity-2="Log" data-source-line="105" data-uid="lnk90" id="link_RegistrarLogService_Log"><path codeLine="105" d="M2253.59,276.9794 C2277.29,285.8594 2302,297.8194 2322,313.6094 C2336.5,325.0594 2345.1771,337.3283 2352.8171,351.1483" fill="none" id="RegistrarLogService-to-Log" style="stroke:#000000;stroke-width:1;stroke-dasharray:7.0,7.0;"/><polygon fill="#000000" points="2355.72,356.3994,2354.8664,346.5876,2353.3009,352.0235,2347.865,350.4581,2355.72,356.3994" style="stroke:#000000;stroke-width:1;"/></g><!--link RegistrarLogService to LogVeiculo--><g class="link" data-entity-1="RegistrarLogService" data-entity-2="LogVeiculo" data-source-line="106" data-uid="lnk91" id="link_RegistrarLogService_LogVeiculo"><path codeLine="106" d="M2237.46,281.7094 C2264.58,291.1494 2296.32,300.6294 2326,305.6094 C2349.73,309.5894 2736.68,304.6194 2759,313.6094 C2780.67,322.3394 2795.8147,336.6836 2808.3547,351.7036" fill="none" id="RegistrarLogService-to-LogVeiculo" style="stroke:#000000;stroke-width:1;stroke-dasharray:7.0,7.0;"/><polygon fill="#000000" points="2812.2,356.3094,2809.5025,346.8371,2808.9956,352.4712,2803.3615,351.9642,2812.2,356.3094" style="stroke:#000000;stroke-width:1;"/></g><!--link RegistrarLogService to AcaoLog--><g class="link" data-entity-1="RegistrarLogService" data-entity-2="AcaoLog" data-source-line="107" data-uid="lnk92" id="link_RegistrarLogService_AcaoLog"><path codeLine="107" d="M2189.2,281.9094 C2205.85,304.4094 2225.5623,331.0553 2240.8123,351.6753" fill="none" id="RegistrarLogService-to-AcaoLog" style="stroke:#000000;stroke-width:1;stroke-dasharray:7.0,7.0;"/><polygon fill="#000000" points="2244.38,356.4994,2242.2444,346.8848,2241.4069,352.4793,2235.8124,351.6418,2244.38,356.4994" style="stroke:#000000;stroke-width:1;"/></g><!--link ListarLogVeiculoService to LogVeiculo--><g class="link" data-entity-1="ListarLogVeiculoService" data-entity-2="LogVeiculo" data-source-line="108" data-uid="lnk93" id="link_ListarLogVeiculoService_LogVeiculo"><path codeLine="108" d="M3083.98,165.7094 C3039.53,199.4494 2961.96,259.2794 2898,313.6094 C2881.68,327.4694 2868.274,339.6529 2854.704,352.3329" fill="none" id="ListarLogVeiculoService-to-LogVeiculo" style="stroke:#000000;stroke-width:1;stroke-dasharray:7.0,7.0;"/><polygon fill="#000000" points="2850.32,356.4294,2859.6269,353.2074,2853.9733,353.0157,2854.165,347.3621,2850.32,356.4294" style="stroke:#000000;stroke-width:1;"/></g><!--link ListarLogVeiculoService to JustificativaRecusa--><g class="link" data-entity-1="ListarLogVeiculoService" data-entity-2="JustificativaRecusa" data-source-line="109" data-uid="lnk94" id="link_ListarLogVeiculoService_JustificativaRecusa"><path codeLine="109" d="M3217.52,141.5794 C3506.03,150.8194 4342.43,181.1894 4457,225.6094 C4530.46,254.0894 4593.7109,317.2754 4624.8209,351.9154" fill="none" id="ListarLogVeiculoService-to-JustificativaRecusa" style="stroke:#000000;stroke-width:1;stroke-dasharray:7.0,7.0;"/><polygon fill="#000000" points="4628.83,356.3794,4625.7924,347.0107,4625.4891,352.6594,4619.8404,352.3561,4628.83,356.3794" style="stroke:#000000;stroke-width:1;"/></g><!--link AutorizacaoServiceRsa to RefreshToken--><g class="link" data-entity-1="AutorizacaoServiceRsa" data-entity-2="RefreshToken" data-source-line="110" data-uid="lnk95" id="link_AutorizacaoServiceRsa_RefreshToken"><path codeLine="110" d="M2987.16,162.6494 C2993.18,163.7694 2999.16,164.7694 3005,165.6094 C3276.32,204.5694 3974.09,148.0894 4237,225.6094 C4323.83,251.2094 4403.8195,317.1433 4442.5395,352.5033" fill="none" id="AutorizacaoServiceRsa-to-RefreshToken" style="stroke:#000000;stroke-width:1;stroke-dasharray:7.0,7.0;"/><polygon fill="#000000" points="4446.97,356.5494,4443.0216,347.5266,4443.2779,353.1777,4437.6269,353.434,4446.97,356.5494" style="stroke:#000000;stroke-width:1;"/></g><!--link AutorizacaoServiceRsa to Usuario--><g class="link" data-entity-1="AutorizacaoServiceRsa" data-entity-2="Usuario" data-source-line="111" data-uid="lnk96" id="link_AutorizacaoServiceRsa_Usuario"><path codeLine="111" d="M2987.17,162.6194 C2993.18,163.7494 2999.16,164.7594 3005,165.6094 C3258.24,202.4194 3914.3,138.7094 4155,225.6094 C4226.39,251.3794 4284.155,316.5521 4311.755,351.8621" fill="none" id="AutorizacaoServiceRsa-to-Usuario" style="stroke:#000000;stroke-width:1;stroke-dasharray:7.0,7.0;"/><polygon fill="#000000" points="4315.45,356.5894,4313.0589,347.0352,4312.3708,352.65,4306.756,351.9619,4315.45,356.5894" style="stroke:#000000;stroke-width:1;"/></g><!--SRC=[dPRTJjim583lynGUDmDfPNi0LAcq80qXhMhPxaroA1Qf7Mod4w0z3zAaNUu9-c8xRjCahSz9ezsqIVoTO_lyV_2Fi0HHv5Bfn2kVWvWekR1oAKKcnHZ_yIy3CGUxKkjt8qulIwSqE2TkpKAbubQ-W3rBt9FIXKGvaURIkP7tLjsN7hwcHi_LAuWlBQIGwPDSmDo_u7uMKfyarITnijae1NSYBYx6PbaO3TeFX-8j4LlLOhIIkPBs1wYqp4t58rqz3OSrEGw_wa6bqax1AfEfr4mjPD8RVEkKjBZ3rGgtFexLge-ItrqfZsoytNDij2jpBxl8Uji-yAroNbhqM0-hpM21jDtWNToe36PybQdSgPivIPBLlIVWfSfTbywRdxvhUNVw0jADMxqoUZzEab-jM9f1OPmAfmGdJYTGWCv0f_Xs5iBhskGPs2gsbFPW7oHkFB8Wf-2UI-LahU5b3zbwYLci7SEiLzRWfAtPf1-pZ3xXLohpCC1DwNnbjHMgJqlsUfMUQNcV8ux-PRWPF5XmZtVc2NGBQRjWOfPOMiJfbSRgWeR_92Ptt_3tIfVBu8MtE9uFSk4mYWw3eJbb4-rcqNwkm2R8OaCqGTroVdEqoYUj56ak7bzW1iybE8yNFKnhLEwX_RsEXKZYMkNUcjgZhNL0qucvbxvqpSqs7qTeX71tT43oKGm60pneBjVlwxyO_xky6Wphny-YyLh04wfA3L0W3bcEP9A7mubevr2YB2L4cGveb9uCrtNOc6QC48FiIQDEiJ41KIvukkl8f01pQfAb3aut9DBAF4hLxOHjO9nLEWN8BRYs5mJ8UadrlWhkH_LNsLsEwI6dTL6oEFDIb3rvEWuQdgM2XgTxZMH9ly6DpPxUql4zwL65iGav06ryMuyn7H3JFNc1-0IxChyTRTQ_SRQHJcH6ODjT_z7AD5KzIlZpyo7PidhGLE4Bm66NwyJ8GX-MuvvuX6JNwxxD0NlTdYql-tVlnBYkJPV6bZ5uW5D9piB_9R0_Iz2v6xXuuA9gMo334DAnjjkAGtPp35U-3zHqOTIiHsTOeFVcEXwh8kaV]--></g></svg>